%TF.GenerationSoftware,KiCad,Pcbnew,8.0.5*%
%TF.CreationDate,2025-03-16T21:49:30+05:30*%
%TF.ProjectId,bldc,626c6463-2e6b-4696-9361-645f70636258,rev?*%
%TF.SameCoordinates,Original*%
%TF.FileFunction,Copper,L1,Top*%
%TF.FilePolarity,Positive*%
%FSLAX46Y46*%
G04 Gerber Fmt 4.6, Leading zero omitted, Abs format (unit mm)*
G04 Created by KiCad (PCBNEW 8.0.5) date 2025-03-16 21:49:30*
%MOMM*%
%LPD*%
G01*
G04 APERTURE LIST*
G04 Aperture macros list*
%AMRoundRect*
0 Rectangle with rounded corners*
0 $1 Rounding radius*
0 $2 $3 $4 $5 $6 $7 $8 $9 X,Y pos of 4 corners*
0 Add a 4 corners polygon primitive as box body*
4,1,4,$2,$3,$4,$5,$6,$7,$8,$9,$2,$3,0*
0 Add four circle primitives for the rounded corners*
1,1,$1+$1,$2,$3*
1,1,$1+$1,$4,$5*
1,1,$1+$1,$6,$7*
1,1,$1+$1,$8,$9*
0 Add four rect primitives between the rounded corners*
20,1,$1+$1,$2,$3,$4,$5,0*
20,1,$1+$1,$4,$5,$6,$7,0*
20,1,$1+$1,$6,$7,$8,$9,0*
20,1,$1+$1,$8,$9,$2,$3,0*%
G04 Aperture macros list end*
%TA.AperFunction,SMDPad,CuDef*%
%ADD10C,1.000000*%
%TD*%
%TA.AperFunction,SMDPad,CuDef*%
%ADD11R,3.000000X3.000000*%
%TD*%
%TA.AperFunction,SMDPad,CuDef*%
%ADD12R,6.000000X4.000000*%
%TD*%
%TA.AperFunction,SMDPad,CuDef*%
%ADD13R,0.450000X1.150000*%
%TD*%
%TA.AperFunction,SMDPad,CuDef*%
%ADD14RoundRect,0.225000X0.250000X-0.225000X0.250000X0.225000X-0.250000X0.225000X-0.250000X-0.225000X0*%
%TD*%
%TA.AperFunction,SMDPad,CuDef*%
%ADD15RoundRect,0.225000X0.225000X0.250000X-0.225000X0.250000X-0.225000X-0.250000X0.225000X-0.250000X0*%
%TD*%
%TA.AperFunction,SMDPad,CuDef*%
%ADD16RoundRect,0.225000X-0.225000X-0.250000X0.225000X-0.250000X0.225000X0.250000X-0.225000X0.250000X0*%
%TD*%
%TA.AperFunction,SMDPad,CuDef*%
%ADD17RoundRect,0.225000X-0.250000X0.225000X-0.250000X-0.225000X0.250000X-0.225000X0.250000X0.225000X0*%
%TD*%
%TA.AperFunction,SMDPad,CuDef*%
%ADD18RoundRect,0.150000X-0.825000X-0.150000X0.825000X-0.150000X0.825000X0.150000X-0.825000X0.150000X0*%
%TD*%
%TA.AperFunction,SMDPad,CuDef*%
%ADD19RoundRect,0.375000X0.625000X0.375000X-0.625000X0.375000X-0.625000X-0.375000X0.625000X-0.375000X0*%
%TD*%
%TA.AperFunction,SMDPad,CuDef*%
%ADD20RoundRect,0.500000X0.500000X1.400000X-0.500000X1.400000X-0.500000X-1.400000X0.500000X-1.400000X0*%
%TD*%
%TA.AperFunction,SMDPad,CuDef*%
%ADD21RoundRect,0.200000X0.275000X-0.200000X0.275000X0.200000X-0.275000X0.200000X-0.275000X-0.200000X0*%
%TD*%
%TA.AperFunction,SMDPad,CuDef*%
%ADD22RoundRect,0.200000X0.200000X0.275000X-0.200000X0.275000X-0.200000X-0.275000X0.200000X-0.275000X0*%
%TD*%
%TA.AperFunction,SMDPad,CuDef*%
%ADD23RoundRect,0.200000X-0.200000X-0.275000X0.200000X-0.275000X0.200000X0.275000X-0.200000X0.275000X0*%
%TD*%
%TA.AperFunction,SMDPad,CuDef*%
%ADD24RoundRect,0.200000X-0.275000X0.200000X-0.275000X-0.200000X0.275000X-0.200000X0.275000X0.200000X0*%
%TD*%
%TA.AperFunction,SMDPad,CuDef*%
%ADD25R,2.000000X2.500000*%
%TD*%
%TA.AperFunction,ComponentPad*%
%ADD26R,1.700000X1.700000*%
%TD*%
%TA.AperFunction,ComponentPad*%
%ADD27O,1.700000X1.700000*%
%TD*%
%TA.AperFunction,ComponentPad*%
%ADD28R,1.350000X1.350000*%
%TD*%
%TA.AperFunction,ComponentPad*%
%ADD29O,1.350000X1.350000*%
%TD*%
%TA.AperFunction,SMDPad,CuDef*%
%ADD30RoundRect,0.218750X-0.218750X-0.256250X0.218750X-0.256250X0.218750X0.256250X-0.218750X0.256250X0*%
%TD*%
%TA.AperFunction,SMDPad,CuDef*%
%ADD31RoundRect,0.075000X-0.662500X-0.075000X0.662500X-0.075000X0.662500X0.075000X-0.662500X0.075000X0*%
%TD*%
%TA.AperFunction,SMDPad,CuDef*%
%ADD32RoundRect,0.075000X-0.075000X-0.662500X0.075000X-0.662500X0.075000X0.662500X-0.075000X0.662500X0*%
%TD*%
%TA.AperFunction,SMDPad,CuDef*%
%ADD33R,4.550000X4.410000*%
%TD*%
%TA.AperFunction,SMDPad,CuDef*%
%ADD34RoundRect,0.125000X-0.300000X-0.125000X0.300000X-0.125000X0.300000X0.125000X-0.300000X0.125000X0*%
%TD*%
%TA.AperFunction,ViaPad*%
%ADD35C,0.600000*%
%TD*%
%TA.AperFunction,Conductor*%
%ADD36C,0.300000*%
%TD*%
%TA.AperFunction,Conductor*%
%ADD37C,0.800000*%
%TD*%
%TA.AperFunction,Conductor*%
%ADD38C,0.500000*%
%TD*%
%TA.AperFunction,Conductor*%
%ADD39C,0.400000*%
%TD*%
G04 APERTURE END LIST*
D10*
%TO.P,TP10,1,1*%
%TO.N,Net-(U5-PB12)*%
X65250000Y-111500000D03*
%TD*%
%TO.P,TP11,1,1*%
%TO.N,Net-(U5-PB14)*%
X66500000Y-109000000D03*
%TD*%
D11*
%TO.P,TP9,1,1*%
%TO.N,GND*%
X72000000Y-113000000D03*
%TD*%
%TO.P,TP8,1,1*%
%TO.N,Net-(C17-Pad2)*%
X72000000Y-108750000D03*
%TD*%
%TO.P,TP7,1,1*%
%TO.N,Net-(R18-Pad2)*%
X72000000Y-104500000D03*
%TD*%
%TO.P,TP6,1,1*%
%TO.N,+3V3*%
X72000000Y-98250000D03*
%TD*%
D12*
%TO.P,TP3,1,1*%
%TO.N,/PHASE_C*%
X100000000Y-116000000D03*
%TD*%
%TO.P,TP2,1,1*%
%TO.N,/PHASE_B*%
X100000000Y-109750000D03*
%TD*%
%TO.P,TP1,1,1*%
%TO.N,/PHASE_A*%
X100000000Y-103250000D03*
%TD*%
D13*
%TO.P,IC1,1,AAM*%
%TO.N,Net-(IC1-AAM)*%
X79725000Y-119450000D03*
%TO.P,IC1,2,IN*%
%TO.N,VDC*%
X79075000Y-119450000D03*
%TO.P,IC1,3,SW*%
%TO.N,Net-(IC1-SW)*%
X78425000Y-119450000D03*
%TO.P,IC1,4,GND*%
%TO.N,GND*%
X77775000Y-119450000D03*
%TO.P,IC1,5,BST*%
%TO.N,Net-(IC1-BST)*%
X77775000Y-122050000D03*
%TO.P,IC1,6,EN*%
%TO.N,Net-(IC1-EN)*%
X78425000Y-122050000D03*
%TO.P,IC1,7,VCC*%
%TO.N,Net-(IC1-VCC)*%
X79075000Y-122050000D03*
%TO.P,IC1,8,FB*%
%TO.N,/FB*%
X79725000Y-122050000D03*
%TD*%
D14*
%TO.P,C15,2*%
%TO.N,+3V3*%
X51250000Y-104475000D03*
%TO.P,C15,1*%
%TO.N,GND*%
X51250000Y-106025000D03*
%TD*%
D15*
%TO.P,C14,1*%
%TO.N,GND*%
X70275000Y-117500000D03*
%TO.P,C14,2*%
%TO.N,VDD*%
X68725000Y-117500000D03*
%TD*%
D16*
%TO.P,C12,2*%
%TO.N,GND*%
X80775000Y-123750000D03*
%TO.P,C12,1*%
%TO.N,Net-(IC1-VCC)*%
X79225000Y-123750000D03*
%TD*%
D15*
%TO.P,C11,2*%
%TO.N,+3V3*%
X64975000Y-102750000D03*
%TO.P,C11,1*%
%TO.N,GND*%
X66525000Y-102750000D03*
%TD*%
%TO.P,C10,2*%
%TO.N,GND*%
X51200000Y-114750000D03*
%TO.P,C10,1*%
%TO.N,/ADC_C*%
X52750000Y-114750000D03*
%TD*%
D17*
%TO.P,C9,2*%
%TO.N,GND*%
X83250000Y-122025000D03*
%TO.P,C9,1*%
%TO.N,VDC*%
X83250000Y-120475000D03*
%TD*%
%TO.P,C8,2*%
%TO.N,GND*%
X52750000Y-112350000D03*
%TO.P,C8,1*%
%TO.N,/ADC_B*%
X52750000Y-110800000D03*
%TD*%
D15*
%TO.P,C7,2*%
%TO.N,GND*%
X51150000Y-102500000D03*
%TO.P,C7,1*%
%TO.N,/ADC_A*%
X52700000Y-102500000D03*
%TD*%
D17*
%TO.P,C5,2*%
%TO.N,/PHASE_C*%
X85750000Y-114275000D03*
%TO.P,C5,1*%
%TO.N,Net-(D3-K)*%
X85750000Y-112725000D03*
%TD*%
D15*
%TO.P,C4,2*%
%TO.N,GND*%
X83225000Y-123750000D03*
%TO.P,C4,1*%
%TO.N,/ADC_VDC*%
X84775000Y-123750000D03*
%TD*%
D17*
%TO.P,C3,1*%
%TO.N,Net-(D2-K)*%
X85750000Y-106225000D03*
%TO.P,C3,2*%
%TO.N,/PHASE_B*%
X85750000Y-107775000D03*
%TD*%
%TO.P,C2,2*%
%TO.N,/PHASE_A*%
X85750000Y-101525000D03*
%TO.P,C2,1*%
%TO.N,Net-(D1-K)*%
X85750000Y-99975000D03*
%TD*%
D14*
%TO.P,C1,2*%
%TO.N,+3V3*%
X57500000Y-116475000D03*
%TO.P,C1,1*%
%TO.N,GND*%
X57500000Y-118025000D03*
%TD*%
D18*
%TO.P,U4,1,VCC*%
%TO.N,VDD*%
X78575000Y-112790000D03*
%TO.P,U4,2,HIN*%
%TO.N,/TIM1_CH1*%
X78575000Y-114060000D03*
%TO.P,U4,3,LIN*%
%TO.N,/TIM1_CH1N*%
X78575000Y-115330000D03*
%TO.P,U4,4,COM*%
%TO.N,GND*%
X78575000Y-116600000D03*
%TO.P,U4,5,LO*%
%TO.N,Net-(U4-LO)*%
X83525000Y-116600000D03*
%TO.P,U4,6,VS*%
%TO.N,/PHASE_C*%
X83525000Y-115330000D03*
%TO.P,U4,7,HO*%
%TO.N,Net-(U4-HO)*%
X83525000Y-114060000D03*
%TO.P,U4,8,VB*%
%TO.N,Net-(D3-K)*%
X83525000Y-112790000D03*
%TD*%
%TO.P,U3,1,VCC*%
%TO.N,VDD*%
X78575000Y-106210000D03*
%TO.P,U3,2,HIN*%
%TO.N,/TIM1_CH2*%
X78575000Y-107480000D03*
%TO.P,U3,3,LIN*%
%TO.N,/TIM1_CH2N*%
X78575000Y-108750000D03*
%TO.P,U3,4,COM*%
%TO.N,GND*%
X78575000Y-110020000D03*
%TO.P,U3,5,LO*%
%TO.N,Net-(U3-LO)*%
X83525000Y-110020000D03*
%TO.P,U3,6,VS*%
%TO.N,/PHASE_B*%
X83525000Y-108750000D03*
%TO.P,U3,7,HO*%
%TO.N,Net-(U3-HO)*%
X83525000Y-107480000D03*
%TO.P,U3,8,VB*%
%TO.N,Net-(D2-K)*%
X83525000Y-106210000D03*
%TD*%
%TO.P,U2,1,VCC*%
%TO.N,VDD*%
X78575000Y-99630000D03*
%TO.P,U2,2,HIN*%
%TO.N,/TIM1_CH3*%
X78575000Y-100900000D03*
%TO.P,U2,3,LIN*%
%TO.N,/TIM1_CH3N*%
X78575000Y-102170000D03*
%TO.P,U2,4,COM*%
%TO.N,GND*%
X78575000Y-103440000D03*
%TO.P,U2,5,LO*%
%TO.N,Net-(U2-LO)*%
X83525000Y-103440000D03*
%TO.P,U2,6,VS*%
%TO.N,/PHASE_A*%
X83525000Y-102170000D03*
%TO.P,U2,7,HO*%
%TO.N,Net-(U2-HO)*%
X83525000Y-100900000D03*
%TO.P,U2,8,VB*%
%TO.N,Net-(D1-K)*%
X83525000Y-99630000D03*
%TD*%
D19*
%TO.P,U1,3,VI*%
%TO.N,VDD*%
X65900000Y-115200000D03*
D20*
%TO.P,U1,2,VO*%
%TO.N,+3V3*%
X59600000Y-117500000D03*
D19*
X65900000Y-117500000D03*
%TO.P,U1,1,GND*%
%TO.N,GND*%
X65900000Y-119800000D03*
%TD*%
D21*
%TO.P,R28,2*%
%TO.N,+3V3*%
X52750000Y-104425000D03*
%TO.P,R28,1*%
%TO.N,/NRST*%
X52750000Y-106075000D03*
%TD*%
D22*
%TO.P,R27,2*%
%TO.N,/ADC_CENTER*%
X51150000Y-116250000D03*
%TO.P,R27,1*%
%TO.N,/ADC_C*%
X52800000Y-116250000D03*
%TD*%
D23*
%TO.P,R26,2*%
%TO.N,GND*%
X55800000Y-114750000D03*
%TO.P,R26,1*%
%TO.N,/ADC_C*%
X54150000Y-114750000D03*
%TD*%
D22*
%TO.P,R25,2*%
%TO.N,/ADC_C*%
X54125000Y-116250000D03*
%TO.P,R25,1*%
%TO.N,/PHASE_C*%
X55775000Y-116250000D03*
%TD*%
D21*
%TO.P,R24,2*%
%TO.N,/ADC_CENTER*%
X52750000Y-107400000D03*
%TO.P,R24,1*%
%TO.N,/ADC_B*%
X52750000Y-109050000D03*
%TD*%
%TO.P,R23,2*%
%TO.N,GND*%
X51250000Y-107400000D03*
%TO.P,R23,1*%
%TO.N,/ADC_B*%
X51250000Y-109050000D03*
%TD*%
%TO.P,R22,2*%
%TO.N,/ADC_B*%
X51250000Y-110750000D03*
%TO.P,R22,1*%
%TO.N,/PHASE_B*%
X51250000Y-112400000D03*
%TD*%
D22*
%TO.P,R21,2*%
%TO.N,/ADC_CENTER*%
X51100000Y-101000000D03*
%TO.P,R21,1*%
%TO.N,/ADC_A*%
X52750000Y-101000000D03*
%TD*%
D23*
%TO.P,R20,2*%
%TO.N,GND*%
X55900000Y-102500000D03*
%TO.P,R20,1*%
%TO.N,/ADC_A*%
X54250000Y-102500000D03*
%TD*%
D22*
%TO.P,R19,2*%
%TO.N,/ADC_A*%
X54250000Y-101000000D03*
%TO.P,R19,1*%
%TO.N,/PHASE_A*%
X55900000Y-101000000D03*
%TD*%
D21*
%TO.P,R17,2*%
%TO.N,VDC*%
X86750000Y-120425000D03*
%TO.P,R17,1*%
%TO.N,/ADC_VDC*%
X86750000Y-122075000D03*
%TD*%
D24*
%TO.P,R16,2*%
%TO.N,Net-(IC1-EN)*%
X85000000Y-122075000D03*
%TO.P,R16,1*%
%TO.N,VDC*%
X85000000Y-120425000D03*
%TD*%
D23*
%TO.P,R15,2*%
%TO.N,GND*%
X83075000Y-119000000D03*
%TO.P,R15,1*%
%TO.N,Net-(IC1-AAM)*%
X81425000Y-119000000D03*
%TD*%
D21*
%TO.P,R14,2*%
%TO.N,Net-(R12-Pad2)*%
X81500000Y-120425000D03*
%TO.P,R14,1*%
%TO.N,/FB*%
X81500000Y-122075000D03*
%TD*%
D23*
%TO.P,R13,1*%
%TO.N,Net-(R12-Pad2)*%
X74675000Y-117500000D03*
%TO.P,R13,2*%
%TO.N,GND*%
X76325000Y-117500000D03*
%TD*%
%TO.P,R12,2*%
%TO.N,Net-(R12-Pad2)*%
X73325000Y-117500000D03*
%TO.P,R12,1*%
%TO.N,VDD*%
X71675000Y-117500000D03*
%TD*%
D22*
%TO.P,R10,2*%
%TO.N,Net-(D4-A)*%
X66425000Y-98000000D03*
%TO.P,R10,1*%
%TO.N,+3V3*%
X68075000Y-98000000D03*
%TD*%
D23*
%TO.P,R9,2*%
%TO.N,GND*%
X88075000Y-123750000D03*
%TO.P,R9,1*%
%TO.N,/ADC_VDC*%
X86425000Y-123750000D03*
%TD*%
%TO.P,R6,2*%
%TO.N,Net-(Q10-G)*%
X87575000Y-118000000D03*
%TO.P,R6,1*%
%TO.N,Net-(U4-LO)*%
X85925000Y-118000000D03*
%TD*%
%TO.P,R4,2*%
%TO.N,Net-(Q8-G)*%
X87325000Y-110750000D03*
%TO.P,R4,1*%
%TO.N,Net-(U3-LO)*%
X85675000Y-110750000D03*
%TD*%
%TO.P,R2,2*%
%TO.N,Net-(Q2-G)*%
X87400000Y-103500000D03*
%TO.P,R2,1*%
%TO.N,Net-(U2-LO)*%
X85750000Y-103500000D03*
%TD*%
D25*
%TO.P,L1,2,2*%
%TO.N,VDD*%
X69500000Y-121500000D03*
%TO.P,L1,1,1*%
%TO.N,Net-(IC1-SW)*%
X74500000Y-121500000D03*
%TD*%
D26*
%TO.P,J3,1,Pin_1*%
%TO.N,unconnected-(J3-Pin_1-Pad1)*%
X51900000Y-123000000D03*
D27*
%TO.P,J3,2,Pin_2*%
%TO.N,/MCU_TX*%
X54440000Y-123000000D03*
%TO.P,J3,3,Pin_3*%
%TO.N,/MCU_RX*%
X56980000Y-123000000D03*
%TO.P,J3,4,Pin_4*%
%TO.N,unconnected-(J3-Pin_4-Pad4)*%
X59520000Y-123000000D03*
%TO.P,J3,5,Pin_5*%
%TO.N,GND*%
X62060000Y-123000000D03*
%TO.P,J3,6,Pin_6*%
%TO.N,unconnected-(J3-Pin_6-Pad6)*%
X64600000Y-123000000D03*
%TD*%
D28*
%TO.P,J1,1,Pin_1*%
%TO.N,+3V3*%
X60500000Y-98500000D03*
D29*
%TO.P,J1,2,Pin_2*%
%TO.N,/SWCLK*%
X58500000Y-98500000D03*
%TO.P,J1,3,Pin_3*%
%TO.N,GND*%
X56500000Y-98500000D03*
%TO.P,J1,4,Pin_4*%
%TO.N,/SWDIO*%
X54500000Y-98500000D03*
%TO.P,J1,5,Pin_5*%
%TO.N,/NRST*%
X52500000Y-98500000D03*
%TD*%
D30*
%TO.P,D4,2,A*%
%TO.N,Net-(D4-A)*%
X64787500Y-98000000D03*
%TO.P,D4,1,K*%
%TO.N,/LED*%
X63212500Y-98000000D03*
%TD*%
D31*
%TO.P,U5,1,VBAT*%
%TO.N,+3V3*%
X56087500Y-104500000D03*
%TO.P,U5,2,PC13*%
%TO.N,unconnected-(U5-PC13-Pad2)*%
X56087500Y-105000000D03*
%TO.P,U5,3,PC14*%
%TO.N,unconnected-(U5-PC14-Pad3)*%
X56087500Y-105500000D03*
%TO.P,U5,4,PC15*%
%TO.N,unconnected-(U5-PC15-Pad4)*%
X56087500Y-106000000D03*
%TO.P,U5,5,PH0*%
%TO.N,unconnected-(U5-PH0-Pad5)*%
X56087500Y-106500000D03*
%TO.P,U5,6,PH1*%
%TO.N,unconnected-(U5-PH1-Pad6)*%
X56087500Y-107000000D03*
%TO.P,U5,7,NRST*%
%TO.N,/NRST*%
X56087500Y-107500000D03*
%TO.P,U5,8,VSSA*%
%TO.N,GND*%
X56087500Y-108000000D03*
%TO.P,U5,9,VDDA*%
%TO.N,+3V3*%
X56087500Y-108500000D03*
%TO.P,U5,10,PA0*%
%TO.N,/ADC_A*%
X56087500Y-109000000D03*
%TO.P,U5,11,PA1*%
%TO.N,/ADC_B*%
X56087500Y-109500000D03*
%TO.P,U5,12,PA2*%
%TO.N,/ADC_C*%
X56087500Y-110000000D03*
D32*
%TO.P,U5,13,PA3*%
%TO.N,/ADC_CENTER*%
X57500000Y-111412500D03*
%TO.P,U5,14,PA4*%
%TO.N,/ADC_SPD*%
X58000000Y-111412500D03*
%TO.P,U5,15,PA5*%
%TO.N,/ADC_VDC*%
X58500000Y-111412500D03*
%TO.P,U5,16,PA6*%
%TO.N,unconnected-(U5-PA6-Pad16)*%
X59000000Y-111412500D03*
%TO.P,U5,17,PA7*%
%TO.N,/TIM1_CH1N*%
X59500000Y-111412500D03*
%TO.P,U5,18,PB0*%
%TO.N,/TIM1_CH2N*%
X60000000Y-111412500D03*
%TO.P,U5,19,PB1*%
%TO.N,/TIM1_CH3N*%
X60500000Y-111412500D03*
%TO.P,U5,20,PB2*%
%TO.N,unconnected-(U5-PB2-Pad20)*%
X61000000Y-111412500D03*
%TO.P,U5,21,PB10*%
%TO.N,unconnected-(U5-PB10-Pad21)*%
X61500000Y-111412500D03*
%TO.P,U5,22,PB11*%
%TO.N,unconnected-(U5-PB11-Pad22)*%
X62000000Y-111412500D03*
%TO.P,U5,23,VSS*%
%TO.N,GND*%
X62500000Y-111412500D03*
%TO.P,U5,24,VDD*%
%TO.N,+3V3*%
X63000000Y-111412500D03*
D31*
%TO.P,U5,25,PB12*%
%TO.N,Net-(U5-PB12)*%
X64412500Y-110000000D03*
%TO.P,U5,26,PB13*%
%TO.N,unconnected-(U5-PB13-Pad26)*%
X64412500Y-109500000D03*
%TO.P,U5,27,PB14*%
%TO.N,Net-(U5-PB14)*%
X64412500Y-109000000D03*
%TO.P,U5,28,PB15*%
%TO.N,unconnected-(U5-PB15-Pad28)*%
X64412500Y-108500000D03*
%TO.P,U5,29,PA8*%
%TO.N,/TIM1_CH1*%
X64412500Y-108000000D03*
%TO.P,U5,30,PA9*%
%TO.N,/TIM1_CH2*%
X64412500Y-107500000D03*
%TO.P,U5,31,PA10*%
%TO.N,/TIM1_CH3*%
X64412500Y-107000000D03*
%TO.P,U5,32,PA11*%
%TO.N,/LED*%
X64412500Y-106500000D03*
%TO.P,U5,33,PA12*%
%TO.N,unconnected-(U5-PA12-Pad33)*%
X64412500Y-106000000D03*
%TO.P,U5,34,PA13*%
%TO.N,/SWDIO*%
X64412500Y-105500000D03*
%TO.P,U5,35,VSS*%
%TO.N,GND*%
X64412500Y-105000000D03*
%TO.P,U5,36,VDD*%
%TO.N,+3V3*%
X64412500Y-104500000D03*
D32*
%TO.P,U5,37,PA14*%
%TO.N,/SWCLK*%
X63000000Y-103087500D03*
%TO.P,U5,38,PA15*%
%TO.N,unconnected-(U5-PA15-Pad38)*%
X62500000Y-103087500D03*
%TO.P,U5,39,PB3*%
%TO.N,unconnected-(U5-PB3-Pad39)*%
X62000000Y-103087500D03*
%TO.P,U5,40,PB4*%
%TO.N,unconnected-(U5-PB4-Pad40)*%
X61500000Y-103087500D03*
%TO.P,U5,41,PB5*%
%TO.N,unconnected-(U5-PB5-Pad41)*%
X61000000Y-103087500D03*
%TO.P,U5,42,PB6*%
%TO.N,/MCU_TX*%
X60500000Y-103087500D03*
%TO.P,U5,43,PB7*%
%TO.N,/MCU_RX*%
X60000000Y-103087500D03*
%TO.P,U5,44,PH3*%
%TO.N,unconnected-(U5-PH3-Pad44)*%
X59500000Y-103087500D03*
%TO.P,U5,45,PB8*%
%TO.N,unconnected-(U5-PB8-Pad45)*%
X59000000Y-103087500D03*
%TO.P,U5,46,PB9*%
%TO.N,unconnected-(U5-PB9-Pad46)*%
X58500000Y-103087500D03*
%TO.P,U5,47,VSS*%
%TO.N,GND*%
X58000000Y-103087500D03*
%TO.P,U5,48,VDD*%
%TO.N,+3V3*%
X57500000Y-103087500D03*
%TD*%
D33*
%TO.P,Q10,5,D*%
%TO.N,/PHASE_C*%
X93500000Y-116000000D03*
D34*
%TO.P,Q10,4,G*%
%TO.N,Net-(Q10-G)*%
X89550000Y-117905000D03*
%TO.P,Q10,3,S*%
%TO.N,GND*%
X89550000Y-116635000D03*
%TO.P,Q10,2,S*%
X89550000Y-115365000D03*
%TO.P,Q10,1,S*%
X89550000Y-114095000D03*
%TD*%
D33*
%TO.P,Q8,5,D*%
%TO.N,/PHASE_B*%
X93550000Y-109600000D03*
D34*
%TO.P,Q8,4,G*%
%TO.N,Net-(Q8-G)*%
X89600000Y-111505000D03*
%TO.P,Q8,3,S*%
%TO.N,GND*%
X89600000Y-110235000D03*
%TO.P,Q8,2,S*%
X89600000Y-108965000D03*
%TO.P,Q8,1,S*%
X89600000Y-107695000D03*
%TD*%
D33*
%TO.P,Q2,5,D*%
%TO.N,/PHASE_A*%
X93550000Y-103350000D03*
D34*
%TO.P,Q2,4,G*%
%TO.N,Net-(Q2-G)*%
X89600000Y-105255000D03*
%TO.P,Q2,3,S*%
%TO.N,GND*%
X89600000Y-103985000D03*
%TO.P,Q2,2,S*%
X89600000Y-102715000D03*
%TO.P,Q2,1,S*%
X89600000Y-101445000D03*
%TD*%
D35*
%TO.N,GND*%
X85250000Y-116250000D03*
X85250000Y-115750000D03*
X85315294Y-109053049D03*
X85250000Y-109750000D03*
X89600000Y-100500000D03*
X89600000Y-100000000D03*
X89500000Y-99250000D03*
X83750000Y-121750000D03*
X88000000Y-122000000D03*
%TO.N,Net-(C17-Pad2)*%
X70000000Y-108250000D03*
%TO.N,Net-(R18-Pad2)*%
X70000000Y-104000000D03*
%TO.N,GND*%
X51500000Y-114000000D03*
%TO.N,/ADC_SPD*%
X61000000Y-108250000D03*
%TO.N,/PHASE_B*%
X54750000Y-113500000D03*
X53000000Y-113500000D03*
X57250000Y-113500000D03*
%TO.N,GND*%
X69250000Y-113750000D03*
X70250000Y-116500000D03*
%TO.N,/PHASE_B*%
X82000000Y-108750000D03*
%TO.N,+3V3*%
X64000000Y-112000000D03*
X60250000Y-115500000D03*
%TO.N,/PHASE_C*%
X82000000Y-115250000D03*
%TO.N,VDD*%
X71675000Y-116750000D03*
%TO.N,GND*%
X77750000Y-118000000D03*
X77000000Y-110000000D03*
X76250000Y-103750000D03*
%TO.N,VDC*%
X90000000Y-120500000D03*
%TO.N,+3V3*%
X57500000Y-106000000D03*
X61500000Y-106000000D03*
%TO.N,GND*%
X54000000Y-108000000D03*
X56000000Y-103000000D03*
X65000000Y-100000000D03*
X58000000Y-101750000D03*
%TO.N,VDC*%
X84000000Y-120500000D03*
X80000000Y-118000000D03*
%TO.N,/PHASE_C*%
X94250000Y-113995000D03*
X93500000Y-113995000D03*
X93500000Y-115265000D03*
X93500000Y-116000000D03*
X94250000Y-115265000D03*
X94250000Y-116000000D03*
X95250000Y-114000000D03*
X95250000Y-115250000D03*
X95250000Y-116000000D03*
%TO.N,/PHASE_B*%
X93500000Y-107750000D03*
X94500000Y-107750000D03*
X93500000Y-109020000D03*
X94500000Y-109020000D03*
X93500000Y-110290000D03*
X94500000Y-110290000D03*
X95500000Y-110250000D03*
X95500000Y-109000000D03*
X95500000Y-107750000D03*
%TO.N,/PHASE_A*%
X95250000Y-101500000D03*
X94250000Y-101500000D03*
X93750000Y-103750000D03*
X94500000Y-103750000D03*
X95250000Y-103750000D03*
X93550000Y-101500000D03*
X93500000Y-102770000D03*
X94250000Y-102770000D03*
X95250000Y-102750000D03*
%TO.N,Net-(D1-K)*%
X82250000Y-99250000D03*
%TO.N,VDD*%
X77500000Y-98250000D03*
%TO.N,Net-(D2-K)*%
X82000000Y-105500000D03*
%TO.N,VDD*%
X80500000Y-105250000D03*
X80375000Y-112125000D03*
%TO.N,Net-(D3-K)*%
X82000000Y-112500000D03*
%TO.N,/MCU_RX*%
X59500000Y-107500000D03*
%TO.N,/MCU_TX*%
X58850000Y-109125000D03*
%TO.N,/ADC_A*%
X54250000Y-101750000D03*
%TO.N,/ADC_CENTER*%
X55750000Y-111250000D03*
%TO.N,Net-(U4-HO)*%
X96500000Y-119250000D03*
%TO.N,Net-(U3-HO)*%
X96750000Y-112500000D03*
%TO.N,Net-(U2-HO)*%
X96750000Y-106000000D03*
%TO.N,/TIM1_CH3N*%
X69000000Y-107000000D03*
%TO.N,/TIM1_CH2N*%
X67100000Y-111750000D03*
%TO.N,/TIM1_CH3N*%
X67069186Y-110861574D03*
%TO.N,/TIM1_CH2N*%
X68700000Y-111050000D03*
%TO.N,/ADC_VDC*%
X85500000Y-123750000D03*
X59250000Y-113750000D03*
%TO.N,VDC*%
X94250000Y-122500000D03*
X95000000Y-122500000D03*
%TO.N,Net-(IC1-EN)*%
X85250000Y-122500000D03*
X78250000Y-123500000D03*
%TO.N,GND*%
X82250000Y-123500000D03*
%TO.N,Net-(R12-Pad2)*%
X74000000Y-117500000D03*
X80750000Y-120750000D03*
%TO.N,Net-(IC1-SW)*%
X74000000Y-121500000D03*
%TO.N,Net-(IC1-BST)*%
X77000000Y-121600000D03*
%TO.N,/ADC_A*%
X54625000Y-108875000D03*
%TO.N,GND*%
X62000000Y-109250000D03*
%TO.N,/PHASE_C*%
X62500000Y-114500000D03*
%TO.N,/PHASE_A*%
X75250000Y-97500000D03*
%TO.N,/NRST*%
X53750000Y-105825000D03*
%TO.N,/PHASE_A*%
X57000000Y-101000000D03*
%TO.N,GND*%
X52750000Y-112350000D03*
%TO.N,/ADC_CENTER*%
X51150000Y-117500000D03*
X52750000Y-107400000D03*
X51100000Y-101000000D03*
%TO.N,/SWDIO*%
X61750000Y-101750000D03*
X62250000Y-105500000D03*
%TD*%
D36*
%TO.N,Net-(U5-PB12)*%
X64412500Y-110662500D02*
X65250000Y-111500000D01*
X64412500Y-110000000D02*
X64412500Y-110662500D01*
%TO.N,/TIM1_CH3N*%
X65180760Y-112750000D02*
X60996880Y-112750000D01*
X60500000Y-112253120D02*
X60500000Y-111412500D01*
X67069186Y-110861574D02*
X65180760Y-112750000D01*
X60996880Y-112750000D02*
X60500000Y-112253120D01*
%TO.N,/TIM1_CH1*%
X69500000Y-115250000D02*
X75750000Y-115250000D01*
X68000000Y-113750000D02*
X69500000Y-115250000D01*
X68000000Y-108707106D02*
X68000000Y-113750000D01*
X67292894Y-108000000D02*
X68000000Y-108707106D01*
X64412500Y-108000000D02*
X67292894Y-108000000D01*
X75750000Y-115250000D02*
X76940000Y-114060000D01*
X76940000Y-114060000D02*
X78575000Y-114060000D01*
%TO.N,/TIM1_CH2*%
X67500000Y-107500000D02*
X64412500Y-107500000D01*
X69400000Y-110650000D02*
X68500000Y-109750000D01*
X74850000Y-110650000D02*
X69400000Y-110650000D01*
X68500000Y-108500000D02*
X67500000Y-107500000D01*
X76770000Y-107480000D02*
X75750000Y-108500000D01*
X68500000Y-109750000D02*
X68500000Y-108500000D01*
X78575000Y-107480000D02*
X76770000Y-107480000D01*
X75750000Y-108500000D02*
X75750000Y-109750000D01*
X75750000Y-109750000D02*
X74850000Y-110650000D01*
%TO.N,/TIM1_CH2N*%
X76750000Y-108750000D02*
X78575000Y-108750000D01*
X76250000Y-109250000D02*
X76750000Y-108750000D01*
X76250000Y-110000000D02*
X76250000Y-109250000D01*
X68800000Y-111150000D02*
X75100000Y-111150000D01*
X75100000Y-111150000D02*
X76250000Y-110000000D01*
X68700000Y-111050000D02*
X68800000Y-111150000D01*
X60496880Y-113250000D02*
X60000000Y-112753120D01*
X65600000Y-113250000D02*
X60496880Y-113250000D01*
X67100000Y-111750000D02*
X65600000Y-113250000D01*
X60000000Y-112753120D02*
X60000000Y-111412500D01*
%TO.N,Net-(U5-PB14)*%
X64412500Y-109000000D02*
X66500000Y-109000000D01*
%TO.N,/TIM1_CH3N*%
X76150000Y-101400000D02*
X76920000Y-102170000D01*
X76920000Y-102170000D02*
X78575000Y-102170000D01*
X69850000Y-101400000D02*
X76150000Y-101400000D01*
X69000000Y-102250000D02*
X69850000Y-101400000D01*
X69000000Y-107000000D02*
X69000000Y-102250000D01*
%TO.N,/PHASE_B*%
X84975000Y-107775000D02*
X84000000Y-108750000D01*
X85750000Y-107775000D02*
X84975000Y-107775000D01*
X84000000Y-108750000D02*
X83525000Y-108750000D01*
%TO.N,Net-(U3-HO)*%
X82020000Y-107480000D02*
X83525000Y-107480000D01*
X81250000Y-110500000D02*
X81250000Y-108250000D01*
X86750000Y-111750000D02*
X82500000Y-111750000D01*
X81250000Y-108250000D02*
X82020000Y-107480000D01*
X87500000Y-112500000D02*
X86750000Y-111750000D01*
X96750000Y-112500000D02*
X87500000Y-112500000D01*
X82500000Y-111750000D02*
X81250000Y-110500000D01*
%TO.N,Net-(U3-LO)*%
X84255000Y-110750000D02*
X83525000Y-110020000D01*
X85675000Y-110750000D02*
X84255000Y-110750000D01*
D37*
%TO.N,GND*%
X85615000Y-116250000D02*
X86500000Y-115365000D01*
X85250000Y-116250000D02*
X85615000Y-116250000D01*
X86500000Y-115365000D02*
X85885000Y-115365000D01*
X89550000Y-115365000D02*
X86500000Y-115365000D01*
X85885000Y-115365000D02*
X85250000Y-116000000D01*
X89550000Y-116635000D02*
X89550000Y-114095000D01*
D36*
%TO.N,Net-(D3-K)*%
X85685000Y-112790000D02*
X85750000Y-112725000D01*
X83525000Y-112790000D02*
X85685000Y-112790000D01*
%TO.N,/PHASE_C*%
X83525000Y-115330000D02*
X84695000Y-115330000D01*
X93255000Y-113000000D02*
X94250000Y-113995000D01*
X84695000Y-115330000D02*
X85750000Y-114275000D01*
X87500000Y-113000000D02*
X93255000Y-113000000D01*
X86225000Y-114275000D02*
X87500000Y-113000000D01*
X85750000Y-114275000D02*
X86225000Y-114275000D01*
%TO.N,Net-(U4-LO)*%
X84525000Y-116600000D02*
X85925000Y-118000000D01*
X83525000Y-116600000D02*
X84525000Y-116600000D01*
%TO.N,Net-(Q10-G)*%
X87810000Y-118000000D02*
X87905000Y-117905000D01*
X87905000Y-117905000D02*
X89550000Y-117905000D01*
X87575000Y-118000000D02*
X87810000Y-118000000D01*
D37*
%TO.N,GND*%
X85500000Y-109500000D02*
X85292830Y-109292830D01*
X86500000Y-109250000D02*
X85750000Y-109250000D01*
X86785000Y-108965000D02*
X86500000Y-109250000D01*
X85750000Y-109250000D02*
X85500000Y-109500000D01*
X89600000Y-108965000D02*
X86785000Y-108965000D01*
X89600000Y-110235000D02*
X89600000Y-107695000D01*
D36*
%TO.N,/PHASE_B*%
X85750000Y-107775000D02*
X86475000Y-107775000D01*
%TO.N,Net-(D2-K)*%
X83525000Y-106210000D02*
X85735000Y-106210000D01*
%TO.N,/PHASE_B*%
X86475000Y-107775000D02*
X87500000Y-106750000D01*
%TO.N,Net-(D2-K)*%
X85735000Y-106210000D02*
X85750000Y-106225000D01*
%TO.N,/PHASE_B*%
X92500000Y-106750000D02*
X93500000Y-107750000D01*
X87500000Y-106750000D02*
X92500000Y-106750000D01*
%TO.N,Net-(Q8-G)*%
X87325000Y-110825000D02*
X88005000Y-111505000D01*
X87325000Y-110750000D02*
X87325000Y-110825000D01*
X88005000Y-111505000D02*
X89600000Y-111505000D01*
D37*
%TO.N,GND*%
X89600000Y-100500000D02*
X89600000Y-100000000D01*
X89600000Y-100000000D02*
X89600000Y-99350000D01*
X89600000Y-99350000D02*
X89500000Y-99250000D01*
X89600000Y-103985000D02*
X89600000Y-100500000D01*
X88075000Y-122075000D02*
X88000000Y-122000000D01*
X88075000Y-123750000D02*
X88075000Y-122075000D01*
D36*
%TO.N,Net-(C17-Pad2)*%
X70500000Y-108750000D02*
X70000000Y-108250000D01*
X72000000Y-108750000D02*
X70500000Y-108750000D01*
%TO.N,Net-(R18-Pad2)*%
X70500000Y-104500000D02*
X70000000Y-104000000D01*
X72000000Y-104500000D02*
X70500000Y-104500000D01*
%TO.N,/PHASE_B*%
X52250000Y-113500000D02*
X53000000Y-113500000D01*
X51250000Y-112500000D02*
X52250000Y-113500000D01*
X51250000Y-112400000D02*
X51250000Y-112500000D01*
%TO.N,GND*%
X51200000Y-114300000D02*
X51500000Y-114000000D01*
X51200000Y-114750000D02*
X51200000Y-114300000D01*
%TO.N,/ADC_SPD*%
X59475000Y-109775000D02*
X61000000Y-108250000D01*
X58725000Y-109775000D02*
X59475000Y-109775000D01*
X58000000Y-110500000D02*
X58725000Y-109775000D01*
X58000000Y-111412500D02*
X58000000Y-110500000D01*
%TO.N,/MCU_TX*%
X60500000Y-107475000D02*
X60500000Y-103087500D01*
X58850000Y-109125000D02*
X60500000Y-107475000D01*
%TO.N,/MCU_RX*%
X60000000Y-106500000D02*
X60000000Y-103087500D01*
X59500000Y-107000000D02*
X60000000Y-106500000D01*
X59500000Y-107500000D02*
X59500000Y-107000000D01*
%TO.N,/ADC_C*%
X55250000Y-110000000D02*
X56087500Y-110000000D01*
X54000000Y-111250000D02*
X55250000Y-110000000D01*
X54000000Y-114600000D02*
X54000000Y-111250000D01*
X54150000Y-114750000D02*
X54000000Y-114600000D01*
%TO.N,/PHASE_B*%
X57250000Y-113500000D02*
X54750000Y-113500000D01*
X83525000Y-108750000D02*
X82000000Y-108750000D01*
%TO.N,+3V3*%
X63412500Y-111412500D02*
X63000000Y-111412500D01*
X64000000Y-112000000D02*
X63412500Y-111412500D01*
D38*
X59600000Y-116150000D02*
X60250000Y-115500000D01*
X59600000Y-117500000D02*
X59600000Y-116150000D01*
D36*
%TO.N,/PHASE_C*%
X82080000Y-115330000D02*
X82000000Y-115250000D01*
X83525000Y-115330000D02*
X82080000Y-115330000D01*
%TO.N,Net-(U4-HO)*%
X81000000Y-114750000D02*
X81690000Y-114060000D01*
X81000000Y-117250000D02*
X81000000Y-114750000D01*
X81690000Y-114060000D02*
X83525000Y-114060000D01*
X81500000Y-117750000D02*
X81000000Y-117250000D01*
X84250000Y-117750000D02*
X81500000Y-117750000D01*
X85750000Y-119250000D02*
X84250000Y-117750000D01*
X96500000Y-119250000D02*
X85750000Y-119250000D01*
D39*
%TO.N,VDD*%
X71675000Y-117500000D02*
X71675000Y-116750000D01*
X71250000Y-119000000D02*
X69250000Y-119000000D01*
X71675000Y-118575000D02*
X71250000Y-119000000D01*
X71675000Y-116750000D02*
X71675000Y-118575000D01*
D36*
%TO.N,/TIM1_CH1N*%
X59500000Y-113000000D02*
X59500000Y-111412500D01*
X60250000Y-113750000D02*
X59500000Y-113000000D01*
X75957106Y-115750000D02*
X69146447Y-115750000D01*
X76377106Y-115330000D02*
X75957106Y-115750000D01*
X67146447Y-113750000D02*
X60250000Y-113750000D01*
X78575000Y-115330000D02*
X76377106Y-115330000D01*
X69146447Y-115750000D02*
X67146447Y-113750000D01*
D39*
%TO.N,VDC*%
X90000000Y-120500000D02*
X92000000Y-122500000D01*
D36*
%TO.N,+3V3*%
X56928120Y-108500000D02*
X56087500Y-108500000D01*
X57500000Y-106000000D02*
X57500000Y-107928120D01*
X57500000Y-107928120D02*
X56928120Y-108500000D01*
X57500000Y-106000000D02*
X57500000Y-105000000D01*
X63000000Y-109000000D02*
X63000000Y-111412500D01*
X61500000Y-106000000D02*
X61500000Y-107500000D01*
X61500000Y-107500000D02*
X63000000Y-109000000D01*
X62000000Y-104500000D02*
X64412500Y-104500000D01*
X61500000Y-105000000D02*
X62000000Y-104500000D01*
X61500000Y-106000000D02*
X61500000Y-105000000D01*
%TO.N,GND*%
X56087500Y-108000000D02*
X54000000Y-108000000D01*
%TO.N,/ADC_A*%
X54750000Y-109000000D02*
X56087500Y-109000000D01*
X54625000Y-108875000D02*
X54750000Y-109000000D01*
%TO.N,GND*%
X55500000Y-103500000D02*
X56000000Y-103000000D01*
X51750000Y-103500000D02*
X55500000Y-103500000D01*
X51150000Y-102500000D02*
X51150000Y-102900000D01*
X51150000Y-102900000D02*
X51750000Y-103500000D01*
%TO.N,+3V3*%
X51300000Y-104425000D02*
X51250000Y-104475000D01*
X52750000Y-104425000D02*
X51300000Y-104425000D01*
%TO.N,/NRST*%
X53000000Y-105825000D02*
X52750000Y-106075000D01*
%TO.N,+3V3*%
X53675000Y-104425000D02*
X52750000Y-104425000D01*
X53750000Y-104500000D02*
X53675000Y-104425000D01*
X56087500Y-104500000D02*
X53750000Y-104500000D01*
%TO.N,/NRST*%
X53750000Y-105825000D02*
X53000000Y-105825000D01*
%TO.N,/ADC_A*%
X54250000Y-102500000D02*
X54250000Y-101750000D01*
%TO.N,+3V3*%
X60500000Y-97750000D02*
X60500000Y-98500000D01*
X61500000Y-96750000D02*
X60500000Y-97750000D01*
X67000000Y-96750000D02*
X61500000Y-96750000D01*
X68075000Y-98000000D02*
X68075000Y-97825000D01*
X68075000Y-97825000D02*
X67000000Y-96750000D01*
%TO.N,GND*%
X58000000Y-103087500D02*
X58000000Y-101750000D01*
D39*
%TO.N,VDC*%
X79500000Y-118000000D02*
X80000000Y-118000000D01*
X79075000Y-118425000D02*
X79500000Y-118000000D01*
D36*
%TO.N,/PHASE_A*%
X90250000Y-97500000D02*
X88000000Y-97500000D01*
X93550000Y-101500000D02*
X93550000Y-100800000D01*
X93550000Y-101500000D02*
X93550000Y-103350000D01*
X93550000Y-100800000D02*
X90250000Y-97500000D01*
X87500000Y-98000000D02*
X88000000Y-97500000D01*
X87500000Y-97500000D02*
X88000000Y-97500000D01*
X87500000Y-98000000D02*
X87000000Y-97500000D01*
X87500000Y-98250000D02*
X87500000Y-98000000D01*
X87000000Y-97500000D02*
X87500000Y-97500000D01*
X75250000Y-97500000D02*
X87000000Y-97500000D01*
X87500000Y-98250000D02*
X87500000Y-97500000D01*
X87500000Y-101000000D02*
X87500000Y-98250000D01*
X86975000Y-101525000D02*
X87500000Y-101000000D01*
X85750000Y-101525000D02*
X86975000Y-101525000D01*
D39*
%TO.N,VDD*%
X77500000Y-98555000D02*
X78575000Y-99630000D01*
X77500000Y-98250000D02*
X77500000Y-98555000D01*
D36*
%TO.N,Net-(D1-K)*%
X82630000Y-99630000D02*
X82250000Y-99250000D01*
X83525000Y-99630000D02*
X82630000Y-99630000D01*
%TO.N,Net-(D2-K)*%
X82815000Y-105500000D02*
X82000000Y-105500000D01*
X83525000Y-106210000D02*
X82815000Y-105500000D01*
D39*
%TO.N,VDD*%
X80500000Y-105250000D02*
X80500000Y-100580001D01*
X80375000Y-112125000D02*
X80500000Y-112000000D01*
D36*
%TO.N,Net-(D3-K)*%
X82290000Y-112790000D02*
X82000000Y-112500000D01*
X83525000Y-112790000D02*
X82290000Y-112790000D01*
%TO.N,/ADC_CENTER*%
X55912500Y-111412500D02*
X57500000Y-111412500D01*
X55750000Y-111250000D02*
X55912500Y-111412500D01*
%TO.N,+3V3*%
X57500000Y-105000000D02*
X57500000Y-104500000D01*
X57000000Y-104500000D02*
X57500000Y-105000000D01*
X57500000Y-104500000D02*
X57500000Y-104000000D01*
X57500000Y-104000000D02*
X57500000Y-103087500D01*
X57000000Y-104500000D02*
X57500000Y-104500000D01*
X57000000Y-104500000D02*
X57500000Y-104000000D01*
X56087500Y-104500000D02*
X57000000Y-104500000D01*
%TO.N,/ADC_CENTER*%
X51150000Y-116250000D02*
X51150000Y-117500000D01*
%TO.N,Net-(U2-HO)*%
X87500000Y-106250000D02*
X96500000Y-106250000D01*
X86000000Y-104750000D02*
X87500000Y-106250000D01*
X81750000Y-104250000D02*
X82250000Y-104750000D01*
X81750000Y-101500000D02*
X81750000Y-104250000D01*
X82350000Y-100900000D02*
X81750000Y-101500000D01*
X82250000Y-104750000D02*
X86000000Y-104750000D01*
X83525000Y-100900000D02*
X82350000Y-100900000D01*
X96500000Y-106250000D02*
X96750000Y-106000000D01*
D39*
%TO.N,VDD*%
X80460000Y-106210000D02*
X80500000Y-106250000D01*
X78575000Y-106210000D02*
X80460000Y-106210000D01*
X80500000Y-112000000D02*
X80500000Y-106250000D01*
X80500000Y-106250000D02*
X80500000Y-105250000D01*
X79549999Y-99630000D02*
X78575000Y-99630000D01*
X80500000Y-100580001D02*
X79549999Y-99630000D01*
X79710000Y-112790000D02*
X80375000Y-112125000D01*
X78575000Y-112790000D02*
X79710000Y-112790000D01*
D36*
%TO.N,Net-(IC1-EN)*%
X78425000Y-123325000D02*
X78425000Y-122050000D01*
X78250000Y-123500000D02*
X78425000Y-123325000D01*
D39*
%TO.N,/ADC_VDC*%
X85500000Y-123750000D02*
X84775000Y-123750000D01*
D36*
X58500000Y-113000000D02*
X59250000Y-113750000D01*
X58500000Y-111412500D02*
X58500000Y-113000000D01*
D39*
%TO.N,VDC*%
X94250000Y-122500000D02*
X95000000Y-122500000D01*
X92000000Y-122500000D02*
X94250000Y-122500000D01*
X89925000Y-120425000D02*
X90000000Y-120500000D01*
X86750000Y-120425000D02*
X89925000Y-120425000D01*
D36*
%TO.N,Net-(IC1-EN)*%
X85000000Y-122250000D02*
X85250000Y-122500000D01*
X85000000Y-122075000D02*
X85000000Y-122250000D01*
%TO.N,Net-(R12-Pad2)*%
X74000000Y-117500000D02*
X73325000Y-117500000D01*
X81075000Y-120425000D02*
X80750000Y-120750000D01*
X81500000Y-120425000D02*
X81075000Y-120425000D01*
D39*
%TO.N,VDC*%
X79075000Y-119450000D02*
X79075000Y-118425000D01*
%TO.N,Net-(IC1-BST)*%
X77450000Y-122050000D02*
X77000000Y-121600000D01*
X77775000Y-122050000D02*
X77450000Y-122050000D01*
%TO.N,VDD*%
X68750000Y-119500000D02*
X68750000Y-119750000D01*
D38*
X68750000Y-119750000D02*
X68750000Y-119000000D01*
D39*
X69250000Y-119000000D02*
X68750000Y-119500000D01*
D38*
X68750000Y-120750000D02*
X68750000Y-119750000D01*
X68750000Y-118500000D02*
X68750000Y-116500000D01*
X68750000Y-119000000D02*
X68750000Y-118500000D01*
D39*
X69250000Y-119000000D02*
X68750000Y-119000000D01*
X69250000Y-119000000D02*
X68750000Y-118500000D01*
%TO.N,Net-(IC1-SW)*%
X75250000Y-120750000D02*
X74500000Y-121500000D01*
X78000000Y-120750000D02*
X75250000Y-120750000D01*
X78425000Y-120325000D02*
X78000000Y-120750000D01*
X78425000Y-119450000D02*
X78425000Y-120325000D01*
D36*
%TO.N,GND*%
X62500000Y-109750000D02*
X62000000Y-109250000D01*
X62500000Y-111412500D02*
X62500000Y-109750000D01*
X66525000Y-104225000D02*
X66525000Y-102750000D01*
X65750000Y-105000000D02*
X66525000Y-104225000D01*
X64412500Y-105000000D02*
X65750000Y-105000000D01*
%TO.N,/PHASE_C*%
X57750000Y-114500000D02*
X62500000Y-114500000D01*
X56000000Y-116250000D02*
X57750000Y-114500000D01*
X55775000Y-116250000D02*
X56000000Y-116250000D01*
%TO.N,/PHASE_A*%
X55900000Y-101000000D02*
X57000000Y-101000000D01*
%TO.N,+3V3*%
X71750000Y-98000000D02*
X72000000Y-98250000D01*
X68075000Y-98000000D02*
X71750000Y-98000000D01*
X62000000Y-100000000D02*
X60500000Y-98500000D01*
X64000000Y-100000000D02*
X62000000Y-100000000D01*
X64975000Y-102750000D02*
X64975000Y-100975000D01*
X64975000Y-100975000D02*
X64000000Y-100000000D01*
X64412500Y-104500000D02*
X64412500Y-103312500D01*
X64412500Y-103312500D02*
X64975000Y-102750000D01*
%TO.N,/LED*%
X67000000Y-106500000D02*
X64412500Y-106500000D01*
X67000000Y-99250000D02*
X68000000Y-100250000D01*
X63750000Y-99250000D02*
X67000000Y-99250000D01*
X63212500Y-98712500D02*
X63750000Y-99250000D01*
X68000000Y-100250000D02*
X68000000Y-105500000D01*
X68000000Y-105500000D02*
X67000000Y-106500000D01*
X63212500Y-98000000D02*
X63212500Y-98712500D01*
%TO.N,/TIM1_CH3*%
X68500000Y-106000000D02*
X68125000Y-106375000D01*
X64412500Y-107000000D02*
X67500000Y-107000000D01*
X67500000Y-107000000D02*
X68125000Y-106375000D01*
%TO.N,/NRST*%
X56087500Y-107500000D02*
X54750000Y-107500000D01*
X54250000Y-107000000D02*
X54250000Y-106250000D01*
X54750000Y-107500000D02*
X54250000Y-107000000D01*
%TO.N,/SWCLK*%
X58500000Y-99750000D02*
X58500000Y-98500000D01*
X59250000Y-100500000D02*
X58500000Y-99750000D01*
X61750000Y-100500000D02*
X59250000Y-100500000D01*
X63000000Y-103087500D02*
X63000000Y-101750000D01*
%TO.N,/SWDIO*%
X64412500Y-105500000D02*
X62250000Y-105500000D01*
%TO.N,/ADC_B*%
X53700000Y-110800000D02*
X52750000Y-110800000D01*
X55000000Y-109500000D02*
X53700000Y-110800000D01*
X56087500Y-109500000D02*
X55000000Y-109500000D01*
%TO.N,/SWCLK*%
X63000000Y-101750000D02*
X61750000Y-100500000D01*
%TO.N,/SWDIO*%
X57750000Y-99750000D02*
X59000000Y-101000000D01*
X59000000Y-101000000D02*
X61000000Y-101000000D01*
X61000000Y-101000000D02*
X61750000Y-101750000D01*
X54750000Y-99750000D02*
X57750000Y-99750000D01*
X54500000Y-99500000D02*
X54750000Y-99750000D01*
X54500000Y-98500000D02*
X54500000Y-99500000D01*
D38*
%TO.N,+3V3*%
X58475000Y-116475000D02*
X57750000Y-116475000D01*
X59500000Y-117500000D02*
X58475000Y-116475000D01*
X59600000Y-117500000D02*
X59500000Y-117500000D01*
%TO.N,VDD*%
X67450000Y-115200000D02*
X65900000Y-115200000D01*
X69500000Y-121500000D02*
X68750000Y-120750000D01*
X68750000Y-116500000D02*
X67450000Y-115200000D01*
%TO.N,+3V3*%
X65900000Y-117500000D02*
X59600000Y-117500000D01*
D36*
%TO.N,/TIM1_CH3*%
X68500000Y-102000000D02*
X68500000Y-106000000D01*
X69600000Y-100900000D02*
X68500000Y-102000000D01*
X78575000Y-100900000D02*
X69600000Y-100900000D01*
%TO.N,/NRST*%
X54250000Y-106250000D02*
X53825000Y-105825000D01*
X53825000Y-105825000D02*
X53750000Y-105825000D01*
%TO.N,Net-(R12-Pad2)*%
X74675000Y-117500000D02*
X74000000Y-117500000D01*
%TO.N,Net-(Q2-G)*%
X88005000Y-105255000D02*
X89600000Y-105255000D01*
X87400000Y-103500000D02*
X87400000Y-104650000D01*
X87400000Y-104650000D02*
X88005000Y-105255000D01*
%TO.N,Net-(U2-LO)*%
X85690000Y-103440000D02*
X85750000Y-103500000D01*
X83525000Y-103440000D02*
X85690000Y-103440000D01*
%TO.N,/PHASE_A*%
X83525000Y-102170000D02*
X85105000Y-102170000D01*
X85105000Y-102170000D02*
X85750000Y-101525000D01*
%TO.N,Net-(D1-K)*%
X84975000Y-99975000D02*
X84630000Y-99630000D01*
X85750000Y-99975000D02*
X84975000Y-99975000D01*
X84630000Y-99630000D02*
X83525000Y-99630000D01*
%TO.N,/FB*%
X79750000Y-122075000D02*
X79725000Y-122050000D01*
X81500000Y-122075000D02*
X79750000Y-122075000D01*
%TO.N,Net-(D4-A)*%
X66425000Y-98000000D02*
X64787500Y-98000000D01*
%TO.N,/ADC_C*%
X52750000Y-114750000D02*
X54150000Y-114750000D01*
X54125000Y-114775000D02*
X54150000Y-114750000D01*
X54125000Y-116250000D02*
X54125000Y-114775000D01*
X52800000Y-116250000D02*
X54125000Y-116250000D01*
%TO.N,/ADC_B*%
X52700000Y-110750000D02*
X52750000Y-110800000D01*
X51250000Y-110750000D02*
X52700000Y-110750000D01*
X51250000Y-109050000D02*
X52750000Y-109050000D01*
X51250000Y-110750000D02*
X51250000Y-109050000D01*
%TO.N,/ADC_A*%
X52750000Y-101000000D02*
X52750000Y-102450000D01*
X52750000Y-102450000D02*
X52700000Y-102500000D01*
X54250000Y-101000000D02*
X52750000Y-101000000D01*
X54250000Y-102500000D02*
X54250000Y-101000000D01*
%TO.N,Net-(IC1-AAM)*%
X80175000Y-119000000D02*
X81425000Y-119000000D01*
X79725000Y-119450000D02*
X80175000Y-119000000D01*
%TO.N,Net-(IC1-VCC)*%
X79075000Y-123600000D02*
X79225000Y-123750000D01*
X79075000Y-122050000D02*
X79075000Y-123600000D01*
D39*
%TO.N,/ADC_VDC*%
X86425000Y-123750000D02*
X85500000Y-123750000D01*
X86750000Y-123425000D02*
X86425000Y-123750000D01*
X86750000Y-122075000D02*
X86750000Y-123425000D01*
%TO.N,VDC*%
X83300000Y-120425000D02*
X83250000Y-120475000D01*
X86750000Y-120425000D02*
X83300000Y-120425000D01*
%TD*%
%TA.AperFunction,Conductor*%
%TO.N,GND*%
G36*
X81155703Y-110972542D02*
G01*
X81162181Y-110978574D01*
X81935625Y-111752018D01*
X81969110Y-111813341D01*
X81964126Y-111883033D01*
X81922254Y-111938966D01*
X81864131Y-111962637D01*
X81856291Y-111963670D01*
X81856287Y-111963671D01*
X81722377Y-112019137D01*
X81607379Y-112107379D01*
X81519137Y-112222377D01*
X81463671Y-112356287D01*
X81463670Y-112356291D01*
X81444750Y-112499999D01*
X81444750Y-112500000D01*
X81463670Y-112643708D01*
X81463671Y-112643712D01*
X81519137Y-112777622D01*
X81519138Y-112777624D01*
X81519139Y-112777625D01*
X81607379Y-112892621D01*
X81722375Y-112980861D01*
X81722376Y-112980861D01*
X81722377Y-112980862D01*
X81740337Y-112988301D01*
X81856291Y-113036330D01*
X81945435Y-113048065D01*
X82009330Y-113076331D01*
X82016930Y-113083323D01*
X82044087Y-113110480D01*
X82135412Y-113163207D01*
X82237273Y-113190500D01*
X82332746Y-113190500D01*
X82399785Y-113210185D01*
X82420428Y-113226820D01*
X82461653Y-113268046D01*
X82461655Y-113268047D01*
X82461658Y-113268050D01*
X82552851Y-113314515D01*
X82603647Y-113362490D01*
X82620442Y-113430311D01*
X82597904Y-113496446D01*
X82552852Y-113535484D01*
X82461658Y-113581950D01*
X82461657Y-113581951D01*
X82461653Y-113581953D01*
X82420428Y-113623180D01*
X82359105Y-113656666D01*
X82332746Y-113659500D01*
X81637273Y-113659500D01*
X81535413Y-113686793D01*
X81535410Y-113686794D01*
X81446137Y-113738335D01*
X81446127Y-113738342D01*
X81444712Y-113739158D01*
X81444085Y-113739521D01*
X81444082Y-113739523D01*
X80679522Y-114504084D01*
X80679520Y-114504087D01*
X80626793Y-114595410D01*
X80616858Y-114632490D01*
X80600176Y-114694750D01*
X80599500Y-114697273D01*
X80599500Y-117197273D01*
X80599500Y-117302727D01*
X80612033Y-117349500D01*
X80626793Y-117404589D01*
X80644730Y-117435656D01*
X80679520Y-117495913D01*
X80679521Y-117495914D01*
X80679522Y-117495915D01*
X81175179Y-117991571D01*
X81175189Y-117991582D01*
X81179519Y-117995912D01*
X81179520Y-117995913D01*
X81246957Y-118063350D01*
X81280441Y-118124671D01*
X81275457Y-118194363D01*
X81233586Y-118250297D01*
X81170854Y-118274488D01*
X81140300Y-118277353D01*
X81140298Y-118277353D01*
X81012119Y-118322206D01*
X81012117Y-118322207D01*
X80902850Y-118402850D01*
X80822206Y-118512118D01*
X80822205Y-118512121D01*
X80820690Y-118516452D01*
X80779970Y-118573229D01*
X80715018Y-118598978D01*
X80703648Y-118599500D01*
X80485104Y-118599500D01*
X80418065Y-118579815D01*
X80372310Y-118527011D01*
X80362366Y-118457853D01*
X80388812Y-118399942D01*
X80387673Y-118399068D01*
X80392618Y-118392622D01*
X80392621Y-118392621D01*
X80480861Y-118277625D01*
X80536330Y-118143709D01*
X80555250Y-118000000D01*
X80553654Y-117987881D01*
X80548308Y-117947273D01*
X80536330Y-117856291D01*
X80493996Y-117754087D01*
X80480862Y-117722377D01*
X80480861Y-117722376D01*
X80480861Y-117722375D01*
X80392621Y-117607379D01*
X80277625Y-117519139D01*
X80277624Y-117519138D01*
X80277622Y-117519137D01*
X80143712Y-117463671D01*
X80143710Y-117463670D01*
X80143709Y-117463670D01*
X80071854Y-117454210D01*
X80000001Y-117444750D01*
X79999999Y-117444750D01*
X79856291Y-117463670D01*
X79856287Y-117463671D01*
X79722376Y-117519138D01*
X79722370Y-117519141D01*
X79716199Y-117523877D01*
X79651030Y-117549070D01*
X79640715Y-117549500D01*
X79440691Y-117549500D01*
X79350325Y-117573713D01*
X79350324Y-117573712D01*
X79326115Y-117580200D01*
X79326106Y-117580204D01*
X79223392Y-117639505D01*
X79223384Y-117639511D01*
X78714513Y-118148383D01*
X78714509Y-118148389D01*
X78655201Y-118251112D01*
X78655200Y-118251117D01*
X78624500Y-118365691D01*
X78624500Y-118500500D01*
X78604815Y-118567539D01*
X78552011Y-118613294D01*
X78500500Y-118624500D01*
X78175325Y-118624500D01*
X78122906Y-118634926D01*
X78074527Y-118634926D01*
X78024624Y-118625000D01*
X78000000Y-118625000D01*
X78000000Y-118685817D01*
X77980315Y-118752856D01*
X77979103Y-118754706D01*
X77964033Y-118777259D01*
X77949500Y-118850323D01*
X77949500Y-119551000D01*
X77929815Y-119618039D01*
X77877011Y-119663794D01*
X77825500Y-119675000D01*
X77300000Y-119675000D01*
X77300000Y-120049628D01*
X77314503Y-120122542D01*
X77316783Y-120128045D01*
X77324253Y-120197514D01*
X77292980Y-120259994D01*
X77232892Y-120295648D01*
X77202223Y-120299500D01*
X75867019Y-120299500D01*
X75799980Y-120279815D01*
X75754225Y-120227011D01*
X75745402Y-120199692D01*
X75735967Y-120152263D01*
X75735966Y-120152260D01*
X75727973Y-120140298D01*
X75680601Y-120069399D01*
X75606331Y-120019774D01*
X75597739Y-120014033D01*
X75597735Y-120014032D01*
X75524677Y-119999500D01*
X75524674Y-119999500D01*
X73475326Y-119999500D01*
X73475323Y-119999500D01*
X73402264Y-120014032D01*
X73402260Y-120014033D01*
X73319399Y-120069399D01*
X73264033Y-120152260D01*
X73264032Y-120152264D01*
X73249500Y-120225321D01*
X73249500Y-122774678D01*
X73264032Y-122847735D01*
X73264033Y-122847739D01*
X73264034Y-122847740D01*
X73319399Y-122930601D01*
X73394620Y-122980861D01*
X73402260Y-122985966D01*
X73402264Y-122985967D01*
X73475321Y-123000499D01*
X73475324Y-123000500D01*
X73475326Y-123000500D01*
X75524676Y-123000500D01*
X75524677Y-123000499D01*
X75597740Y-122985966D01*
X75680601Y-122930601D01*
X75735966Y-122847740D01*
X75750500Y-122774674D01*
X75750500Y-121324500D01*
X75770185Y-121257461D01*
X75822989Y-121211706D01*
X75874500Y-121200500D01*
X76384043Y-121200500D01*
X76451082Y-121220185D01*
X76496837Y-121272989D01*
X76506781Y-121342147D01*
X76498604Y-121371952D01*
X76463671Y-121456287D01*
X76463670Y-121456291D01*
X76444750Y-121599999D01*
X76444750Y-121600000D01*
X76463670Y-121743708D01*
X76463671Y-121743712D01*
X76519137Y-121877622D01*
X76519138Y-121877624D01*
X76519139Y-121877625D01*
X76607379Y-121992621D01*
X76722375Y-122080861D01*
X76789333Y-122108595D01*
X76856288Y-122136329D01*
X76856290Y-122136330D01*
X76859721Y-122136781D01*
X76863995Y-122137344D01*
X76927894Y-122165606D01*
X76935500Y-122172603D01*
X77173386Y-122410489D01*
X77237501Y-122447506D01*
X77285715Y-122498072D01*
X77299500Y-122554892D01*
X77299500Y-122649678D01*
X77314032Y-122722735D01*
X77314033Y-122722739D01*
X77315543Y-122724999D01*
X77369399Y-122805601D01*
X77432458Y-122847735D01*
X77452260Y-122860966D01*
X77452264Y-122860967D01*
X77525321Y-122875499D01*
X77525324Y-122875500D01*
X77525326Y-122875500D01*
X77794278Y-122875500D01*
X77861317Y-122895185D01*
X77907072Y-122947989D01*
X77917016Y-123017147D01*
X77887991Y-123080703D01*
X77869766Y-123097873D01*
X77866759Y-123100181D01*
X77857380Y-123107377D01*
X77769137Y-123222377D01*
X77713671Y-123356287D01*
X77713670Y-123356291D01*
X77694750Y-123499999D01*
X77694750Y-123500000D01*
X77713670Y-123643708D01*
X77713671Y-123643712D01*
X77769137Y-123777622D01*
X77769138Y-123777624D01*
X77769139Y-123777625D01*
X77857379Y-123892621D01*
X77972375Y-123980861D01*
X78106291Y-124036330D01*
X78233280Y-124053048D01*
X78249999Y-124055250D01*
X78250000Y-124055250D01*
X78250001Y-124055250D01*
X78324171Y-124045485D01*
X78393709Y-124036330D01*
X78393709Y-124036329D01*
X78401766Y-124035269D01*
X78402192Y-124038507D01*
X78456766Y-124039786D01*
X78514644Y-124078926D01*
X78535236Y-124114577D01*
X78564328Y-124192575D01*
X78578281Y-124229983D01*
X78578373Y-124230228D01*
X78631494Y-124301190D01*
X78655911Y-124366654D01*
X78641059Y-124434927D01*
X78591654Y-124484332D01*
X78532227Y-124499500D01*
X50624500Y-124499500D01*
X50557461Y-124479815D01*
X50511706Y-124427011D01*
X50500500Y-124375500D01*
X50500500Y-122125321D01*
X50799500Y-122125321D01*
X50799500Y-123874678D01*
X50814032Y-123947735D01*
X50814033Y-123947739D01*
X50814034Y-123947740D01*
X50869399Y-124030601D01*
X50931837Y-124072320D01*
X50952260Y-124085966D01*
X50952264Y-124085967D01*
X51025321Y-124100499D01*
X51025324Y-124100500D01*
X51025326Y-124100500D01*
X52774676Y-124100500D01*
X52774677Y-124100499D01*
X52847740Y-124085966D01*
X52930601Y-124030601D01*
X52985966Y-123947740D01*
X53000500Y-123874674D01*
X53000500Y-122999999D01*
X53334785Y-122999999D01*
X53334785Y-123000000D01*
X53353602Y-123203082D01*
X53409417Y-123399247D01*
X53409422Y-123399260D01*
X53500327Y-123581821D01*
X53623237Y-123744581D01*
X53773958Y-123881980D01*
X53773960Y-123881982D01*
X53872571Y-123943039D01*
X53947363Y-123989348D01*
X54137544Y-124063024D01*
X54338024Y-124100500D01*
X54338026Y-124100500D01*
X54541974Y-124100500D01*
X54541976Y-124100500D01*
X54742456Y-124063024D01*
X54932637Y-123989348D01*
X55106041Y-123881981D01*
X55256764Y-123744579D01*
X55379673Y-123581821D01*
X55470582Y-123399250D01*
X55526397Y-123203083D01*
X55545215Y-123000000D01*
X55545215Y-122999999D01*
X55874785Y-122999999D01*
X55874785Y-123000000D01*
X55893602Y-123203082D01*
X55949417Y-123399247D01*
X55949422Y-123399260D01*
X56040327Y-123581821D01*
X56163237Y-123744581D01*
X56313958Y-123881980D01*
X56313960Y-123881982D01*
X56412571Y-123943039D01*
X56487363Y-123989348D01*
X56677544Y-124063024D01*
X56878024Y-124100500D01*
X56878026Y-124100500D01*
X57081974Y-124100500D01*
X57081976Y-124100500D01*
X57282456Y-124063024D01*
X57472637Y-123989348D01*
X57646041Y-123881981D01*
X57796764Y-123744579D01*
X57919673Y-123581821D01*
X58010582Y-123399250D01*
X58066397Y-123203083D01*
X58085215Y-123000000D01*
X58085215Y-122999999D01*
X58414785Y-122999999D01*
X58414785Y-123000000D01*
X58433602Y-123203082D01*
X58489417Y-123399247D01*
X58489422Y-123399260D01*
X58580327Y-123581821D01*
X58703237Y-123744581D01*
X58853958Y-123881980D01*
X58853960Y-123881982D01*
X58952571Y-123943039D01*
X59027363Y-123989348D01*
X59217544Y-124063024D01*
X59418024Y-124100500D01*
X59418026Y-124100500D01*
X59621974Y-124100500D01*
X59621976Y-124100500D01*
X59822456Y-124063024D01*
X60012637Y-123989348D01*
X60186041Y-123881981D01*
X60336764Y-123744579D01*
X60459673Y-123581821D01*
X60550582Y-123399250D01*
X60606397Y-123203083D01*
X60625215Y-123000000D01*
X60624482Y-122992094D01*
X60606397Y-122796917D01*
X60593048Y-122750000D01*
X60593048Y-122749999D01*
X60987471Y-122749999D01*
X60987472Y-122750000D01*
X61626988Y-122750000D01*
X61594075Y-122807007D01*
X61560000Y-122934174D01*
X61560000Y-123065826D01*
X61594075Y-123192993D01*
X61626988Y-123250000D01*
X60987472Y-123250000D01*
X61029885Y-123399065D01*
X61029890Y-123399078D01*
X61120754Y-123581556D01*
X61243608Y-123744242D01*
X61394260Y-123881578D01*
X61567584Y-123988897D01*
X61757678Y-124062539D01*
X61810000Y-124072320D01*
X61810000Y-123433012D01*
X61867007Y-123465925D01*
X61994174Y-123500000D01*
X62125826Y-123500000D01*
X62252993Y-123465925D01*
X62310000Y-123433012D01*
X62310000Y-124072320D01*
X62362321Y-124062539D01*
X62552415Y-123988897D01*
X62725739Y-123881578D01*
X62876391Y-123744242D01*
X62999245Y-123581556D01*
X63090109Y-123399078D01*
X63090114Y-123399065D01*
X63132528Y-123250000D01*
X62493012Y-123250000D01*
X62525925Y-123192993D01*
X62560000Y-123065826D01*
X62560000Y-122999999D01*
X63494785Y-122999999D01*
X63494785Y-123000000D01*
X63513602Y-123203082D01*
X63569417Y-123399247D01*
X63569422Y-123399260D01*
X63660327Y-123581821D01*
X63783237Y-123744581D01*
X63933958Y-123881980D01*
X63933960Y-123881982D01*
X64032571Y-123943039D01*
X64107363Y-123989348D01*
X64297544Y-124063024D01*
X64498024Y-124100500D01*
X64498026Y-124100500D01*
X64701974Y-124100500D01*
X64701976Y-124100500D01*
X64902456Y-124063024D01*
X65092637Y-123989348D01*
X65266041Y-123881981D01*
X65416764Y-123744579D01*
X65539673Y-123581821D01*
X65630582Y-123399250D01*
X65686397Y-123203083D01*
X65705215Y-123000000D01*
X65704482Y-122992094D01*
X65686397Y-122796917D01*
X65673048Y-122750000D01*
X65630582Y-122600750D01*
X65630159Y-122599901D01*
X65570448Y-122479984D01*
X65539673Y-122418179D01*
X65446975Y-122295427D01*
X65416762Y-122255418D01*
X65266041Y-122118019D01*
X65266039Y-122118017D01*
X65092642Y-122010655D01*
X65092635Y-122010651D01*
X64903700Y-121937458D01*
X64902456Y-121936976D01*
X64701976Y-121899500D01*
X64498024Y-121899500D01*
X64297544Y-121936976D01*
X64297541Y-121936976D01*
X64297541Y-121936977D01*
X64107364Y-122010651D01*
X64107357Y-122010655D01*
X63933960Y-122118017D01*
X63933958Y-122118019D01*
X63783237Y-122255418D01*
X63660327Y-122418178D01*
X63569422Y-122600739D01*
X63569417Y-122600752D01*
X63513602Y-122796917D01*
X63494785Y-122999999D01*
X62560000Y-122999999D01*
X62560000Y-122934174D01*
X62525925Y-122807007D01*
X62493012Y-122750000D01*
X63132528Y-122750000D01*
X63132528Y-122749999D01*
X63090114Y-122600934D01*
X63090109Y-122600921D01*
X62999245Y-122418443D01*
X62876391Y-122255757D01*
X62725739Y-122118421D01*
X62552413Y-122011101D01*
X62362315Y-121937458D01*
X62362309Y-121937456D01*
X62310001Y-121927677D01*
X62310000Y-121927679D01*
X62310000Y-122566988D01*
X62252993Y-122534075D01*
X62125826Y-122500000D01*
X61994174Y-122500000D01*
X61867007Y-122534075D01*
X61810000Y-122566988D01*
X61810000Y-121927679D01*
X61809998Y-121927677D01*
X61757690Y-121937456D01*
X61757684Y-121937458D01*
X61567586Y-122011101D01*
X61394260Y-122118421D01*
X61243608Y-122255757D01*
X61120754Y-122418443D01*
X61029890Y-122600921D01*
X61029885Y-122600934D01*
X60987471Y-122749999D01*
X60593048Y-122749999D01*
X60550582Y-122600750D01*
X60550159Y-122599901D01*
X60490448Y-122479984D01*
X60459673Y-122418179D01*
X60366975Y-122295427D01*
X60336762Y-122255418D01*
X60186041Y-122118019D01*
X60186039Y-122118017D01*
X60012642Y-122010655D01*
X60012635Y-122010651D01*
X59823700Y-121937458D01*
X59822456Y-121936976D01*
X59621976Y-121899500D01*
X59418024Y-121899500D01*
X59217544Y-121936976D01*
X59217541Y-121936976D01*
X59217541Y-121936977D01*
X59027364Y-122010651D01*
X59027357Y-122010655D01*
X58853960Y-122118017D01*
X58853958Y-122118019D01*
X58703237Y-122255418D01*
X58580327Y-122418178D01*
X58489422Y-122600739D01*
X58489417Y-122600752D01*
X58433602Y-122796917D01*
X58414785Y-122999999D01*
X58085215Y-122999999D01*
X58084482Y-122992094D01*
X58066397Y-122796917D01*
X58053048Y-122750000D01*
X58010582Y-122600750D01*
X58010159Y-122599901D01*
X57950448Y-122479984D01*
X57919673Y-122418179D01*
X57826975Y-122295427D01*
X57796762Y-122255418D01*
X57646041Y-122118019D01*
X57646039Y-122118017D01*
X57472642Y-122010655D01*
X57472635Y-122010651D01*
X57283700Y-121937458D01*
X57282456Y-121936976D01*
X57081976Y-121899500D01*
X56878024Y-121899500D01*
X56677544Y-121936976D01*
X56677541Y-121936976D01*
X56677541Y-121936977D01*
X56487364Y-122010651D01*
X56487357Y-122010655D01*
X56313960Y-122118017D01*
X56313958Y-122118019D01*
X56163237Y-122255418D01*
X56040327Y-122418178D01*
X55949422Y-122600739D01*
X55949417Y-122600752D01*
X55893602Y-122796917D01*
X55874785Y-122999999D01*
X55545215Y-122999999D01*
X55544482Y-122992094D01*
X55526397Y-122796917D01*
X55513048Y-122750000D01*
X55470582Y-122600750D01*
X55470159Y-122599901D01*
X55410448Y-122479984D01*
X55379673Y-122418179D01*
X55286975Y-122295427D01*
X55256762Y-122255418D01*
X55106041Y-122118019D01*
X55106039Y-122118017D01*
X54932642Y-122010655D01*
X54932635Y-122010651D01*
X54743700Y-121937458D01*
X54742456Y-121936976D01*
X54541976Y-121899500D01*
X54338024Y-121899500D01*
X54137544Y-121936976D01*
X54137541Y-121936976D01*
X54137541Y-121936977D01*
X53947364Y-122010651D01*
X53947357Y-122010655D01*
X53773960Y-122118017D01*
X53773958Y-122118019D01*
X53623237Y-122255418D01*
X53500327Y-122418178D01*
X53409422Y-122600739D01*
X53409417Y-122600752D01*
X53353602Y-122796917D01*
X53334785Y-122999999D01*
X53000500Y-122999999D01*
X53000500Y-122125326D01*
X53000500Y-122125323D01*
X53000499Y-122125321D01*
X52985967Y-122052264D01*
X52985966Y-122052260D01*
X52930601Y-121969399D01*
X52847740Y-121914034D01*
X52847739Y-121914033D01*
X52847735Y-121914032D01*
X52774677Y-121899500D01*
X52774674Y-121899500D01*
X51025326Y-121899500D01*
X51025323Y-121899500D01*
X50952264Y-121914032D01*
X50952260Y-121914033D01*
X50869399Y-121969399D01*
X50814033Y-122052260D01*
X50814032Y-122052264D01*
X50799500Y-122125321D01*
X50500500Y-122125321D01*
X50500500Y-120238118D01*
X64650000Y-120238118D01*
X64652788Y-120273547D01*
X64652789Y-120273553D01*
X64696843Y-120425185D01*
X64696844Y-120425188D01*
X64777226Y-120561108D01*
X64777232Y-120561116D01*
X64888883Y-120672767D01*
X64888891Y-120672773D01*
X65024811Y-120753155D01*
X65024814Y-120753156D01*
X65176446Y-120797210D01*
X65176452Y-120797211D01*
X65211881Y-120799999D01*
X65211894Y-120800000D01*
X65650000Y-120800000D01*
X66150000Y-120800000D01*
X66588106Y-120800000D01*
X66588118Y-120799999D01*
X66623547Y-120797211D01*
X66623553Y-120797210D01*
X66775185Y-120753156D01*
X66775188Y-120753155D01*
X66911108Y-120672773D01*
X66911116Y-120672767D01*
X67022767Y-120561116D01*
X67022773Y-120561108D01*
X67103155Y-120425188D01*
X67103156Y-120425185D01*
X67147210Y-120273553D01*
X67147211Y-120273547D01*
X67149999Y-120238118D01*
X67150000Y-120238105D01*
X67150000Y-120050000D01*
X66150000Y-120050000D01*
X66150000Y-120800000D01*
X65650000Y-120800000D01*
X65650000Y-120050000D01*
X64650000Y-120050000D01*
X64650000Y-120238118D01*
X50500500Y-120238118D01*
X50500500Y-118295439D01*
X56775001Y-118295439D01*
X56781081Y-118352007D01*
X56828813Y-118479981D01*
X56828815Y-118479984D01*
X56910670Y-118589329D01*
X57020015Y-118671184D01*
X57020016Y-118671185D01*
X57147991Y-118718917D01*
X57147994Y-118718918D01*
X57204555Y-118724999D01*
X57249999Y-118724999D01*
X57250000Y-118724998D01*
X57250000Y-118275000D01*
X56775001Y-118275000D01*
X56775001Y-118295439D01*
X50500500Y-118295439D01*
X50500500Y-117923141D01*
X50520185Y-117856102D01*
X50572989Y-117810347D01*
X50642147Y-117800403D01*
X50705703Y-117829428D01*
X50722871Y-117847650D01*
X50737318Y-117866477D01*
X50756053Y-117890894D01*
X50757379Y-117892621D01*
X50872375Y-117980861D01*
X50872376Y-117980861D01*
X50872377Y-117980862D01*
X50898258Y-117991582D01*
X51006291Y-118036330D01*
X51130836Y-118052727D01*
X51149999Y-118055250D01*
X51150000Y-118055250D01*
X51150001Y-118055250D01*
X51164977Y-118053278D01*
X51293709Y-118036330D01*
X51427625Y-117980861D01*
X51542621Y-117892621D01*
X51630861Y-117777625D01*
X51686330Y-117643709D01*
X51705250Y-117500000D01*
X51686330Y-117356291D01*
X51630861Y-117222375D01*
X51617157Y-117204516D01*
X51576124Y-117151039D01*
X51550930Y-117085869D01*
X51550500Y-117075553D01*
X51550500Y-116999529D01*
X51570185Y-116932490D01*
X51600867Y-116899759D01*
X51634005Y-116875302D01*
X51672150Y-116847150D01*
X51752793Y-116737882D01*
X51783369Y-116650500D01*
X51797646Y-116609701D01*
X51797646Y-116609699D01*
X51800500Y-116579269D01*
X51800500Y-115920730D01*
X51797646Y-115890300D01*
X51797646Y-115890298D01*
X51759256Y-115780588D01*
X51752793Y-115762118D01*
X51672150Y-115652850D01*
X51668939Y-115650480D01*
X51640847Y-115629747D01*
X51598597Y-115574100D01*
X51593140Y-115504443D01*
X51626207Y-115442894D01*
X51647909Y-115426533D01*
X51647884Y-115426500D01*
X51764329Y-115339329D01*
X51846184Y-115229984D01*
X51846185Y-115229983D01*
X51858550Y-115196830D01*
X51900420Y-115140895D01*
X51965884Y-115116477D01*
X52034158Y-115131328D01*
X52083564Y-115180732D01*
X52090914Y-115196826D01*
X52099346Y-115219431D01*
X52103372Y-115230226D01*
X52185313Y-115339687D01*
X52286170Y-115415187D01*
X52301874Y-115426943D01*
X52301054Y-115428037D01*
X52343895Y-115470868D01*
X52358755Y-115539140D01*
X52334346Y-115604607D01*
X52308706Y-115630077D01*
X52277849Y-115652850D01*
X52197207Y-115762117D01*
X52197206Y-115762119D01*
X52152353Y-115890298D01*
X52152353Y-115890300D01*
X52149500Y-115920730D01*
X52149500Y-116579269D01*
X52152353Y-116609699D01*
X52152353Y-116609701D01*
X52195260Y-116732318D01*
X52197207Y-116737882D01*
X52277850Y-116847150D01*
X52387118Y-116927793D01*
X52419332Y-116939065D01*
X52515299Y-116972646D01*
X52545730Y-116975500D01*
X52545734Y-116975500D01*
X53054270Y-116975500D01*
X53084699Y-116972646D01*
X53084701Y-116972646D01*
X53164421Y-116944750D01*
X53212882Y-116927793D01*
X53322150Y-116847150D01*
X53362730Y-116792166D01*
X53418377Y-116749915D01*
X53488033Y-116744456D01*
X53549583Y-116777523D01*
X53562270Y-116792166D01*
X53602848Y-116847148D01*
X53602849Y-116847148D01*
X53602850Y-116847150D01*
X53712118Y-116927793D01*
X53744332Y-116939065D01*
X53840299Y-116972646D01*
X53870730Y-116975500D01*
X53870734Y-116975500D01*
X54379270Y-116975500D01*
X54409699Y-116972646D01*
X54409701Y-116972646D01*
X54489421Y-116944750D01*
X54537882Y-116927793D01*
X54647150Y-116847150D01*
X54727793Y-116737882D01*
X54758369Y-116650500D01*
X54772646Y-116609701D01*
X54772646Y-116609699D01*
X54775500Y-116579269D01*
X54775500Y-115920730D01*
X54772646Y-115890300D01*
X54772646Y-115890298D01*
X54734256Y-115780588D01*
X54727793Y-115762118D01*
X54647150Y-115652850D01*
X54587727Y-115608994D01*
X54545478Y-115553348D01*
X54540019Y-115483691D01*
X54573087Y-115422142D01*
X54587719Y-115409461D01*
X54672150Y-115347150D01*
X54752793Y-115237882D01*
X54783369Y-115150500D01*
X54797646Y-115109701D01*
X54797646Y-115109699D01*
X54800500Y-115079269D01*
X54800500Y-114420730D01*
X54797646Y-114390300D01*
X54797646Y-114390298D01*
X54755471Y-114269772D01*
X54752793Y-114262118D01*
X54738216Y-114242367D01*
X54714246Y-114176741D01*
X54729561Y-114108570D01*
X54779301Y-114059502D01*
X54821798Y-114045797D01*
X54893709Y-114036330D01*
X55027625Y-113980861D01*
X55096451Y-113928049D01*
X55098960Y-113926124D01*
X55164129Y-113900930D01*
X55174446Y-113900500D01*
X55243783Y-113900500D01*
X55310822Y-113920185D01*
X55356577Y-113972989D01*
X55366521Y-114042147D01*
X55337496Y-114105703D01*
X55317417Y-114124270D01*
X55278207Y-114153207D01*
X55197653Y-114262354D01*
X55152850Y-114390395D01*
X55152850Y-114390399D01*
X55150000Y-114420793D01*
X55150000Y-114500000D01*
X56449999Y-114500000D01*
X56449999Y-114420803D01*
X56447148Y-114390393D01*
X56402346Y-114262354D01*
X56321792Y-114153207D01*
X56282583Y-114124270D01*
X56240332Y-114068622D01*
X56234874Y-113998966D01*
X56267942Y-113937417D01*
X56329036Y-113903516D01*
X56356217Y-113900500D01*
X56825554Y-113900500D01*
X56892593Y-113920185D01*
X56901040Y-113926124D01*
X56938047Y-113954520D01*
X56972375Y-113980861D01*
X57106291Y-114036330D01*
X57233280Y-114053048D01*
X57249999Y-114055250D01*
X57250000Y-114055250D01*
X57250001Y-114055250D01*
X57268777Y-114052777D01*
X57323554Y-114045566D01*
X57392588Y-114056331D01*
X57444844Y-114102711D01*
X57463730Y-114169980D01*
X57443250Y-114236780D01*
X57427420Y-114256186D01*
X56654484Y-115029122D01*
X56593161Y-115062607D01*
X56523469Y-115057623D01*
X56479122Y-115029122D01*
X56450000Y-115000000D01*
X55150001Y-115000000D01*
X55150001Y-115079196D01*
X55152851Y-115109606D01*
X55197653Y-115237645D01*
X55278208Y-115346793D01*
X55337691Y-115390693D01*
X55379942Y-115446340D01*
X55385401Y-115515996D01*
X55352334Y-115577546D01*
X55337693Y-115590232D01*
X55252850Y-115652849D01*
X55172207Y-115762117D01*
X55172206Y-115762119D01*
X55127353Y-115890298D01*
X55127353Y-115890300D01*
X55124500Y-115920730D01*
X55124500Y-116579269D01*
X55127353Y-116609699D01*
X55127353Y-116609701D01*
X55170260Y-116732318D01*
X55172207Y-116737882D01*
X55252850Y-116847150D01*
X55362118Y-116927793D01*
X55394332Y-116939065D01*
X55490299Y-116972646D01*
X55520730Y-116975500D01*
X55520734Y-116975500D01*
X56029270Y-116975500D01*
X56059699Y-116972646D01*
X56059701Y-116972646D01*
X56139421Y-116944750D01*
X56187882Y-116927793D01*
X56297150Y-116847150D01*
X56377793Y-116737882D01*
X56408369Y-116650500D01*
X56422646Y-116609701D01*
X56422646Y-116609699D01*
X56425500Y-116579269D01*
X56425500Y-116442254D01*
X56445185Y-116375215D01*
X56461813Y-116354578D01*
X56562822Y-116253569D01*
X56624141Y-116220087D01*
X56693833Y-116225071D01*
X56749767Y-116266942D01*
X56774184Y-116332406D01*
X56774500Y-116341253D01*
X56774500Y-116745481D01*
X56774501Y-116745490D01*
X56780587Y-116802114D01*
X56821078Y-116910670D01*
X56828372Y-116930226D01*
X56910313Y-117039687D01*
X56998177Y-117105461D01*
X57015822Y-117118670D01*
X57019774Y-117121628D01*
X57053174Y-117134085D01*
X57109105Y-117175956D01*
X57133522Y-117241420D01*
X57118670Y-117309693D01*
X57069265Y-117359098D01*
X57053172Y-117366447D01*
X57020023Y-117378811D01*
X57020015Y-117378815D01*
X56910670Y-117460670D01*
X56828815Y-117570015D01*
X56828814Y-117570016D01*
X56781083Y-117697989D01*
X56775000Y-117754571D01*
X56775000Y-117775000D01*
X57626000Y-117775000D01*
X57693039Y-117794685D01*
X57738794Y-117847489D01*
X57750000Y-117899000D01*
X57750000Y-118724999D01*
X57795433Y-118724999D01*
X57795439Y-118724998D01*
X57852007Y-118718918D01*
X57979981Y-118671186D01*
X57979984Y-118671184D01*
X58089330Y-118589328D01*
X58126232Y-118540033D01*
X58182165Y-118498161D01*
X58251857Y-118493175D01*
X58313180Y-118526660D01*
X58346666Y-118587983D01*
X58349500Y-118614342D01*
X58349500Y-118950001D01*
X58349501Y-118950018D01*
X58360000Y-119052796D01*
X58360001Y-119052799D01*
X58407876Y-119197273D01*
X58415186Y-119219334D01*
X58507288Y-119368656D01*
X58631344Y-119492712D01*
X58780666Y-119584814D01*
X58947203Y-119639999D01*
X59049991Y-119650500D01*
X60150008Y-119650499D01*
X60150016Y-119650498D01*
X60150019Y-119650498D01*
X60219444Y-119643406D01*
X60252797Y-119639999D01*
X60419334Y-119584814D01*
X60568656Y-119492712D01*
X60692712Y-119368656D01*
X60696891Y-119361881D01*
X64650000Y-119361881D01*
X64650000Y-119550000D01*
X65650000Y-119550000D01*
X66150000Y-119550000D01*
X67150000Y-119550000D01*
X67150000Y-119361894D01*
X67149999Y-119361881D01*
X67147211Y-119326452D01*
X67147210Y-119326446D01*
X67103156Y-119174814D01*
X67103155Y-119174811D01*
X67022773Y-119038891D01*
X67022767Y-119038883D01*
X66911116Y-118927232D01*
X66911108Y-118927226D01*
X66775188Y-118846844D01*
X66775185Y-118846843D01*
X66623553Y-118802789D01*
X66623547Y-118802788D01*
X66588118Y-118800000D01*
X66150000Y-118800000D01*
X66150000Y-119550000D01*
X65650000Y-119550000D01*
X65650000Y-118800000D01*
X65211881Y-118800000D01*
X65176452Y-118802788D01*
X65176446Y-118802789D01*
X65024814Y-118846843D01*
X65024811Y-118846844D01*
X64888891Y-118927226D01*
X64888883Y-118927232D01*
X64777232Y-119038883D01*
X64777226Y-119038891D01*
X64696844Y-119174811D01*
X64696843Y-119174814D01*
X64652789Y-119326446D01*
X64652788Y-119326452D01*
X64650000Y-119361881D01*
X60696891Y-119361881D01*
X60784814Y-119219334D01*
X60839999Y-119052797D01*
X60850500Y-118950009D01*
X60850500Y-118124500D01*
X60870185Y-118057461D01*
X60922989Y-118011706D01*
X60974500Y-118000500D01*
X64566996Y-118000500D01*
X64634035Y-118020185D01*
X64679790Y-118072989D01*
X64686072Y-118089905D01*
X64696380Y-118125385D01*
X64696381Y-118125388D01*
X64696382Y-118125390D01*
X64711232Y-118150500D01*
X64776827Y-118261416D01*
X64776834Y-118261425D01*
X64888574Y-118373165D01*
X64888583Y-118373172D01*
X64890440Y-118374270D01*
X65024610Y-118453618D01*
X65176373Y-118497709D01*
X65211837Y-118500500D01*
X66588162Y-118500499D01*
X66623627Y-118497709D01*
X66775390Y-118453618D01*
X66911420Y-118373170D01*
X67023170Y-118261420D01*
X67103618Y-118125390D01*
X67147709Y-117973627D01*
X67150500Y-117938163D01*
X67150499Y-117061838D01*
X67147709Y-117026373D01*
X67103618Y-116874610D01*
X67051804Y-116786998D01*
X67023172Y-116738583D01*
X67023165Y-116738574D01*
X66911425Y-116626834D01*
X66911416Y-116626827D01*
X66775390Y-116546382D01*
X66775385Y-116546380D01*
X66623633Y-116502292D01*
X66623620Y-116502290D01*
X66588163Y-116499500D01*
X65211849Y-116499500D01*
X65211824Y-116499501D01*
X65176372Y-116502291D01*
X65024614Y-116546380D01*
X65024609Y-116546382D01*
X64888583Y-116626827D01*
X64888574Y-116626834D01*
X64776834Y-116738574D01*
X64776827Y-116738583D01*
X64696381Y-116874611D01*
X64696380Y-116874614D01*
X64686072Y-116910095D01*
X64648466Y-116968981D01*
X64584993Y-116998187D01*
X64566996Y-116999500D01*
X60974499Y-116999500D01*
X60907460Y-116979815D01*
X60861705Y-116927011D01*
X60850499Y-116875500D01*
X60850499Y-116049998D01*
X60850498Y-116049981D01*
X60839999Y-115947203D01*
X60839998Y-115947200D01*
X60825275Y-115902770D01*
X60784814Y-115780666D01*
X60784809Y-115780659D01*
X60781762Y-115774122D01*
X60783007Y-115773541D01*
X60766629Y-115713697D01*
X60776047Y-115668534D01*
X60786330Y-115643709D01*
X60805250Y-115500000D01*
X60786330Y-115356291D01*
X60743511Y-115252915D01*
X60730862Y-115222377D01*
X60730861Y-115222376D01*
X60730861Y-115222375D01*
X60642621Y-115107379D01*
X60642618Y-115107377D01*
X60637673Y-115100932D01*
X60640215Y-115098981D01*
X60613938Y-115050858D01*
X60618922Y-114981166D01*
X60660794Y-114925233D01*
X60726258Y-114900816D01*
X60735104Y-114900500D01*
X62075554Y-114900500D01*
X62142593Y-114920185D01*
X62151040Y-114926124D01*
X62175314Y-114944750D01*
X62222375Y-114980861D01*
X62356291Y-115036330D01*
X62483280Y-115053048D01*
X62499999Y-115055250D01*
X62500000Y-115055250D01*
X62500001Y-115055250D01*
X62514977Y-115053278D01*
X62643709Y-115036330D01*
X62777625Y-114980861D01*
X62892621Y-114892621D01*
X62980861Y-114777625D01*
X63036330Y-114643709D01*
X63055250Y-114500000D01*
X63036330Y-114356291D01*
X63022105Y-114321950D01*
X63014638Y-114252482D01*
X63045914Y-114190003D01*
X63106003Y-114154351D01*
X63136668Y-114150500D01*
X64765547Y-114150500D01*
X64832586Y-114170185D01*
X64878341Y-114222989D01*
X64888285Y-114292147D01*
X64859260Y-114355703D01*
X64853228Y-114362181D01*
X64776834Y-114438574D01*
X64776827Y-114438583D01*
X64696382Y-114574609D01*
X64696380Y-114574614D01*
X64652292Y-114726366D01*
X64652290Y-114726379D01*
X64649500Y-114761829D01*
X64649500Y-115638150D01*
X64649501Y-115638175D01*
X64652291Y-115673627D01*
X64696380Y-115825385D01*
X64696382Y-115825390D01*
X64776827Y-115961416D01*
X64776834Y-115961425D01*
X64888574Y-116073165D01*
X64888578Y-116073168D01*
X64888580Y-116073170D01*
X65024610Y-116153618D01*
X65176373Y-116197709D01*
X65211837Y-116200500D01*
X66588162Y-116200499D01*
X66623627Y-116197709D01*
X66775390Y-116153618D01*
X66911420Y-116073170D01*
X67023170Y-115961420D01*
X67103618Y-115825390D01*
X67104541Y-115822210D01*
X67105945Y-115820011D01*
X67106718Y-115818227D01*
X67107005Y-115818351D01*
X67142141Y-115763323D01*
X67205611Y-115734111D01*
X67274798Y-115743850D01*
X67311301Y-115769115D01*
X68213181Y-116670995D01*
X68246666Y-116732318D01*
X68249500Y-116758676D01*
X68249500Y-116781478D01*
X68229815Y-116848517D01*
X68199812Y-116880744D01*
X68160313Y-116910312D01*
X68160307Y-116910318D01*
X68078374Y-117019769D01*
X68078372Y-117019773D01*
X68078372Y-117019774D01*
X68033417Y-117140301D01*
X68030587Y-117147889D01*
X68024500Y-117204498D01*
X68024500Y-117795481D01*
X68024501Y-117795490D01*
X68030587Y-117852114D01*
X68065915Y-117946828D01*
X68078372Y-117980226D01*
X68160313Y-118089687D01*
X68191263Y-118112856D01*
X68199809Y-118119253D01*
X68241681Y-118175186D01*
X68249500Y-118218521D01*
X68249500Y-122774678D01*
X68264032Y-122847735D01*
X68264033Y-122847739D01*
X68264034Y-122847740D01*
X68319399Y-122930601D01*
X68394620Y-122980861D01*
X68402260Y-122985966D01*
X68402264Y-122985967D01*
X68475321Y-123000499D01*
X68475324Y-123000500D01*
X68475326Y-123000500D01*
X70524676Y-123000500D01*
X70524677Y-123000499D01*
X70597740Y-122985966D01*
X70680601Y-122930601D01*
X70735966Y-122847740D01*
X70750500Y-122774674D01*
X70750500Y-120225326D01*
X70750500Y-120225323D01*
X70750499Y-120225321D01*
X70735967Y-120152264D01*
X70735966Y-120152260D01*
X70727973Y-120140298D01*
X70680601Y-120069399D01*
X70606331Y-120019774D01*
X70597739Y-120014033D01*
X70597735Y-120014032D01*
X70524677Y-119999500D01*
X70524674Y-119999500D01*
X69374500Y-119999500D01*
X69307461Y-119979815D01*
X69261706Y-119927011D01*
X69250500Y-119875500D01*
X69250500Y-119687965D01*
X69270185Y-119620926D01*
X69286814Y-119600289D01*
X69400286Y-119486817D01*
X69461608Y-119453334D01*
X69487966Y-119450500D01*
X71309308Y-119450500D01*
X71309309Y-119450500D01*
X71399673Y-119426286D01*
X71423887Y-119419799D01*
X71526614Y-119360489D01*
X72035490Y-118851614D01*
X72036208Y-118850371D01*
X77300000Y-118850371D01*
X77300000Y-119225000D01*
X77550000Y-119225000D01*
X77550000Y-118625000D01*
X77525373Y-118625000D01*
X77452459Y-118639503D01*
X77452455Y-118639505D01*
X77369760Y-118694760D01*
X77314505Y-118777455D01*
X77314503Y-118777459D01*
X77300000Y-118850371D01*
X72036208Y-118850371D01*
X72094799Y-118748887D01*
X72101632Y-118723386D01*
X72102830Y-118718918D01*
X72109399Y-118694399D01*
X72125500Y-118634309D01*
X72125500Y-118212628D01*
X72145185Y-118145589D01*
X72175866Y-118112857D01*
X72197150Y-118097150D01*
X72277793Y-117987882D01*
X72311126Y-117892621D01*
X72322646Y-117859701D01*
X72322646Y-117859699D01*
X72325500Y-117829269D01*
X72325500Y-117170730D01*
X72674500Y-117170730D01*
X72674500Y-117829269D01*
X72677353Y-117859699D01*
X72677353Y-117859701D01*
X72722124Y-117987645D01*
X72722207Y-117987882D01*
X72802850Y-118097150D01*
X72912118Y-118177793D01*
X72937913Y-118186819D01*
X73040299Y-118222646D01*
X73070730Y-118225500D01*
X73070734Y-118225500D01*
X73579270Y-118225500D01*
X73609699Y-118222646D01*
X73609701Y-118222646D01*
X73690527Y-118194363D01*
X73737882Y-118177793D01*
X73847150Y-118097150D01*
X73847155Y-118097142D01*
X73853725Y-118090575D01*
X73855206Y-118092056D01*
X73901071Y-118057226D01*
X73961392Y-118050167D01*
X73999999Y-118055250D01*
X74000000Y-118055250D01*
X74000001Y-118055250D01*
X74038607Y-118050167D01*
X74107642Y-118060932D01*
X74145129Y-118091722D01*
X74146276Y-118090576D01*
X74152847Y-118097146D01*
X74152850Y-118097150D01*
X74262118Y-118177793D01*
X74287913Y-118186819D01*
X74390299Y-118222646D01*
X74420730Y-118225500D01*
X74420734Y-118225500D01*
X74929270Y-118225500D01*
X74959699Y-118222646D01*
X74959701Y-118222646D01*
X75040527Y-118194363D01*
X75087882Y-118177793D01*
X75197150Y-118097150D01*
X75277793Y-117987882D01*
X75311126Y-117892621D01*
X75322646Y-117859701D01*
X75322646Y-117859699D01*
X75325500Y-117829269D01*
X75325500Y-117829196D01*
X75675001Y-117829196D01*
X75677851Y-117859606D01*
X75722653Y-117987645D01*
X75803207Y-118096792D01*
X75912354Y-118177346D01*
X76040397Y-118222149D01*
X76070793Y-118224999D01*
X76074999Y-118224999D01*
X76575000Y-118224999D01*
X76579196Y-118224999D01*
X76609606Y-118222148D01*
X76737645Y-118177346D01*
X76846792Y-118096792D01*
X76927346Y-117987645D01*
X76972149Y-117859604D01*
X76972149Y-117859600D01*
X76975000Y-117829206D01*
X76975000Y-117750000D01*
X76575000Y-117750000D01*
X76575000Y-118224999D01*
X76074999Y-118224999D01*
X76075000Y-118224998D01*
X76075000Y-117750000D01*
X75675001Y-117750000D01*
X75675001Y-117829196D01*
X75325500Y-117829196D01*
X75325500Y-117170793D01*
X75675000Y-117170793D01*
X75675000Y-117250000D01*
X76075000Y-117250000D01*
X76575000Y-117250000D01*
X76974999Y-117250000D01*
X76974999Y-117170803D01*
X76972148Y-117140393D01*
X76927346Y-117012354D01*
X76846792Y-116903207D01*
X76774699Y-116850000D01*
X77360851Y-116850000D01*
X77364833Y-116875143D01*
X77422360Y-116988046D01*
X77422363Y-116988050D01*
X77511949Y-117077636D01*
X77511953Y-117077639D01*
X77624855Y-117135166D01*
X77718514Y-117149999D01*
X78324999Y-117149999D01*
X78825000Y-117149999D01*
X79431479Y-117149999D01*
X79525149Y-117135164D01*
X79525155Y-117135162D01*
X79638041Y-117077643D01*
X79638050Y-117077636D01*
X79727636Y-116988050D01*
X79727639Y-116988046D01*
X79785166Y-116875143D01*
X79789149Y-116850000D01*
X78825000Y-116850000D01*
X78825000Y-117149999D01*
X78324999Y-117149999D01*
X78325000Y-117149998D01*
X78325000Y-116850000D01*
X77360851Y-116850000D01*
X76774699Y-116850000D01*
X76737645Y-116822653D01*
X76609602Y-116777850D01*
X76579207Y-116775000D01*
X76575000Y-116775000D01*
X76575000Y-117250000D01*
X76075000Y-117250000D01*
X76075000Y-116775000D01*
X76070796Y-116775001D01*
X76070774Y-116775002D01*
X76040399Y-116777850D01*
X76040394Y-116777851D01*
X75912354Y-116822653D01*
X75803207Y-116903207D01*
X75722653Y-117012354D01*
X75677850Y-117140395D01*
X75677850Y-117140399D01*
X75675000Y-117170793D01*
X75325500Y-117170793D01*
X75325500Y-117170730D01*
X75322646Y-117140300D01*
X75322646Y-117140298D01*
X75289006Y-117044163D01*
X75277793Y-117012118D01*
X75197150Y-116902850D01*
X75087882Y-116822207D01*
X75087880Y-116822206D01*
X74959700Y-116777353D01*
X74929270Y-116774500D01*
X74929266Y-116774500D01*
X74420734Y-116774500D01*
X74420730Y-116774500D01*
X74390300Y-116777353D01*
X74390298Y-116777353D01*
X74262119Y-116822206D01*
X74262117Y-116822207D01*
X74152848Y-116902851D01*
X74146280Y-116909420D01*
X74144802Y-116907942D01*
X74098899Y-116942784D01*
X74038611Y-116949832D01*
X74000004Y-116944750D01*
X73999996Y-116944750D01*
X73961388Y-116949832D01*
X73892353Y-116939065D01*
X73854867Y-116908274D01*
X73853721Y-116909421D01*
X73847151Y-116902851D01*
X73842961Y-116899759D01*
X73737882Y-116822207D01*
X73737880Y-116822206D01*
X73609700Y-116777353D01*
X73579270Y-116774500D01*
X73579266Y-116774500D01*
X73070734Y-116774500D01*
X73070730Y-116774500D01*
X73040300Y-116777353D01*
X73040298Y-116777353D01*
X72912119Y-116822206D01*
X72912117Y-116822207D01*
X72802850Y-116902850D01*
X72722207Y-117012117D01*
X72722206Y-117012119D01*
X72677353Y-117140298D01*
X72677353Y-117140300D01*
X72674500Y-117170730D01*
X72325500Y-117170730D01*
X72322646Y-117140300D01*
X72322646Y-117140298D01*
X72289006Y-117044163D01*
X72277793Y-117012118D01*
X72237857Y-116958006D01*
X72213887Y-116892380D01*
X72214688Y-116868197D01*
X72230250Y-116750000D01*
X72229655Y-116745484D01*
X72224630Y-116707314D01*
X72211330Y-116606291D01*
X72155861Y-116472375D01*
X72067621Y-116357379D01*
X72067618Y-116357377D01*
X72062673Y-116350932D01*
X72065215Y-116348981D01*
X72038938Y-116300858D01*
X72043922Y-116231166D01*
X72085794Y-116175233D01*
X72151258Y-116150816D01*
X72160104Y-116150500D01*
X76009831Y-116150500D01*
X76009833Y-116150500D01*
X76111694Y-116123207D01*
X76203019Y-116070480D01*
X76506680Y-115766817D01*
X76568002Y-115733334D01*
X76594360Y-115730500D01*
X77382746Y-115730500D01*
X77449785Y-115750185D01*
X77470428Y-115766820D01*
X77511653Y-115808046D01*
X77511656Y-115808048D01*
X77511658Y-115808050D01*
X77551542Y-115828372D01*
X77603401Y-115854796D01*
X77654196Y-115902770D01*
X77670991Y-115970591D01*
X77648453Y-116036726D01*
X77603401Y-116075764D01*
X77511956Y-116122358D01*
X77511949Y-116122363D01*
X77422363Y-116211949D01*
X77422360Y-116211953D01*
X77364833Y-116324856D01*
X77360851Y-116350000D01*
X79789148Y-116350000D01*
X79785166Y-116324856D01*
X79727639Y-116211953D01*
X79727636Y-116211949D01*
X79638050Y-116122363D01*
X79638045Y-116122360D01*
X79546598Y-116075765D01*
X79495802Y-116027790D01*
X79479007Y-115959969D01*
X79501544Y-115893834D01*
X79546594Y-115854797D01*
X79638342Y-115808050D01*
X79728050Y-115718342D01*
X79785646Y-115605304D01*
X79785646Y-115605302D01*
X79785647Y-115605301D01*
X79800499Y-115511524D01*
X79800500Y-115511519D01*
X79800499Y-115148482D01*
X79785646Y-115054696D01*
X79728050Y-114941658D01*
X79728046Y-114941654D01*
X79728045Y-114941652D01*
X79638347Y-114851954D01*
X79638343Y-114851951D01*
X79638342Y-114851950D01*
X79590606Y-114827627D01*
X79547147Y-114805483D01*
X79496352Y-114757509D01*
X79479557Y-114689687D01*
X79502095Y-114623553D01*
X79547145Y-114584517D01*
X79638342Y-114538050D01*
X79728050Y-114448342D01*
X79785646Y-114335304D01*
X79785646Y-114335302D01*
X79785647Y-114335301D01*
X79800499Y-114241524D01*
X79800500Y-114241519D01*
X79800499Y-113878482D01*
X79785646Y-113784696D01*
X79728050Y-113671658D01*
X79728046Y-113671654D01*
X79728045Y-113671652D01*
X79638347Y-113581954D01*
X79638343Y-113581951D01*
X79638342Y-113581950D01*
X79635599Y-113580552D01*
X79547147Y-113535483D01*
X79496352Y-113487509D01*
X79479557Y-113419687D01*
X79502095Y-113353553D01*
X79547145Y-113314517D01*
X79638342Y-113268050D01*
X79638344Y-113268048D01*
X79643671Y-113264179D01*
X79709478Y-113240702D01*
X79716552Y-113240500D01*
X79769308Y-113240500D01*
X79769309Y-113240500D01*
X79859673Y-113216286D01*
X79883887Y-113209799D01*
X79986614Y-113150489D01*
X80439500Y-112697601D01*
X80500821Y-112664118D01*
X80510978Y-112662347D01*
X80518709Y-112661330D01*
X80652625Y-112605861D01*
X80767621Y-112517621D01*
X80855861Y-112402625D01*
X80911330Y-112268709D01*
X80926631Y-112152480D01*
X80929777Y-112136643D01*
X80930031Y-112135697D01*
X80930060Y-112135650D01*
X80930045Y-112135646D01*
X80933378Y-112123207D01*
X80950500Y-112059309D01*
X80950500Y-111066255D01*
X80970185Y-110999216D01*
X81022989Y-110953461D01*
X81092147Y-110943517D01*
X81155703Y-110972542D01*
G37*
%TD.AperFunction*%
%TA.AperFunction,Conductor*%
G36*
X82585822Y-118170185D02*
G01*
X82631577Y-118222989D01*
X82641521Y-118292147D01*
X82612496Y-118355703D01*
X82592417Y-118374270D01*
X82553207Y-118403207D01*
X82472653Y-118512354D01*
X82427850Y-118640395D01*
X82427850Y-118640399D01*
X82425000Y-118670793D01*
X82425000Y-118750000D01*
X83724999Y-118750000D01*
X83724999Y-118670803D01*
X83722148Y-118640393D01*
X83677346Y-118512354D01*
X83596792Y-118403207D01*
X83557583Y-118374270D01*
X83515332Y-118318622D01*
X83509874Y-118248966D01*
X83542942Y-118187417D01*
X83604036Y-118153516D01*
X83631217Y-118150500D01*
X84032745Y-118150500D01*
X84099784Y-118170185D01*
X84120426Y-118186819D01*
X84463681Y-118530074D01*
X84497166Y-118591397D01*
X84500000Y-118617755D01*
X84500000Y-119768552D01*
X84480315Y-119835591D01*
X84449634Y-119868322D01*
X84402850Y-119902850D01*
X84387142Y-119924134D01*
X84331494Y-119966385D01*
X84287372Y-119974500D01*
X84194520Y-119974500D01*
X84147070Y-119965062D01*
X84143712Y-119963671D01*
X84143710Y-119963670D01*
X84143709Y-119963670D01*
X84050602Y-119951412D01*
X84000001Y-119944750D01*
X83999999Y-119944750D01*
X83949395Y-119951412D01*
X83880360Y-119940646D01*
X83845532Y-119916158D01*
X83839688Y-119910314D01*
X83829717Y-119902850D01*
X83730226Y-119828372D01*
X83645152Y-119796640D01*
X83589219Y-119754768D01*
X83564803Y-119689304D01*
X83579656Y-119621031D01*
X83591874Y-119604712D01*
X83591274Y-119604269D01*
X83677346Y-119487645D01*
X83722149Y-119359604D01*
X83722149Y-119359600D01*
X83725000Y-119329206D01*
X83725000Y-119250000D01*
X82425001Y-119250000D01*
X82425001Y-119329196D01*
X82427851Y-119359606D01*
X82472653Y-119487645D01*
X82553207Y-119596792D01*
X82662355Y-119677346D01*
X82670412Y-119681605D01*
X82720483Y-119730335D01*
X82736261Y-119798400D01*
X82712735Y-119864190D01*
X82686779Y-119890500D01*
X82660315Y-119910310D01*
X82578373Y-120019771D01*
X82578372Y-120019774D01*
X82533418Y-120140300D01*
X82530587Y-120147889D01*
X82524500Y-120204498D01*
X82524500Y-120745481D01*
X82524501Y-120745490D01*
X82530587Y-120802114D01*
X82569830Y-120907325D01*
X82578372Y-120930226D01*
X82660313Y-121039687D01*
X82769774Y-121121628D01*
X82803174Y-121134085D01*
X82859105Y-121175956D01*
X82883522Y-121241420D01*
X82868670Y-121309693D01*
X82819265Y-121359098D01*
X82803172Y-121366447D01*
X82770023Y-121378811D01*
X82770015Y-121378815D01*
X82660670Y-121460670D01*
X82578815Y-121570015D01*
X82578814Y-121570016D01*
X82531083Y-121697989D01*
X82525000Y-121754571D01*
X82525000Y-121775000D01*
X83974999Y-121775000D01*
X83974999Y-121754566D01*
X83974998Y-121754560D01*
X83968918Y-121697992D01*
X83921186Y-121570018D01*
X83921184Y-121570015D01*
X83839329Y-121460670D01*
X83729984Y-121378815D01*
X83729983Y-121378814D01*
X83696827Y-121366448D01*
X83640894Y-121324576D01*
X83616477Y-121259112D01*
X83631329Y-121190839D01*
X83680734Y-121141434D01*
X83696816Y-121134089D01*
X83730226Y-121121628D01*
X83805557Y-121065235D01*
X83871019Y-121040819D01*
X83896044Y-121041563D01*
X84000000Y-121055250D01*
X84000001Y-121055250D01*
X84014977Y-121053278D01*
X84143709Y-121036330D01*
X84277625Y-120980861D01*
X84287375Y-120973378D01*
X84352541Y-120948182D01*
X84420986Y-120962217D01*
X84436490Y-120971977D01*
X84449636Y-120981679D01*
X84491885Y-121037326D01*
X84500000Y-121081447D01*
X84500000Y-121418551D01*
X84480315Y-121485590D01*
X84449634Y-121518321D01*
X84402853Y-121552847D01*
X84402850Y-121552850D01*
X84322207Y-121662117D01*
X84322206Y-121662119D01*
X84277353Y-121790298D01*
X84277353Y-121790300D01*
X84274500Y-121820730D01*
X84274500Y-122329269D01*
X84277353Y-122359699D01*
X84277353Y-122359701D01*
X84322206Y-122487880D01*
X84322207Y-122487882D01*
X84402850Y-122597150D01*
X84449635Y-122631678D01*
X84491884Y-122687323D01*
X84500000Y-122731447D01*
X84500000Y-122925055D01*
X84480315Y-122992094D01*
X84427511Y-123037849D01*
X84419335Y-123041236D01*
X84319773Y-123078372D01*
X84210313Y-123160313D01*
X84128372Y-123269772D01*
X84115914Y-123303174D01*
X84074041Y-123359107D01*
X84008576Y-123383522D01*
X83940304Y-123368669D01*
X83890899Y-123319262D01*
X83883551Y-123303170D01*
X83871187Y-123270020D01*
X83871184Y-123270015D01*
X83789329Y-123160670D01*
X83679984Y-123078815D01*
X83679983Y-123078814D01*
X83552010Y-123031083D01*
X83495428Y-123025000D01*
X83475000Y-123025000D01*
X83475000Y-123876000D01*
X83455315Y-123943039D01*
X83402511Y-123988794D01*
X83351000Y-124000000D01*
X82525001Y-124000000D01*
X82525001Y-124045439D01*
X82531081Y-124102007D01*
X82578813Y-124229981D01*
X82578815Y-124229983D01*
X82632119Y-124301189D01*
X82656536Y-124366653D01*
X82641684Y-124434926D01*
X82592279Y-124484332D01*
X82532852Y-124499500D01*
X81467148Y-124499500D01*
X81400109Y-124479815D01*
X81354354Y-124427011D01*
X81344410Y-124357853D01*
X81367881Y-124301189D01*
X81421184Y-124229983D01*
X81421185Y-124229983D01*
X81468916Y-124102010D01*
X81474999Y-124045428D01*
X81475000Y-124045427D01*
X81475000Y-124000000D01*
X80649000Y-124000000D01*
X80581961Y-123980315D01*
X80536206Y-123927511D01*
X80525000Y-123876000D01*
X80525000Y-123500000D01*
X81025000Y-123500000D01*
X81474999Y-123500000D01*
X81474999Y-123454571D01*
X82525000Y-123454571D01*
X82525000Y-123500000D01*
X82975000Y-123500000D01*
X82975000Y-123024999D01*
X82954579Y-123025000D01*
X82954560Y-123025001D01*
X82897993Y-123031081D01*
X82770018Y-123078813D01*
X82770015Y-123078815D01*
X82660670Y-123160670D01*
X82578815Y-123270015D01*
X82578814Y-123270016D01*
X82531083Y-123397989D01*
X82525000Y-123454571D01*
X81474999Y-123454571D01*
X81474999Y-123454566D01*
X81474998Y-123454560D01*
X81468918Y-123397992D01*
X81421186Y-123270018D01*
X81421184Y-123270015D01*
X81339329Y-123160670D01*
X81229984Y-123078815D01*
X81229983Y-123078814D01*
X81102010Y-123031083D01*
X81045428Y-123025000D01*
X81025000Y-123025000D01*
X81025000Y-123500000D01*
X80525000Y-123500000D01*
X80525000Y-123024999D01*
X80504579Y-123025000D01*
X80504560Y-123025001D01*
X80447993Y-123031081D01*
X80320018Y-123078813D01*
X80320015Y-123078815D01*
X80210670Y-123160670D01*
X80128815Y-123270015D01*
X80128811Y-123270023D01*
X80116447Y-123303172D01*
X80074576Y-123359106D01*
X80009111Y-123383522D01*
X79940838Y-123368670D01*
X79891433Y-123319264D01*
X79884089Y-123303183D01*
X79871628Y-123269774D01*
X79856825Y-123250000D01*
X79789954Y-123160670D01*
X79789687Y-123160313D01*
X79789685Y-123160312D01*
X79789685Y-123160311D01*
X79707471Y-123098767D01*
X79665599Y-123042834D01*
X79660615Y-122973142D01*
X79694100Y-122911819D01*
X79755423Y-122878334D01*
X79781781Y-122875500D01*
X79974676Y-122875500D01*
X79974677Y-122875499D01*
X80047740Y-122860966D01*
X80130601Y-122805601D01*
X80185966Y-122722740D01*
X80200500Y-122649674D01*
X80200500Y-122599500D01*
X80220185Y-122532461D01*
X80272989Y-122486706D01*
X80324500Y-122475500D01*
X80750471Y-122475500D01*
X80817510Y-122495185D01*
X80850241Y-122525867D01*
X80902848Y-122597148D01*
X80902849Y-122597148D01*
X80902850Y-122597150D01*
X81012118Y-122677793D01*
X81054845Y-122692744D01*
X81140299Y-122722646D01*
X81170730Y-122725500D01*
X81170734Y-122725500D01*
X81829270Y-122725500D01*
X81859699Y-122722646D01*
X81859701Y-122722646D01*
X81923790Y-122700219D01*
X81987882Y-122677793D01*
X82097150Y-122597150D01*
X82177793Y-122487882D01*
X82204875Y-122410486D01*
X82222646Y-122359701D01*
X82222646Y-122359699D01*
X82225500Y-122329269D01*
X82225500Y-122295439D01*
X82525001Y-122295439D01*
X82531081Y-122352007D01*
X82578813Y-122479981D01*
X82578815Y-122479984D01*
X82660670Y-122589329D01*
X82770015Y-122671184D01*
X82770016Y-122671185D01*
X82897991Y-122718917D01*
X82897994Y-122718918D01*
X82954555Y-122724999D01*
X82999999Y-122724999D01*
X83500000Y-122724999D01*
X83545433Y-122724999D01*
X83545439Y-122724998D01*
X83602007Y-122718918D01*
X83729981Y-122671186D01*
X83729984Y-122671184D01*
X83839329Y-122589329D01*
X83921184Y-122479984D01*
X83921185Y-122479983D01*
X83968916Y-122352010D01*
X83974999Y-122295428D01*
X83975000Y-122295427D01*
X83975000Y-122275000D01*
X83500000Y-122275000D01*
X83500000Y-122724999D01*
X82999999Y-122724999D01*
X83000000Y-122724998D01*
X83000000Y-122275000D01*
X82525001Y-122275000D01*
X82525001Y-122295439D01*
X82225500Y-122295439D01*
X82225500Y-121820730D01*
X82222646Y-121790300D01*
X82222646Y-121790298D01*
X82189006Y-121694163D01*
X82177793Y-121662118D01*
X82097150Y-121552850D01*
X81987882Y-121472207D01*
X81987880Y-121472206D01*
X81859700Y-121427353D01*
X81829270Y-121424500D01*
X81829266Y-121424500D01*
X81170734Y-121424500D01*
X81161719Y-121425345D01*
X81148742Y-121426562D01*
X81080158Y-121413220D01*
X81029674Y-121364918D01*
X81013319Y-121296989D01*
X81036285Y-121231002D01*
X81061678Y-121204730D01*
X81142621Y-121142621D01*
X81156900Y-121124011D01*
X81213329Y-121082810D01*
X81255275Y-121075500D01*
X81829270Y-121075500D01*
X81859699Y-121072646D01*
X81859701Y-121072646D01*
X81923790Y-121050219D01*
X81987882Y-121027793D01*
X82097150Y-120947150D01*
X82177793Y-120837882D01*
X82208544Y-120750000D01*
X82222646Y-120709701D01*
X82222646Y-120709699D01*
X82225500Y-120679269D01*
X82225500Y-120170730D01*
X82222646Y-120140300D01*
X82222646Y-120140298D01*
X82178463Y-120014033D01*
X82177793Y-120012118D01*
X82097150Y-119902850D01*
X81987882Y-119822207D01*
X81974837Y-119817642D01*
X81918062Y-119776921D01*
X81892316Y-119711968D01*
X81905773Y-119643406D01*
X81942162Y-119600831D01*
X81947150Y-119597150D01*
X82027793Y-119487882D01*
X82058369Y-119400500D01*
X82072646Y-119359701D01*
X82072646Y-119359699D01*
X82075500Y-119329269D01*
X82075500Y-118670730D01*
X82072646Y-118640300D01*
X82072646Y-118640298D01*
X82032881Y-118526660D01*
X82027793Y-118512118D01*
X81947150Y-118402850D01*
X81908424Y-118374269D01*
X81866175Y-118318622D01*
X81860716Y-118248966D01*
X81893784Y-118187417D01*
X81954878Y-118153516D01*
X81982059Y-118150500D01*
X82518783Y-118150500D01*
X82585822Y-118170185D01*
G37*
%TD.AperFunction*%
%TA.AperFunction,Conductor*%
G36*
X71256935Y-116170185D02*
G01*
X71302690Y-116222989D01*
X71312634Y-116292147D01*
X71286187Y-116350057D01*
X71287327Y-116350932D01*
X71282381Y-116357377D01*
X71282379Y-116357379D01*
X71235498Y-116418475D01*
X71194137Y-116472377D01*
X71138671Y-116606287D01*
X71138670Y-116606291D01*
X71120345Y-116745484D01*
X71119750Y-116750000D01*
X71132915Y-116850000D01*
X71135310Y-116868187D01*
X71124545Y-116937223D01*
X71112142Y-116958005D01*
X71093361Y-116983453D01*
X71037714Y-117025705D01*
X70968058Y-117031164D01*
X70906508Y-116998098D01*
X70894323Y-116984132D01*
X70839329Y-116910670D01*
X70729984Y-116828815D01*
X70729983Y-116828814D01*
X70602010Y-116781083D01*
X70545428Y-116775000D01*
X70525000Y-116775000D01*
X70525000Y-118224999D01*
X70545433Y-118224999D01*
X70545439Y-118224998D01*
X70602007Y-118218918D01*
X70729981Y-118171186D01*
X70729984Y-118171184D01*
X70839328Y-118089330D01*
X70894322Y-118015867D01*
X70950256Y-117973995D01*
X71019947Y-117969011D01*
X71081271Y-118002495D01*
X71093356Y-118016539D01*
X71126120Y-118060932D01*
X71147343Y-118089689D01*
X71152850Y-118097150D01*
X71174132Y-118112857D01*
X71216384Y-118168503D01*
X71224500Y-118212628D01*
X71224500Y-118337033D01*
X71204815Y-118404072D01*
X71188182Y-118424714D01*
X71099716Y-118513181D01*
X71038393Y-118546666D01*
X71012034Y-118549500D01*
X69487966Y-118549500D01*
X69420927Y-118529815D01*
X69400285Y-118513181D01*
X69286819Y-118399715D01*
X69253334Y-118338392D01*
X69250500Y-118312034D01*
X69250500Y-118180236D01*
X69270185Y-118113197D01*
X69286819Y-118092555D01*
X69289684Y-118089689D01*
X69289683Y-118089689D01*
X69289687Y-118089687D01*
X69371628Y-117980226D01*
X69384085Y-117946825D01*
X69425955Y-117890894D01*
X69491419Y-117866477D01*
X69559692Y-117881328D01*
X69609098Y-117930733D01*
X69616448Y-117946827D01*
X69628814Y-117979983D01*
X69628815Y-117979984D01*
X69710670Y-118089329D01*
X69820015Y-118171184D01*
X69820016Y-118171185D01*
X69947991Y-118218917D01*
X69947995Y-118218918D01*
X70004554Y-118224999D01*
X70025000Y-118224998D01*
X70025000Y-116774999D01*
X70004579Y-116775000D01*
X70004560Y-116775001D01*
X69947993Y-116781081D01*
X69820018Y-116828813D01*
X69820015Y-116828815D01*
X69710670Y-116910670D01*
X69628815Y-117020015D01*
X69628811Y-117020023D01*
X69616447Y-117053172D01*
X69574576Y-117109106D01*
X69509111Y-117133522D01*
X69440838Y-117118670D01*
X69391433Y-117069264D01*
X69384089Y-117053183D01*
X69371628Y-117019774D01*
X69371624Y-117019769D01*
X69338485Y-116975500D01*
X69289687Y-116910313D01*
X69289685Y-116910311D01*
X69289684Y-116910310D01*
X69286819Y-116907445D01*
X69284877Y-116903888D01*
X69284372Y-116903214D01*
X69284469Y-116903141D01*
X69253334Y-116846122D01*
X69250500Y-116819764D01*
X69250500Y-116434110D01*
X69250500Y-116434108D01*
X69216392Y-116306814D01*
X69216390Y-116306810D01*
X69216332Y-116306594D01*
X69217995Y-116236744D01*
X69257157Y-116178881D01*
X69321386Y-116151377D01*
X69336107Y-116150500D01*
X71189896Y-116150500D01*
X71256935Y-116170185D01*
G37*
%TD.AperFunction*%
%TA.AperFunction,Conductor*%
G36*
X50698131Y-112955568D02*
G01*
X50762118Y-113002793D01*
X50804845Y-113017744D01*
X50890299Y-113047646D01*
X50920730Y-113050500D01*
X50920734Y-113050500D01*
X51182745Y-113050500D01*
X51249784Y-113070185D01*
X51270426Y-113086819D01*
X51925179Y-113741571D01*
X51925189Y-113741582D01*
X51929519Y-113745912D01*
X51929520Y-113745913D01*
X52004087Y-113820480D01*
X52095413Y-113873207D01*
X52197273Y-113900501D01*
X52197275Y-113900501D01*
X52197484Y-113900557D01*
X52257144Y-113936922D01*
X52287673Y-113999770D01*
X52279378Y-114069145D01*
X52239701Y-114119598D01*
X52234881Y-114123207D01*
X52185313Y-114160313D01*
X52103372Y-114269772D01*
X52090914Y-114303174D01*
X52049041Y-114359107D01*
X51983576Y-114383522D01*
X51915304Y-114368669D01*
X51865899Y-114319262D01*
X51858551Y-114303170D01*
X51846187Y-114270020D01*
X51846184Y-114270015D01*
X51764329Y-114160670D01*
X51654984Y-114078815D01*
X51654983Y-114078814D01*
X51527010Y-114031083D01*
X51470428Y-114025000D01*
X51450000Y-114025000D01*
X51450000Y-114876000D01*
X51430315Y-114943039D01*
X51377511Y-114988794D01*
X51326000Y-115000000D01*
X51074000Y-115000000D01*
X51006961Y-114980315D01*
X50961206Y-114927511D01*
X50950000Y-114876000D01*
X50950000Y-114024999D01*
X50929579Y-114025000D01*
X50929560Y-114025001D01*
X50872993Y-114031081D01*
X50745018Y-114078813D01*
X50745016Y-114078814D01*
X50698810Y-114113404D01*
X50633345Y-114137820D01*
X50565072Y-114122968D01*
X50515667Y-114073562D01*
X50500500Y-114014136D01*
X50500500Y-113055340D01*
X50520185Y-112988301D01*
X50572989Y-112942546D01*
X50642147Y-112932602D01*
X50698131Y-112955568D01*
G37*
%TD.AperFunction*%
%TA.AperFunction,Conductor*%
G36*
X79992539Y-106680185D02*
G01*
X80038294Y-106732989D01*
X80049500Y-106784500D01*
X80049500Y-111619725D01*
X80029815Y-111686764D01*
X80000989Y-111718099D01*
X79982380Y-111732378D01*
X79894137Y-111847377D01*
X79838669Y-111981291D01*
X79838669Y-111981293D01*
X79837653Y-111989009D01*
X79809384Y-112052904D01*
X79802396Y-112060499D01*
X79641837Y-112221058D01*
X79580514Y-112254543D01*
X79534759Y-112255850D01*
X79431525Y-112239500D01*
X77718482Y-112239500D01*
X77637519Y-112252323D01*
X77624696Y-112254354D01*
X77511658Y-112311950D01*
X77511657Y-112311951D01*
X77511652Y-112311954D01*
X77421954Y-112401652D01*
X77421951Y-112401657D01*
X77421950Y-112401658D01*
X77412511Y-112420183D01*
X77364352Y-112514698D01*
X77349500Y-112608475D01*
X77349500Y-112971517D01*
X77357043Y-113019139D01*
X77364354Y-113065304D01*
X77421950Y-113178342D01*
X77421952Y-113178344D01*
X77421954Y-113178347D01*
X77511652Y-113268045D01*
X77511654Y-113268046D01*
X77511658Y-113268050D01*
X77602851Y-113314515D01*
X77653647Y-113362490D01*
X77670442Y-113430311D01*
X77647904Y-113496446D01*
X77602852Y-113535484D01*
X77511658Y-113581950D01*
X77511657Y-113581951D01*
X77511653Y-113581953D01*
X77470428Y-113623180D01*
X77409105Y-113656666D01*
X77382746Y-113659500D01*
X76887273Y-113659500D01*
X76785410Y-113686793D01*
X76694087Y-113739520D01*
X76694084Y-113739522D01*
X75620426Y-114813181D01*
X75559103Y-114846666D01*
X75532745Y-114849500D01*
X73799131Y-114849500D01*
X73732092Y-114829815D01*
X73686337Y-114777011D01*
X73676393Y-114707853D01*
X73696029Y-114656609D01*
X73735495Y-114597544D01*
X73735496Y-114597540D01*
X73749999Y-114524628D01*
X73750000Y-114524626D01*
X73750000Y-113250000D01*
X70250000Y-113250000D01*
X70250000Y-114524628D01*
X70264503Y-114597540D01*
X70264504Y-114597544D01*
X70303971Y-114656609D01*
X70324849Y-114723286D01*
X70306365Y-114790666D01*
X70254386Y-114837357D01*
X70200869Y-114849500D01*
X69717255Y-114849500D01*
X69650216Y-114829815D01*
X69629574Y-114813181D01*
X68436819Y-113620426D01*
X68403334Y-113559103D01*
X68400500Y-113532745D01*
X68400500Y-111706185D01*
X68420185Y-111639146D01*
X68472989Y-111593391D01*
X68542147Y-111583447D01*
X68556037Y-111586296D01*
X68556289Y-111586329D01*
X68556291Y-111586330D01*
X68672582Y-111601640D01*
X68699999Y-111605250D01*
X68700000Y-111605250D01*
X68700001Y-111605250D01*
X68735927Y-111600520D01*
X68843709Y-111586330D01*
X68907427Y-111559937D01*
X68954876Y-111550500D01*
X70126000Y-111550500D01*
X70193039Y-111570185D01*
X70238794Y-111622989D01*
X70250000Y-111674500D01*
X70250000Y-112750000D01*
X73750000Y-112750000D01*
X73750000Y-111674500D01*
X73769685Y-111607461D01*
X73822489Y-111561706D01*
X73874000Y-111550500D01*
X75152725Y-111550500D01*
X75152727Y-111550500D01*
X75254588Y-111523207D01*
X75345913Y-111470480D01*
X76485703Y-110330687D01*
X76485708Y-110330684D01*
X76495911Y-110320480D01*
X76495913Y-110320480D01*
X76546393Y-110270000D01*
X77360851Y-110270000D01*
X77364833Y-110295143D01*
X77422360Y-110408046D01*
X77422363Y-110408050D01*
X77511949Y-110497636D01*
X77511953Y-110497639D01*
X77624855Y-110555166D01*
X77718514Y-110569999D01*
X78324999Y-110569999D01*
X78825000Y-110569999D01*
X79431479Y-110569999D01*
X79525149Y-110555164D01*
X79525155Y-110555162D01*
X79638041Y-110497643D01*
X79638050Y-110497636D01*
X79727636Y-110408050D01*
X79727639Y-110408046D01*
X79785166Y-110295143D01*
X79789149Y-110270000D01*
X78825000Y-110270000D01*
X78825000Y-110569999D01*
X78324999Y-110569999D01*
X78325000Y-110569998D01*
X78325000Y-110270000D01*
X77360851Y-110270000D01*
X76546393Y-110270000D01*
X76570480Y-110245913D01*
X76623207Y-110154587D01*
X76624302Y-110150500D01*
X76650501Y-110052727D01*
X76650501Y-109947273D01*
X76650501Y-109939678D01*
X76650500Y-109939660D01*
X76650500Y-109467254D01*
X76670185Y-109400215D01*
X76686819Y-109379573D01*
X76879573Y-109186819D01*
X76940896Y-109153334D01*
X76967254Y-109150500D01*
X77382746Y-109150500D01*
X77449785Y-109170185D01*
X77470428Y-109186820D01*
X77511653Y-109228046D01*
X77511656Y-109228048D01*
X77511658Y-109228050D01*
X77522013Y-109233326D01*
X77603401Y-109274796D01*
X77654196Y-109322770D01*
X77670991Y-109390591D01*
X77648453Y-109456726D01*
X77603401Y-109495764D01*
X77511956Y-109542358D01*
X77511949Y-109542363D01*
X77422363Y-109631949D01*
X77422360Y-109631953D01*
X77364833Y-109744856D01*
X77360851Y-109770000D01*
X79789148Y-109770000D01*
X79785166Y-109744856D01*
X79727639Y-109631953D01*
X79727636Y-109631949D01*
X79638050Y-109542363D01*
X79638045Y-109542360D01*
X79546598Y-109495765D01*
X79495802Y-109447790D01*
X79479007Y-109379969D01*
X79501544Y-109313834D01*
X79546594Y-109274797D01*
X79638342Y-109228050D01*
X79728050Y-109138342D01*
X79785646Y-109025304D01*
X79785646Y-109025302D01*
X79785647Y-109025301D01*
X79800499Y-108931524D01*
X79800500Y-108931519D01*
X79800499Y-108568482D01*
X79785646Y-108474696D01*
X79728050Y-108361658D01*
X79728046Y-108361654D01*
X79728045Y-108361652D01*
X79638347Y-108271954D01*
X79638343Y-108271951D01*
X79638342Y-108271950D01*
X79627985Y-108266673D01*
X79547147Y-108225483D01*
X79496352Y-108177509D01*
X79479557Y-108109687D01*
X79502095Y-108043553D01*
X79547145Y-108004517D01*
X79638342Y-107958050D01*
X79728050Y-107868342D01*
X79785646Y-107755304D01*
X79785646Y-107755302D01*
X79785647Y-107755301D01*
X79800499Y-107661524D01*
X79800500Y-107661519D01*
X79800499Y-107298482D01*
X79785646Y-107204696D01*
X79728050Y-107091658D01*
X79728046Y-107091654D01*
X79728045Y-107091652D01*
X79638347Y-107001954D01*
X79638343Y-107001951D01*
X79638342Y-107001950D01*
X79609231Y-106987117D01*
X79547147Y-106955483D01*
X79496352Y-106907509D01*
X79479557Y-106839687D01*
X79502095Y-106773553D01*
X79547145Y-106734517D01*
X79638342Y-106688050D01*
X79638344Y-106688048D01*
X79643671Y-106684179D01*
X79709478Y-106660702D01*
X79716552Y-106660500D01*
X79925500Y-106660500D01*
X79992539Y-106680185D01*
G37*
%TD.AperFunction*%
%TA.AperFunction,Conductor*%
G36*
X61747981Y-108314374D02*
G01*
X62563181Y-109129574D01*
X62596666Y-109190897D01*
X62599500Y-109217255D01*
X62599500Y-110545267D01*
X62579815Y-110612306D01*
X62527011Y-110658061D01*
X62457853Y-110668005D01*
X62394297Y-110638980D01*
X62363116Y-110597668D01*
X62361616Y-110594451D01*
X62350000Y-110542050D01*
X62350000Y-110429860D01*
X62349999Y-110429859D01*
X62339590Y-110431230D01*
X62339585Y-110431231D01*
X62302994Y-110448294D01*
X62233916Y-110458785D01*
X62198186Y-110448293D01*
X62160544Y-110430740D01*
X62113140Y-110424500D01*
X61886868Y-110424500D01*
X61881308Y-110425232D01*
X61839455Y-110430741D01*
X61839453Y-110430742D01*
X61839451Y-110430742D01*
X61802403Y-110448018D01*
X61733325Y-110458509D01*
X61697596Y-110448018D01*
X61660545Y-110430741D01*
X61660541Y-110430740D01*
X61613140Y-110424500D01*
X61386868Y-110424500D01*
X61381308Y-110425232D01*
X61339455Y-110430741D01*
X61339453Y-110430742D01*
X61339451Y-110430742D01*
X61302403Y-110448018D01*
X61233325Y-110458509D01*
X61197596Y-110448018D01*
X61160545Y-110430741D01*
X61160541Y-110430740D01*
X61113140Y-110424500D01*
X60886868Y-110424500D01*
X60881308Y-110425232D01*
X60839455Y-110430741D01*
X60839453Y-110430742D01*
X60839451Y-110430742D01*
X60802403Y-110448018D01*
X60733325Y-110458509D01*
X60697596Y-110448018D01*
X60660545Y-110430741D01*
X60660541Y-110430740D01*
X60613140Y-110424500D01*
X60386868Y-110424500D01*
X60381308Y-110425232D01*
X60339455Y-110430741D01*
X60339453Y-110430742D01*
X60339451Y-110430742D01*
X60302403Y-110448018D01*
X60233325Y-110458509D01*
X60197596Y-110448018D01*
X60160545Y-110430741D01*
X60160541Y-110430740D01*
X60113140Y-110424500D01*
X59886868Y-110424500D01*
X59881308Y-110425232D01*
X59839455Y-110430741D01*
X59839453Y-110430742D01*
X59839451Y-110430742D01*
X59802403Y-110448018D01*
X59733325Y-110458509D01*
X59697596Y-110448018D01*
X59660545Y-110430741D01*
X59660541Y-110430740D01*
X59613140Y-110424500D01*
X59386868Y-110424500D01*
X59381308Y-110425232D01*
X59339455Y-110430741D01*
X59339453Y-110430742D01*
X59339451Y-110430742D01*
X59302403Y-110448018D01*
X59233325Y-110458509D01*
X59197596Y-110448018D01*
X59160545Y-110430741D01*
X59160541Y-110430740D01*
X59113140Y-110424500D01*
X58941254Y-110424500D01*
X58874215Y-110404815D01*
X58828460Y-110352011D01*
X58818516Y-110282853D01*
X58847541Y-110219297D01*
X58853605Y-110212787D01*
X58854618Y-110211775D01*
X58915957Y-110178321D01*
X58942255Y-110175500D01*
X59527725Y-110175500D01*
X59527727Y-110175500D01*
X59629588Y-110148207D01*
X59720913Y-110095480D01*
X60983069Y-108833321D01*
X61044390Y-108799838D01*
X61054543Y-108798068D01*
X61143709Y-108786330D01*
X61277625Y-108730861D01*
X61392621Y-108642621D01*
X61480861Y-108527625D01*
X61536330Y-108393709D01*
X61537361Y-108385871D01*
X61565623Y-108321978D01*
X61623945Y-108283504D01*
X61693810Y-108282669D01*
X61747981Y-108314374D01*
G37*
%TD.AperFunction*%
%TA.AperFunction,Conductor*%
G36*
X51443039Y-105794685D02*
G01*
X51488794Y-105847489D01*
X51500000Y-105899000D01*
X51500000Y-108049999D01*
X51579196Y-108049999D01*
X51609606Y-108047148D01*
X51737645Y-108002346D01*
X51846793Y-107921791D01*
X51899919Y-107849808D01*
X51955566Y-107807557D01*
X52025222Y-107802098D01*
X52086772Y-107835165D01*
X52099457Y-107849804D01*
X52152850Y-107922150D01*
X52262118Y-108002793D01*
X52298850Y-108015646D01*
X52390299Y-108047646D01*
X52420730Y-108050500D01*
X52420734Y-108050500D01*
X53079270Y-108050500D01*
X53109699Y-108047646D01*
X53109701Y-108047646D01*
X53173790Y-108025219D01*
X53237882Y-108002793D01*
X53347150Y-107922150D01*
X53427793Y-107812882D01*
X53452746Y-107741571D01*
X53472646Y-107684701D01*
X53472646Y-107684699D01*
X53475500Y-107654269D01*
X53475500Y-107145730D01*
X53472646Y-107115300D01*
X53472646Y-107115298D01*
X53432983Y-107001950D01*
X53427793Y-106987118D01*
X53347150Y-106877850D01*
X53347148Y-106877849D01*
X53347148Y-106877848D01*
X53292166Y-106837270D01*
X53249915Y-106781623D01*
X53244456Y-106711967D01*
X53277523Y-106650417D01*
X53292166Y-106637730D01*
X53319377Y-106617647D01*
X53347150Y-106597150D01*
X53427793Y-106487882D01*
X53445748Y-106436569D01*
X53486468Y-106379796D01*
X53551420Y-106354048D01*
X53597936Y-106361104D01*
X53598440Y-106359226D01*
X53606289Y-106361329D01*
X53606291Y-106361330D01*
X53741685Y-106379155D01*
X53805582Y-106407422D01*
X53844053Y-106465746D01*
X53849500Y-106502094D01*
X53849500Y-107052726D01*
X53876793Y-107154589D01*
X53901623Y-107197595D01*
X53929520Y-107245913D01*
X53929521Y-107245914D01*
X53929522Y-107245915D01*
X54425179Y-107741571D01*
X54425189Y-107741582D01*
X54429519Y-107745912D01*
X54429520Y-107745913D01*
X54504087Y-107820480D01*
X54517196Y-107828048D01*
X54517198Y-107828050D01*
X54517199Y-107828050D01*
X54586985Y-107868342D01*
X54595412Y-107873207D01*
X54697273Y-107900500D01*
X54697275Y-107900500D01*
X55220268Y-107900500D01*
X55287307Y-107920185D01*
X55333062Y-107972989D01*
X55343006Y-108042147D01*
X55313981Y-108105703D01*
X55272683Y-108136877D01*
X55269467Y-108138377D01*
X55217052Y-108150000D01*
X55104860Y-108150000D01*
X55106230Y-108160413D01*
X55123293Y-108197005D01*
X55133784Y-108266083D01*
X55123293Y-108301812D01*
X55101732Y-108348052D01*
X55100056Y-108347270D01*
X55068645Y-108396350D01*
X55005143Y-108425494D01*
X54935967Y-108415679D01*
X54911784Y-108401167D01*
X54902625Y-108394139D01*
X54902624Y-108394138D01*
X54902622Y-108394137D01*
X54768712Y-108338671D01*
X54768710Y-108338670D01*
X54768709Y-108338670D01*
X54696854Y-108329210D01*
X54625001Y-108319750D01*
X54624999Y-108319750D01*
X54481291Y-108338670D01*
X54481287Y-108338671D01*
X54347377Y-108394137D01*
X54232379Y-108482379D01*
X54144137Y-108597377D01*
X54088671Y-108731287D01*
X54088670Y-108731291D01*
X54076158Y-108826331D01*
X54069750Y-108875000D01*
X54086206Y-108999997D01*
X54088670Y-109018708D01*
X54088671Y-109018712D01*
X54144137Y-109152622D01*
X54144138Y-109152624D01*
X54144139Y-109152625D01*
X54232379Y-109267621D01*
X54347375Y-109355861D01*
X54347381Y-109355863D01*
X54353470Y-109359379D01*
X54401688Y-109409944D01*
X54414914Y-109478550D01*
X54388949Y-109543416D01*
X54379156Y-109554450D01*
X53594399Y-110339207D01*
X53533076Y-110372692D01*
X53463384Y-110367708D01*
X53407451Y-110325836D01*
X53403442Y-110320481D01*
X53339687Y-110235313D01*
X53294541Y-110201517D01*
X53230228Y-110153373D01*
X53230226Y-110153372D01*
X53102114Y-110105588D01*
X53102112Y-110105587D01*
X53102110Y-110105587D01*
X53045493Y-110099500D01*
X52454518Y-110099500D01*
X52454509Y-110099501D01*
X52397885Y-110105587D01*
X52269773Y-110153372D01*
X52160313Y-110235313D01*
X52112539Y-110299133D01*
X52112031Y-110299811D01*
X52056097Y-110341682D01*
X52012764Y-110349500D01*
X51999529Y-110349500D01*
X51932490Y-110329815D01*
X51899759Y-110299133D01*
X51847151Y-110227851D01*
X51834345Y-110218400D01*
X51737882Y-110147207D01*
X51733542Y-110145688D01*
X51676768Y-110104966D01*
X51651022Y-110040013D01*
X51650500Y-110028648D01*
X51650500Y-109771352D01*
X51670185Y-109704313D01*
X51722989Y-109658558D01*
X51733548Y-109654310D01*
X51735915Y-109653481D01*
X51737882Y-109652793D01*
X51847150Y-109572150D01*
X51899759Y-109500867D01*
X51955406Y-109458616D01*
X51999529Y-109450500D01*
X52000471Y-109450500D01*
X52067510Y-109470185D01*
X52100241Y-109500867D01*
X52152848Y-109572148D01*
X52152849Y-109572148D01*
X52152850Y-109572150D01*
X52262118Y-109652793D01*
X52304845Y-109667744D01*
X52390299Y-109697646D01*
X52420730Y-109700500D01*
X52420734Y-109700500D01*
X53079270Y-109700500D01*
X53109699Y-109697646D01*
X53109701Y-109697646D01*
X53173790Y-109675219D01*
X53237882Y-109652793D01*
X53347150Y-109572150D01*
X53427793Y-109462882D01*
X53454392Y-109386867D01*
X53472646Y-109334701D01*
X53472646Y-109334699D01*
X53475500Y-109304269D01*
X53475500Y-108795730D01*
X53472646Y-108765300D01*
X53472646Y-108765298D01*
X53435990Y-108660545D01*
X53427793Y-108637118D01*
X53347150Y-108527850D01*
X53237882Y-108447207D01*
X53237880Y-108447206D01*
X53109700Y-108402353D01*
X53079270Y-108399500D01*
X53079266Y-108399500D01*
X52420734Y-108399500D01*
X52420730Y-108399500D01*
X52390300Y-108402353D01*
X52390298Y-108402353D01*
X52262119Y-108447206D01*
X52262117Y-108447207D01*
X52152848Y-108527851D01*
X52100241Y-108599133D01*
X52044594Y-108641384D01*
X52000471Y-108649500D01*
X51999529Y-108649500D01*
X51932490Y-108629815D01*
X51899759Y-108599133D01*
X51847151Y-108527851D01*
X51834345Y-108518400D01*
X51737882Y-108447207D01*
X51737880Y-108447206D01*
X51609700Y-108402353D01*
X51579270Y-108399500D01*
X51579266Y-108399500D01*
X50920734Y-108399500D01*
X50920730Y-108399500D01*
X50890300Y-108402353D01*
X50890298Y-108402353D01*
X50762119Y-108447206D01*
X50762118Y-108447207D01*
X50714462Y-108482379D01*
X50698133Y-108494430D01*
X50632504Y-108518400D01*
X50564334Y-108503084D01*
X50515266Y-108453344D01*
X50500500Y-108394659D01*
X50500500Y-108054719D01*
X50520185Y-107987680D01*
X50572989Y-107941925D01*
X50642147Y-107931981D01*
X50698134Y-107954949D01*
X50762355Y-108002346D01*
X50762354Y-108002346D01*
X50890397Y-108047149D01*
X50920778Y-108049998D01*
X50920806Y-108049999D01*
X50999999Y-108049998D01*
X51000000Y-108049998D01*
X51000000Y-105899000D01*
X51019685Y-105831961D01*
X51072489Y-105786206D01*
X51124000Y-105775000D01*
X51376000Y-105775000D01*
X51443039Y-105794685D01*
G37*
%TD.AperFunction*%
%TA.AperFunction,Conductor*%
G36*
X80005701Y-100723252D02*
G01*
X80012180Y-100729284D01*
X80013181Y-100730285D01*
X80046666Y-100791608D01*
X80049500Y-100817966D01*
X80049500Y-104890715D01*
X80029815Y-104957754D01*
X80023877Y-104966200D01*
X80019138Y-104972375D01*
X79963671Y-105106287D01*
X79963670Y-105106291D01*
X79947230Y-105231166D01*
X79944750Y-105250000D01*
X79962768Y-105386861D01*
X79963670Y-105393708D01*
X79963671Y-105393712D01*
X80019137Y-105527622D01*
X80019138Y-105527624D01*
X80019139Y-105527625D01*
X80023875Y-105533798D01*
X80049070Y-105598965D01*
X80049500Y-105609284D01*
X80049500Y-105635500D01*
X80029815Y-105702539D01*
X79977011Y-105748294D01*
X79925500Y-105759500D01*
X79716552Y-105759500D01*
X79649513Y-105739815D01*
X79643671Y-105735821D01*
X79638346Y-105731953D01*
X79638343Y-105731951D01*
X79638342Y-105731950D01*
X79562481Y-105693297D01*
X79525301Y-105674352D01*
X79431524Y-105659500D01*
X77718482Y-105659500D01*
X77637519Y-105672323D01*
X77624696Y-105674354D01*
X77511658Y-105731950D01*
X77511657Y-105731951D01*
X77511652Y-105731954D01*
X77421954Y-105821652D01*
X77421951Y-105821657D01*
X77421950Y-105821658D01*
X77404306Y-105856287D01*
X77364352Y-105934698D01*
X77349500Y-106028475D01*
X77349500Y-106391517D01*
X77356636Y-106436572D01*
X77364354Y-106485304D01*
X77421950Y-106598342D01*
X77421952Y-106598344D01*
X77421954Y-106598347D01*
X77511652Y-106688045D01*
X77511654Y-106688046D01*
X77511658Y-106688050D01*
X77602851Y-106734515D01*
X77653647Y-106782490D01*
X77670442Y-106850311D01*
X77647904Y-106916446D01*
X77602852Y-106955484D01*
X77511658Y-107001950D01*
X77511657Y-107001951D01*
X77511653Y-107001953D01*
X77470428Y-107043180D01*
X77409105Y-107076666D01*
X77382746Y-107079500D01*
X76717273Y-107079500D01*
X76615410Y-107106793D01*
X76524087Y-107159520D01*
X76524084Y-107159522D01*
X75429522Y-108254084D01*
X75429520Y-108254087D01*
X75380231Y-108339458D01*
X75376793Y-108345412D01*
X75360937Y-108404588D01*
X75360937Y-108404589D01*
X75360936Y-108404588D01*
X75349500Y-108447269D01*
X75349500Y-109532745D01*
X75329815Y-109599784D01*
X75313181Y-109620426D01*
X74720426Y-110213181D01*
X74659103Y-110246666D01*
X74632745Y-110249500D01*
X73874500Y-110249500D01*
X73807461Y-110229815D01*
X73761706Y-110177011D01*
X73750500Y-110125500D01*
X73750500Y-107225323D01*
X73750499Y-107225321D01*
X73735967Y-107152264D01*
X73735966Y-107152260D01*
X73735150Y-107151039D01*
X73680601Y-107069399D01*
X73597740Y-107014034D01*
X73597739Y-107014033D01*
X73597735Y-107014032D01*
X73524677Y-106999500D01*
X73524674Y-106999500D01*
X70475326Y-106999500D01*
X70475323Y-106999500D01*
X70402264Y-107014032D01*
X70402260Y-107014033D01*
X70319399Y-107069399D01*
X70264033Y-107152260D01*
X70264032Y-107152264D01*
X70249500Y-107225321D01*
X70249500Y-107586202D01*
X70229815Y-107653241D01*
X70177011Y-107698996D01*
X70109315Y-107709141D01*
X70000002Y-107694750D01*
X69999999Y-107694750D01*
X69856291Y-107713670D01*
X69856287Y-107713671D01*
X69722377Y-107769137D01*
X69607379Y-107857379D01*
X69519137Y-107972377D01*
X69463671Y-108106287D01*
X69463670Y-108106291D01*
X69447978Y-108225485D01*
X69444750Y-108250000D01*
X69462768Y-108386861D01*
X69463670Y-108393708D01*
X69463671Y-108393712D01*
X69519137Y-108527622D01*
X69519138Y-108527624D01*
X69519139Y-108527625D01*
X69607379Y-108642621D01*
X69722375Y-108730861D01*
X69722376Y-108730861D01*
X69722377Y-108730862D01*
X69741989Y-108738985D01*
X69856291Y-108786330D01*
X69945436Y-108798066D01*
X70009331Y-108826331D01*
X70016931Y-108833323D01*
X70175179Y-108991571D01*
X70175200Y-108991594D01*
X70213180Y-109029573D01*
X70246666Y-109090895D01*
X70249500Y-109117255D01*
X70249500Y-110125500D01*
X70229815Y-110192539D01*
X70177011Y-110238294D01*
X70125500Y-110249500D01*
X69617255Y-110249500D01*
X69550216Y-110229815D01*
X69529574Y-110213181D01*
X68936819Y-109620426D01*
X68903334Y-109559103D01*
X68900500Y-109532745D01*
X68900500Y-108562729D01*
X68900501Y-108562716D01*
X68900501Y-108447274D01*
X68890385Y-108409523D01*
X68873207Y-108345413D01*
X68873206Y-108345412D01*
X68873206Y-108345410D01*
X68866559Y-108333898D01*
X68866557Y-108333896D01*
X68820480Y-108254087D01*
X68745913Y-108179520D01*
X68745912Y-108179519D01*
X68741582Y-108175189D01*
X68741571Y-108175179D01*
X67904073Y-107337681D01*
X67870588Y-107276358D01*
X67875572Y-107206666D01*
X67904073Y-107162319D01*
X68068491Y-106997901D01*
X68243816Y-106822575D01*
X68305136Y-106789093D01*
X68374827Y-106794077D01*
X68430761Y-106835948D01*
X68455178Y-106901413D01*
X68454433Y-106926443D01*
X68444750Y-106999996D01*
X68444750Y-106999999D01*
X68444750Y-107000000D01*
X68456816Y-107091652D01*
X68463670Y-107143708D01*
X68463671Y-107143712D01*
X68519137Y-107277622D01*
X68519138Y-107277624D01*
X68519139Y-107277625D01*
X68607379Y-107392621D01*
X68722375Y-107480861D01*
X68856291Y-107536330D01*
X68980836Y-107552727D01*
X68999999Y-107555250D01*
X69000000Y-107555250D01*
X69000001Y-107555250D01*
X69014977Y-107553278D01*
X69143709Y-107536330D01*
X69277625Y-107480861D01*
X69392621Y-107392621D01*
X69480861Y-107277625D01*
X69536330Y-107143709D01*
X69555250Y-107000000D01*
X69555249Y-106999996D01*
X69549389Y-106955483D01*
X69536330Y-106856291D01*
X69480861Y-106722375D01*
X69458611Y-106693378D01*
X69426124Y-106651039D01*
X69400930Y-106585869D01*
X69400500Y-106575553D01*
X69400500Y-104485104D01*
X69420185Y-104418065D01*
X69472989Y-104372310D01*
X69542147Y-104362366D01*
X69600057Y-104388812D01*
X69600932Y-104387673D01*
X69607377Y-104392618D01*
X69607379Y-104392621D01*
X69722375Y-104480861D01*
X69722376Y-104480861D01*
X69722377Y-104480862D01*
X69741989Y-104488985D01*
X69856291Y-104536330D01*
X69945436Y-104548066D01*
X70009331Y-104576331D01*
X70016931Y-104583323D01*
X70175179Y-104741571D01*
X70175200Y-104741594D01*
X70213180Y-104779573D01*
X70246666Y-104840895D01*
X70249500Y-104867255D01*
X70249500Y-106024675D01*
X70264032Y-106097735D01*
X70264033Y-106097739D01*
X70264034Y-106097740D01*
X70319399Y-106180601D01*
X70402260Y-106235966D01*
X70402264Y-106235967D01*
X70475321Y-106250499D01*
X70475324Y-106250500D01*
X70475326Y-106250500D01*
X73524676Y-106250500D01*
X73524677Y-106250499D01*
X73597740Y-106235966D01*
X73680601Y-106180601D01*
X73735966Y-106097740D01*
X73748125Y-106036614D01*
X73750500Y-106024675D01*
X73750500Y-103690000D01*
X77360851Y-103690000D01*
X77364833Y-103715143D01*
X77422360Y-103828046D01*
X77422363Y-103828050D01*
X77511949Y-103917636D01*
X77511953Y-103917639D01*
X77624855Y-103975166D01*
X77718514Y-103989999D01*
X78324999Y-103989999D01*
X78825000Y-103989999D01*
X79431479Y-103989999D01*
X79525149Y-103975164D01*
X79525155Y-103975162D01*
X79638041Y-103917643D01*
X79638050Y-103917636D01*
X79727636Y-103828050D01*
X79727639Y-103828046D01*
X79785166Y-103715143D01*
X79789149Y-103690000D01*
X78825000Y-103690000D01*
X78825000Y-103989999D01*
X78324999Y-103989999D01*
X78325000Y-103989998D01*
X78325000Y-103690000D01*
X77360851Y-103690000D01*
X73750500Y-103690000D01*
X73750500Y-102975323D01*
X73750499Y-102975321D01*
X73735967Y-102902264D01*
X73735966Y-102902260D01*
X73718718Y-102876446D01*
X73680601Y-102819399D01*
X73597740Y-102764034D01*
X73597739Y-102764033D01*
X73597735Y-102764032D01*
X73524677Y-102749500D01*
X73524674Y-102749500D01*
X70475326Y-102749500D01*
X70475323Y-102749500D01*
X70402264Y-102764032D01*
X70402260Y-102764033D01*
X70319399Y-102819399D01*
X70264033Y-102902260D01*
X70264032Y-102902264D01*
X70249500Y-102975321D01*
X70249500Y-103336202D01*
X70229815Y-103403241D01*
X70177011Y-103448996D01*
X70109315Y-103459141D01*
X70000002Y-103444750D01*
X69999999Y-103444750D01*
X69856291Y-103463670D01*
X69856287Y-103463671D01*
X69722377Y-103519137D01*
X69684247Y-103548395D01*
X69607379Y-103607379D01*
X69607377Y-103607381D01*
X69600932Y-103612327D01*
X69598981Y-103609784D01*
X69550858Y-103636062D01*
X69481166Y-103631078D01*
X69425233Y-103589206D01*
X69400816Y-103523742D01*
X69400500Y-103514896D01*
X69400500Y-102467254D01*
X69420185Y-102400215D01*
X69436819Y-102379573D01*
X69979573Y-101836819D01*
X70040896Y-101803334D01*
X70067254Y-101800500D01*
X75932745Y-101800500D01*
X75999784Y-101820185D01*
X76020426Y-101836819D01*
X76599519Y-102415912D01*
X76599520Y-102415913D01*
X76674087Y-102490480D01*
X76765413Y-102543207D01*
X76867273Y-102570500D01*
X77382746Y-102570500D01*
X77449785Y-102590185D01*
X77470428Y-102606820D01*
X77511653Y-102648046D01*
X77511656Y-102648048D01*
X77511658Y-102648050D01*
X77563403Y-102674415D01*
X77603401Y-102694796D01*
X77654196Y-102742770D01*
X77670991Y-102810591D01*
X77648453Y-102876726D01*
X77603401Y-102915764D01*
X77511956Y-102962358D01*
X77511949Y-102962363D01*
X77422363Y-103051949D01*
X77422360Y-103051953D01*
X77364833Y-103164856D01*
X77360851Y-103190000D01*
X79789148Y-103190000D01*
X79785166Y-103164856D01*
X79727639Y-103051953D01*
X79727636Y-103051949D01*
X79638050Y-102962363D01*
X79638045Y-102962360D01*
X79546598Y-102915765D01*
X79495802Y-102867790D01*
X79479007Y-102799969D01*
X79501544Y-102733834D01*
X79546594Y-102694797D01*
X79638342Y-102648050D01*
X79728050Y-102558342D01*
X79785646Y-102445304D01*
X79785646Y-102445302D01*
X79785647Y-102445301D01*
X79796939Y-102374000D01*
X79800500Y-102351519D01*
X79800499Y-101988482D01*
X79785646Y-101894696D01*
X79728050Y-101781658D01*
X79728046Y-101781654D01*
X79728045Y-101781652D01*
X79638347Y-101691954D01*
X79638343Y-101691951D01*
X79638342Y-101691950D01*
X79619776Y-101682490D01*
X79547147Y-101645483D01*
X79496352Y-101597509D01*
X79479557Y-101529687D01*
X79502095Y-101463553D01*
X79547145Y-101424517D01*
X79638342Y-101378050D01*
X79728050Y-101288342D01*
X79785646Y-101175304D01*
X79785646Y-101175302D01*
X79785647Y-101175301D01*
X79800499Y-101081524D01*
X79800500Y-101081519D01*
X79800499Y-100816964D01*
X79820183Y-100749926D01*
X79872987Y-100704171D01*
X79942146Y-100694227D01*
X80005701Y-100723252D01*
G37*
%TD.AperFunction*%
%TA.AperFunction,Conductor*%
G36*
X66849784Y-99670185D02*
G01*
X66870426Y-99686819D01*
X67563181Y-100379573D01*
X67596666Y-100440896D01*
X67599500Y-100467254D01*
X67599500Y-105282745D01*
X67579815Y-105349784D01*
X67563181Y-105370426D01*
X66870426Y-106063181D01*
X66809103Y-106096666D01*
X66782745Y-106099500D01*
X65524499Y-106099500D01*
X65457460Y-106079815D01*
X65411705Y-106027011D01*
X65400499Y-105975500D01*
X65400499Y-105886867D01*
X65400499Y-105886862D01*
X65394259Y-105839455D01*
X65376982Y-105802404D01*
X65366490Y-105733326D01*
X65376980Y-105697599D01*
X65394259Y-105660545D01*
X65400500Y-105613139D01*
X65400499Y-105386862D01*
X65394259Y-105339455D01*
X65376706Y-105301814D01*
X65366214Y-105232737D01*
X65376707Y-105197001D01*
X65393769Y-105160411D01*
X65395140Y-105150000D01*
X65282948Y-105150000D01*
X65230544Y-105138382D01*
X65174785Y-105112381D01*
X65122347Y-105066210D01*
X65103195Y-104999016D01*
X65123411Y-104932135D01*
X65174785Y-104887618D01*
X65230544Y-104861617D01*
X65282948Y-104850000D01*
X65395140Y-104850000D01*
X65395140Y-104849999D01*
X65393769Y-104839588D01*
X65376706Y-104802995D01*
X65366214Y-104733917D01*
X65376705Y-104698189D01*
X65394259Y-104660545D01*
X65400500Y-104613139D01*
X65400499Y-104386862D01*
X65394259Y-104339455D01*
X65345747Y-104235421D01*
X65264579Y-104154253D01*
X65160545Y-104105741D01*
X65160543Y-104105740D01*
X65160544Y-104105740D01*
X65113140Y-104099500D01*
X65113139Y-104099500D01*
X64937000Y-104099500D01*
X64869961Y-104079815D01*
X64824206Y-104027011D01*
X64813000Y-103975500D01*
X64813000Y-103599499D01*
X64832685Y-103532460D01*
X64885489Y-103486705D01*
X64937000Y-103475499D01*
X65245481Y-103475499D01*
X65245484Y-103475499D01*
X65302114Y-103469412D01*
X65430226Y-103421628D01*
X65539687Y-103339687D01*
X65621628Y-103230226D01*
X65634085Y-103196825D01*
X65675955Y-103140894D01*
X65741419Y-103116477D01*
X65809692Y-103131328D01*
X65859098Y-103180733D01*
X65866448Y-103196827D01*
X65878814Y-103229983D01*
X65878815Y-103229984D01*
X65960670Y-103339329D01*
X66070015Y-103421184D01*
X66070016Y-103421185D01*
X66197991Y-103468917D01*
X66197995Y-103468918D01*
X66254554Y-103474999D01*
X66775000Y-103474999D01*
X66795433Y-103474999D01*
X66795439Y-103474998D01*
X66852007Y-103468918D01*
X66979981Y-103421186D01*
X66979984Y-103421184D01*
X67089329Y-103339329D01*
X67171184Y-103229984D01*
X67171185Y-103229983D01*
X67218916Y-103102010D01*
X67224999Y-103045428D01*
X67225000Y-103045427D01*
X67225000Y-103000000D01*
X66775000Y-103000000D01*
X66775000Y-103474999D01*
X66254554Y-103474999D01*
X66275000Y-103474998D01*
X66275000Y-102500000D01*
X66775000Y-102500000D01*
X67224999Y-102500000D01*
X67224999Y-102454566D01*
X67224998Y-102454560D01*
X67218918Y-102397992D01*
X67171186Y-102270018D01*
X67171184Y-102270015D01*
X67089329Y-102160670D01*
X66979984Y-102078815D01*
X66979983Y-102078814D01*
X66852010Y-102031083D01*
X66795428Y-102025000D01*
X66775000Y-102025000D01*
X66775000Y-102500000D01*
X66275000Y-102500000D01*
X66275000Y-102024999D01*
X66254579Y-102025000D01*
X66254560Y-102025001D01*
X66197993Y-102031081D01*
X66070018Y-102078813D01*
X66070015Y-102078815D01*
X65960670Y-102160670D01*
X65878815Y-102270015D01*
X65878811Y-102270023D01*
X65866447Y-102303172D01*
X65824576Y-102359106D01*
X65759111Y-102383522D01*
X65690838Y-102368670D01*
X65641433Y-102319264D01*
X65634089Y-102303183D01*
X65621628Y-102269774D01*
X65621561Y-102269685D01*
X65595911Y-102235420D01*
X65539687Y-102160313D01*
X65430818Y-102078815D01*
X65425189Y-102074601D01*
X65383318Y-102018667D01*
X65375500Y-101975334D01*
X65375500Y-100922275D01*
X65375500Y-100922273D01*
X65357907Y-100856615D01*
X65348207Y-100820412D01*
X65295480Y-100729087D01*
X64428574Y-99862181D01*
X64395089Y-99800858D01*
X64400073Y-99731166D01*
X64441945Y-99675233D01*
X64507409Y-99650816D01*
X64516255Y-99650500D01*
X66782745Y-99650500D01*
X66849784Y-99670185D01*
G37*
%TD.AperFunction*%
%TA.AperFunction,Conductor*%
G36*
X55409980Y-100170185D02*
G01*
X55455735Y-100222989D01*
X55465679Y-100292147D01*
X55436654Y-100355703D01*
X55416576Y-100374269D01*
X55381034Y-100400500D01*
X55377850Y-100402850D01*
X55297207Y-100512117D01*
X55297206Y-100512119D01*
X55252353Y-100640298D01*
X55252353Y-100640300D01*
X55249500Y-100670730D01*
X55249500Y-101329269D01*
X55252353Y-101359699D01*
X55252353Y-101359701D01*
X55297206Y-101487880D01*
X55297207Y-101487882D01*
X55376567Y-101595412D01*
X55377851Y-101597151D01*
X55450191Y-101650540D01*
X55492442Y-101706187D01*
X55497901Y-101775843D01*
X55464834Y-101837393D01*
X55450193Y-101850079D01*
X55378208Y-101903207D01*
X55297653Y-102012354D01*
X55252850Y-102140395D01*
X55252850Y-102140399D01*
X55250000Y-102170793D01*
X55250000Y-102250000D01*
X56549999Y-102250000D01*
X56549999Y-102170803D01*
X56547148Y-102140393D01*
X56502346Y-102012354D01*
X56421792Y-101903207D01*
X56349807Y-101850080D01*
X56307556Y-101794432D01*
X56302098Y-101724776D01*
X56335166Y-101663227D01*
X56349796Y-101650549D01*
X56422150Y-101597150D01*
X56502793Y-101487882D01*
X56502794Y-101487880D01*
X56508311Y-101480405D01*
X56510618Y-101482107D01*
X56548890Y-101442772D01*
X56616953Y-101426986D01*
X56682746Y-101450504D01*
X56685289Y-101452404D01*
X56722375Y-101480861D01*
X56856291Y-101536330D01*
X56983280Y-101553048D01*
X56999999Y-101555250D01*
X57000000Y-101555250D01*
X57000001Y-101555250D01*
X57014977Y-101553278D01*
X57143709Y-101536330D01*
X57277625Y-101480861D01*
X57392621Y-101392621D01*
X57480861Y-101277625D01*
X57536330Y-101143709D01*
X57555250Y-101000000D01*
X57536330Y-100856291D01*
X57492273Y-100749926D01*
X57480862Y-100722377D01*
X57480861Y-100722376D01*
X57480861Y-100722375D01*
X57392621Y-100607379D01*
X57277625Y-100519139D01*
X57277624Y-100519138D01*
X57277622Y-100519137D01*
X57143712Y-100463671D01*
X57143710Y-100463670D01*
X57143709Y-100463670D01*
X57071854Y-100454210D01*
X57000001Y-100444750D01*
X56999999Y-100444750D01*
X56856291Y-100463670D01*
X56856287Y-100463671D01*
X56722376Y-100519138D01*
X56722375Y-100519138D01*
X56685288Y-100547596D01*
X56620118Y-100572789D01*
X56551674Y-100558750D01*
X56510171Y-100518222D01*
X56508311Y-100519595D01*
X56502792Y-100512117D01*
X56422150Y-100402850D01*
X56383424Y-100374269D01*
X56341175Y-100318622D01*
X56335716Y-100248966D01*
X56368784Y-100187417D01*
X56429878Y-100153516D01*
X56457059Y-100150500D01*
X57532745Y-100150500D01*
X57599784Y-100170185D01*
X57620426Y-100186819D01*
X58754087Y-101320480D01*
X58813723Y-101354911D01*
X58845408Y-101373205D01*
X58845412Y-101373207D01*
X58947273Y-101400500D01*
X60782745Y-101400500D01*
X60849784Y-101420185D01*
X60870426Y-101436819D01*
X61166675Y-101733068D01*
X61200160Y-101794391D01*
X61201933Y-101804563D01*
X61213670Y-101893709D01*
X61222859Y-101915893D01*
X61227894Y-101928049D01*
X61235362Y-101997518D01*
X61204086Y-102059997D01*
X61143997Y-102095649D01*
X61113333Y-102099500D01*
X60886868Y-102099500D01*
X60876341Y-102100885D01*
X60839455Y-102105741D01*
X60839453Y-102105742D01*
X60839451Y-102105742D01*
X60802403Y-102123018D01*
X60733325Y-102133509D01*
X60697596Y-102123018D01*
X60688269Y-102118669D01*
X60660545Y-102105741D01*
X60660541Y-102105740D01*
X60613140Y-102099500D01*
X60386868Y-102099500D01*
X60376341Y-102100885D01*
X60339455Y-102105741D01*
X60339453Y-102105742D01*
X60339451Y-102105742D01*
X60302403Y-102123018D01*
X60233325Y-102133509D01*
X60197596Y-102123018D01*
X60188269Y-102118669D01*
X60160545Y-102105741D01*
X60160541Y-102105740D01*
X60113140Y-102099500D01*
X59886868Y-102099500D01*
X59876341Y-102100885D01*
X59839455Y-102105741D01*
X59839453Y-102105742D01*
X59839451Y-102105742D01*
X59802403Y-102123018D01*
X59733325Y-102133509D01*
X59697596Y-102123018D01*
X59688269Y-102118669D01*
X59660545Y-102105741D01*
X59660541Y-102105740D01*
X59613140Y-102099500D01*
X59386868Y-102099500D01*
X59376341Y-102100885D01*
X59339455Y-102105741D01*
X59339453Y-102105742D01*
X59339451Y-102105742D01*
X59302403Y-102123018D01*
X59233325Y-102133509D01*
X59197596Y-102123018D01*
X59188269Y-102118669D01*
X59160545Y-102105741D01*
X59160541Y-102105740D01*
X59113140Y-102099500D01*
X58886868Y-102099500D01*
X58876341Y-102100885D01*
X58839455Y-102105741D01*
X58839453Y-102105742D01*
X58839451Y-102105742D01*
X58802403Y-102123018D01*
X58733325Y-102133509D01*
X58697596Y-102123018D01*
X58688269Y-102118669D01*
X58660545Y-102105741D01*
X58660541Y-102105740D01*
X58613140Y-102099500D01*
X58386867Y-102099500D01*
X58339453Y-102105741D01*
X58301812Y-102123294D01*
X58232734Y-102133785D01*
X58197004Y-102123293D01*
X58160415Y-102106231D01*
X58150000Y-102104859D01*
X58150000Y-102217050D01*
X58138382Y-102269455D01*
X58112382Y-102325212D01*
X58066210Y-102377651D01*
X57999016Y-102396803D01*
X57932135Y-102376587D01*
X57887618Y-102325212D01*
X57861618Y-102269455D01*
X57850000Y-102217050D01*
X57850000Y-102104860D01*
X57849999Y-102104859D01*
X57839590Y-102106230D01*
X57839585Y-102106231D01*
X57802994Y-102123294D01*
X57733916Y-102133785D01*
X57698186Y-102123293D01*
X57660544Y-102105740D01*
X57613140Y-102099500D01*
X57386867Y-102099500D01*
X57371839Y-102101478D01*
X57339455Y-102105741D01*
X57339453Y-102105742D01*
X57339451Y-102105742D01*
X57235420Y-102154253D01*
X57154253Y-102235420D01*
X57105740Y-102339456D01*
X57099500Y-102386860D01*
X57099500Y-103782745D01*
X57079815Y-103849784D01*
X57063181Y-103870426D01*
X56870426Y-104063181D01*
X56809103Y-104096666D01*
X56782745Y-104099500D01*
X53945445Y-104099500D01*
X53883445Y-104082887D01*
X53829591Y-104051794D01*
X53829588Y-104051793D01*
X53727727Y-104024500D01*
X53727726Y-104024500D01*
X53499529Y-104024500D01*
X53432490Y-104004815D01*
X53399759Y-103974133D01*
X53347151Y-103902851D01*
X53331173Y-103891059D01*
X53237882Y-103822207D01*
X53237880Y-103822206D01*
X53109700Y-103777353D01*
X53079270Y-103774500D01*
X53079266Y-103774500D01*
X52420734Y-103774500D01*
X52420730Y-103774500D01*
X52390300Y-103777353D01*
X52390298Y-103777353D01*
X52262119Y-103822206D01*
X52262117Y-103822207D01*
X52152848Y-103902851D01*
X52100241Y-103974133D01*
X52044594Y-104016384D01*
X52000471Y-104024500D01*
X51987236Y-104024500D01*
X51920197Y-104004815D01*
X51887969Y-103974811D01*
X51839687Y-103910313D01*
X51747969Y-103841654D01*
X51730228Y-103828373D01*
X51730226Y-103828372D01*
X51602114Y-103780588D01*
X51602112Y-103780587D01*
X51602110Y-103780587D01*
X51545493Y-103774500D01*
X50954518Y-103774500D01*
X50954509Y-103774501D01*
X50897885Y-103780587D01*
X50769771Y-103828373D01*
X50698810Y-103881494D01*
X50633346Y-103905911D01*
X50565073Y-103891059D01*
X50515668Y-103841654D01*
X50500500Y-103782227D01*
X50500500Y-103273292D01*
X50520185Y-103206253D01*
X50572989Y-103160498D01*
X50642147Y-103150554D01*
X50686209Y-103168809D01*
X50687233Y-103166935D01*
X50695016Y-103171185D01*
X50822991Y-103218917D01*
X50822995Y-103218918D01*
X50879554Y-103224999D01*
X50900000Y-103224998D01*
X50900000Y-102374000D01*
X50919685Y-102306961D01*
X50972489Y-102261206D01*
X51024000Y-102250000D01*
X51276000Y-102250000D01*
X51343039Y-102269685D01*
X51388794Y-102322489D01*
X51400000Y-102374000D01*
X51400000Y-103224999D01*
X51420433Y-103224999D01*
X51420439Y-103224998D01*
X51477007Y-103218918D01*
X51604981Y-103171186D01*
X51604984Y-103171184D01*
X51714329Y-103089329D01*
X51796184Y-102979984D01*
X51796185Y-102979983D01*
X51808550Y-102946830D01*
X51850420Y-102890895D01*
X51915884Y-102866477D01*
X51984158Y-102881328D01*
X52033564Y-102930732D01*
X52040914Y-102946826D01*
X52051543Y-102975323D01*
X52053372Y-102980226D01*
X52135313Y-103089687D01*
X52203718Y-103140894D01*
X52244183Y-103171186D01*
X52244774Y-103171628D01*
X52372886Y-103219412D01*
X52429515Y-103225500D01*
X52970484Y-103225499D01*
X53027114Y-103219412D01*
X53155226Y-103171628D01*
X53264687Y-103089687D01*
X53346628Y-102980226D01*
X53380429Y-102889601D01*
X53422299Y-102833672D01*
X53487763Y-102809255D01*
X53556036Y-102824107D01*
X53605441Y-102873512D01*
X53613650Y-102891983D01*
X53642638Y-102974824D01*
X53647207Y-102987882D01*
X53727850Y-103097150D01*
X53837118Y-103177793D01*
X53872004Y-103190000D01*
X53965299Y-103222646D01*
X53995730Y-103225500D01*
X53995734Y-103225500D01*
X54504270Y-103225500D01*
X54534699Y-103222646D01*
X54534701Y-103222646D01*
X54608483Y-103196828D01*
X54662882Y-103177793D01*
X54772150Y-103097150D01*
X54852793Y-102987882D01*
X54882752Y-102902264D01*
X54897646Y-102859701D01*
X54897646Y-102859699D01*
X54900500Y-102829269D01*
X54900500Y-102829196D01*
X55250001Y-102829196D01*
X55252851Y-102859606D01*
X55297653Y-102987645D01*
X55378207Y-103096792D01*
X55487354Y-103177346D01*
X55615397Y-103222149D01*
X55645793Y-103224999D01*
X55649999Y-103224999D01*
X56150000Y-103224999D01*
X56154196Y-103224999D01*
X56184606Y-103222148D01*
X56312645Y-103177346D01*
X56421792Y-103096792D01*
X56502346Y-102987645D01*
X56547149Y-102859604D01*
X56547149Y-102859600D01*
X56550000Y-102829206D01*
X56550000Y-102750000D01*
X56150000Y-102750000D01*
X56150000Y-103224999D01*
X55649999Y-103224999D01*
X55650000Y-103224998D01*
X55650000Y-102750000D01*
X55250001Y-102750000D01*
X55250001Y-102829196D01*
X54900500Y-102829196D01*
X54900500Y-102170730D01*
X54897646Y-102140300D01*
X54897646Y-102140298D01*
X54857301Y-102025001D01*
X54852793Y-102012118D01*
X54812857Y-101958006D01*
X54788887Y-101892380D01*
X54789688Y-101868197D01*
X54805250Y-101750000D01*
X54789689Y-101631807D01*
X54800454Y-101562775D01*
X54812854Y-101541996D01*
X54852793Y-101487882D01*
X54874966Y-101424515D01*
X54897646Y-101359701D01*
X54897646Y-101359699D01*
X54900500Y-101329269D01*
X54900500Y-100670730D01*
X54897646Y-100640300D01*
X54897646Y-100640298D01*
X54855409Y-100519595D01*
X54852793Y-100512118D01*
X54772150Y-100402850D01*
X54733424Y-100374269D01*
X54691175Y-100318622D01*
X54685716Y-100248966D01*
X54718784Y-100187417D01*
X54779878Y-100153516D01*
X54807059Y-100150500D01*
X55342941Y-100150500D01*
X55409980Y-100170185D01*
G37*
%TD.AperFunction*%
%TA.AperFunction,Conductor*%
G36*
X61200784Y-96270185D02*
G01*
X61246539Y-96322989D01*
X61256483Y-96392147D01*
X61227458Y-96455703D01*
X61221426Y-96462181D01*
X60179522Y-97504084D01*
X60179520Y-97504087D01*
X60174662Y-97512500D01*
X60124097Y-97560715D01*
X60067276Y-97574500D01*
X59800323Y-97574500D01*
X59727264Y-97589032D01*
X59727260Y-97589033D01*
X59644399Y-97644399D01*
X59589033Y-97727260D01*
X59589032Y-97727264D01*
X59574500Y-97800321D01*
X59574500Y-98047312D01*
X59554815Y-98114351D01*
X59502011Y-98160106D01*
X59432853Y-98170050D01*
X59369297Y-98141025D01*
X59343113Y-98109312D01*
X59264406Y-97972989D01*
X59252870Y-97953008D01*
X59241160Y-97940003D01*
X59122697Y-97808435D01*
X59122694Y-97808433D01*
X59122693Y-97808432D01*
X59122692Y-97808431D01*
X59029733Y-97740892D01*
X58965297Y-97694076D01*
X58808383Y-97624215D01*
X58787571Y-97614949D01*
X58787569Y-97614948D01*
X58597274Y-97574500D01*
X58402726Y-97574500D01*
X58212431Y-97614948D01*
X58034702Y-97694076D01*
X57877305Y-97808433D01*
X57877302Y-97808435D01*
X57747129Y-97953009D01*
X57649857Y-98121488D01*
X57649856Y-98121490D01*
X57617668Y-98220557D01*
X57578231Y-98278232D01*
X57513872Y-98305431D01*
X57445026Y-98293516D01*
X57393550Y-98246272D01*
X57381806Y-98220557D01*
X57349686Y-98121701D01*
X57349683Y-98121695D01*
X57252463Y-97953305D01*
X57122360Y-97808809D01*
X57122357Y-97808807D01*
X56965051Y-97694516D01*
X56787412Y-97615426D01*
X56750000Y-97607473D01*
X56750000Y-98184314D01*
X56745606Y-98179920D01*
X56654394Y-98127259D01*
X56552661Y-98100000D01*
X56447339Y-98100000D01*
X56345606Y-98127259D01*
X56254394Y-98179920D01*
X56250000Y-98184314D01*
X56250000Y-97607473D01*
X56212585Y-97615426D01*
X56212580Y-97615428D01*
X56034953Y-97694513D01*
X55877643Y-97808806D01*
X55747536Y-97953305D01*
X55650316Y-98121695D01*
X55650314Y-98121699D01*
X55618193Y-98220558D01*
X55578755Y-98278233D01*
X55514396Y-98305431D01*
X55445550Y-98293516D01*
X55394074Y-98246272D01*
X55382332Y-98220558D01*
X55350144Y-98121492D01*
X55252870Y-97953008D01*
X55181017Y-97873207D01*
X55122697Y-97808435D01*
X55122694Y-97808433D01*
X55122693Y-97808432D01*
X55122692Y-97808431D01*
X55029733Y-97740892D01*
X54965297Y-97694076D01*
X54808383Y-97624215D01*
X54787571Y-97614949D01*
X54787569Y-97614948D01*
X54597274Y-97574500D01*
X54402726Y-97574500D01*
X54212431Y-97614948D01*
X54034702Y-97694076D01*
X53877305Y-97808433D01*
X53877302Y-97808435D01*
X53747129Y-97953009D01*
X53649857Y-98121488D01*
X53649856Y-98121489D01*
X53617931Y-98219748D01*
X53578494Y-98277423D01*
X53514135Y-98304622D01*
X53445289Y-98292708D01*
X53393813Y-98245464D01*
X53382069Y-98219748D01*
X53350143Y-98121489D01*
X53350142Y-98121488D01*
X53294146Y-98024500D01*
X53252870Y-97953008D01*
X53181017Y-97873207D01*
X53122697Y-97808435D01*
X53122694Y-97808433D01*
X53122693Y-97808432D01*
X53122692Y-97808431D01*
X53029733Y-97740892D01*
X52965297Y-97694076D01*
X52808383Y-97624215D01*
X52787571Y-97614949D01*
X52787569Y-97614948D01*
X52597274Y-97574500D01*
X52402726Y-97574500D01*
X52212431Y-97614948D01*
X52034702Y-97694076D01*
X51877305Y-97808433D01*
X51877302Y-97808435D01*
X51747129Y-97953009D01*
X51649857Y-98121488D01*
X51649856Y-98121489D01*
X51589738Y-98306516D01*
X51569402Y-98500000D01*
X51589738Y-98693483D01*
X51649856Y-98878510D01*
X51649857Y-98878511D01*
X51704051Y-98972377D01*
X51747130Y-99046992D01*
X51788934Y-99093420D01*
X51877302Y-99191564D01*
X51877305Y-99191566D01*
X51877308Y-99191569D01*
X51989023Y-99272735D01*
X52034702Y-99305923D01*
X52085457Y-99328520D01*
X52212429Y-99385051D01*
X52402726Y-99425500D01*
X52597274Y-99425500D01*
X52787571Y-99385051D01*
X52965299Y-99305922D01*
X53122692Y-99191569D01*
X53252870Y-99046992D01*
X53350144Y-98878508D01*
X53382069Y-98780252D01*
X53421506Y-98722576D01*
X53485864Y-98695377D01*
X53554711Y-98707291D01*
X53606187Y-98754535D01*
X53617931Y-98780252D01*
X53649855Y-98878507D01*
X53649857Y-98878511D01*
X53704051Y-98972377D01*
X53747130Y-99046992D01*
X53788934Y-99093420D01*
X53877302Y-99191564D01*
X53877305Y-99191566D01*
X53877308Y-99191569D01*
X54034701Y-99305922D01*
X54034708Y-99305925D01*
X54037497Y-99307536D01*
X54038792Y-99308894D01*
X54039959Y-99309742D01*
X54039803Y-99309955D01*
X54085714Y-99358102D01*
X54099500Y-99414925D01*
X54099500Y-99447273D01*
X54099500Y-99552727D01*
X54106285Y-99578050D01*
X54126793Y-99654589D01*
X54145402Y-99686819D01*
X54179520Y-99745913D01*
X54179522Y-99745915D01*
X54496426Y-100062819D01*
X54529911Y-100124142D01*
X54524927Y-100193834D01*
X54483055Y-100249767D01*
X54417591Y-100274184D01*
X54408745Y-100274500D01*
X53995730Y-100274500D01*
X53965300Y-100277353D01*
X53965298Y-100277353D01*
X53837119Y-100322206D01*
X53837117Y-100322207D01*
X53727850Y-100402850D01*
X53647206Y-100512118D01*
X53647205Y-100512121D01*
X53645690Y-100516452D01*
X53604970Y-100573229D01*
X53540018Y-100598978D01*
X53528648Y-100599500D01*
X53471352Y-100599500D01*
X53404313Y-100579815D01*
X53358558Y-100527011D01*
X53354310Y-100516452D01*
X53352794Y-100512121D01*
X53352793Y-100512118D01*
X53349500Y-100507656D01*
X53272150Y-100402850D01*
X53162882Y-100322207D01*
X53162880Y-100322206D01*
X53034700Y-100277353D01*
X53004270Y-100274500D01*
X53004266Y-100274500D01*
X52495734Y-100274500D01*
X52495730Y-100274500D01*
X52465300Y-100277353D01*
X52465298Y-100277353D01*
X52337119Y-100322206D01*
X52337117Y-100322207D01*
X52227850Y-100402850D01*
X52147207Y-100512117D01*
X52147206Y-100512119D01*
X52102353Y-100640298D01*
X52102353Y-100640300D01*
X52099500Y-100670730D01*
X52099500Y-101329269D01*
X52102353Y-101359699D01*
X52102353Y-101359701D01*
X52147206Y-101487880D01*
X52147207Y-101487882D01*
X52227850Y-101597150D01*
X52258703Y-101619920D01*
X52300954Y-101675566D01*
X52306413Y-101745222D01*
X52273347Y-101806772D01*
X52251828Y-101822996D01*
X52251874Y-101823057D01*
X52135313Y-101910313D01*
X52053372Y-102019772D01*
X52040914Y-102053174D01*
X51999041Y-102109107D01*
X51933576Y-102133522D01*
X51865304Y-102118669D01*
X51815899Y-102069262D01*
X51808551Y-102053170D01*
X51796187Y-102020020D01*
X51796184Y-102020015D01*
X51714329Y-101910670D01*
X51597884Y-101823500D01*
X51598661Y-101822461D01*
X51555648Y-101779444D01*
X51540798Y-101711170D01*
X51565218Y-101645707D01*
X51590844Y-101620254D01*
X51622150Y-101597150D01*
X51702793Y-101487882D01*
X51736126Y-101392621D01*
X51747646Y-101359701D01*
X51747646Y-101359699D01*
X51750500Y-101329269D01*
X51750500Y-100670730D01*
X51747646Y-100640300D01*
X51747646Y-100640298D01*
X51705409Y-100519595D01*
X51702793Y-100512118D01*
X51622150Y-100402850D01*
X51512882Y-100322207D01*
X51512880Y-100322206D01*
X51384700Y-100277353D01*
X51354270Y-100274500D01*
X51354266Y-100274500D01*
X50845734Y-100274500D01*
X50845730Y-100274500D01*
X50815300Y-100277353D01*
X50815298Y-100277353D01*
X50687116Y-100322207D01*
X50682434Y-100324682D01*
X50613964Y-100338600D01*
X50548840Y-100313290D01*
X50507737Y-100256789D01*
X50500500Y-100215048D01*
X50500500Y-96374500D01*
X50520185Y-96307461D01*
X50572989Y-96261706D01*
X50624500Y-96250500D01*
X61133745Y-96250500D01*
X61200784Y-96270185D01*
G37*
%TD.AperFunction*%
%TD*%
%TA.AperFunction,Conductor*%
%TO.N,/PHASE_A*%
G36*
X103193039Y-101019685D02*
G01*
X103238794Y-101072489D01*
X103250000Y-101124000D01*
X103250000Y-105376000D01*
X103230315Y-105443039D01*
X103177511Y-105488794D01*
X103126000Y-105500000D01*
X97006083Y-105500000D01*
X96958631Y-105490561D01*
X96893712Y-105463671D01*
X96893710Y-105463670D01*
X96893709Y-105463670D01*
X96821854Y-105454210D01*
X96750001Y-105444750D01*
X96749999Y-105444750D01*
X96606291Y-105463670D01*
X96606287Y-105463671D01*
X96541369Y-105490561D01*
X96493917Y-105500000D01*
X91551362Y-105500000D01*
X91484323Y-105480315D01*
X91463681Y-105463681D01*
X91036319Y-105036319D01*
X91002834Y-104974996D01*
X91000000Y-104948638D01*
X91000000Y-101551362D01*
X91019685Y-101484323D01*
X91036319Y-101463681D01*
X91463681Y-101036319D01*
X91525004Y-101002834D01*
X91551362Y-101000000D01*
X103126000Y-101000000D01*
X103193039Y-101019685D01*
G37*
%TD.AperFunction*%
%TD*%
%TA.AperFunction,Conductor*%
%TO.N,/PHASE_B*%
G36*
X102529495Y-107269685D02*
G01*
X102531239Y-107270826D01*
X103194784Y-107713189D01*
X103239644Y-107766753D01*
X103250000Y-107816362D01*
X103250000Y-111876000D01*
X103230315Y-111943039D01*
X103177511Y-111988794D01*
X103126000Y-112000000D01*
X102750000Y-112000000D01*
X97006083Y-112000000D01*
X96958631Y-111990561D01*
X96893712Y-111963671D01*
X96893710Y-111963670D01*
X96893709Y-111963670D01*
X96821854Y-111954210D01*
X96750001Y-111944750D01*
X96749999Y-111944750D01*
X96606291Y-111963670D01*
X96606287Y-111963671D01*
X96541369Y-111990561D01*
X96493917Y-112000000D01*
X91500000Y-112000000D01*
X90874000Y-112000000D01*
X90806961Y-111980315D01*
X90761206Y-111927511D01*
X90750000Y-111876000D01*
X90750000Y-107801362D01*
X90769685Y-107734323D01*
X90786319Y-107713681D01*
X91213681Y-107286319D01*
X91275004Y-107252834D01*
X91301362Y-107250000D01*
X102462456Y-107250000D01*
X102529495Y-107269685D01*
G37*
%TD.AperFunction*%
%TD*%
%TA.AperFunction,Conductor*%
%TO.N,/PHASE_C*%
G36*
X103015677Y-113519685D02*
G01*
X103036319Y-113536319D01*
X103463181Y-113963181D01*
X103496666Y-114024504D01*
X103499500Y-114050862D01*
X103499500Y-117949138D01*
X103479815Y-118016177D01*
X103463181Y-118036819D01*
X103036319Y-118463681D01*
X102974996Y-118497166D01*
X102948638Y-118500000D01*
X91787544Y-118500000D01*
X91720505Y-118480315D01*
X91718761Y-118479174D01*
X91055217Y-118036811D01*
X91010356Y-117983246D01*
X91000000Y-117933637D01*
X91000000Y-114051362D01*
X91019685Y-113984323D01*
X91036319Y-113963681D01*
X91463681Y-113536319D01*
X91525004Y-113502834D01*
X91551362Y-113500000D01*
X102948638Y-113500000D01*
X103015677Y-113519685D01*
G37*
%TD.AperFunction*%
%TD*%
M02*
