%TF.GenerationSoftware,KiCad,Pcbnew,8.0.5*%
%TF.CreationDate,2025-03-16T21:49:30+05:30*%
%TF.ProjectId,bldc,626c6463-2e6b-4696-9361-645f70636258,rev?*%
%TF.SameCoordinates,Original*%
%TF.FileFunction,Paste,Top*%
%TF.FilePolarity,Positive*%
%FSLAX46Y46*%
G04 Gerber Fmt 4.6, Leading zero omitted, Abs format (unit mm)*
G04 Created by KiCad (PCBNEW 8.0.5) date 2025-03-16 21:49:30*
%MOMM*%
%LPD*%
G01*
G04 APERTURE LIST*
G04 Aperture macros list*
%AMRoundRect*
0 Rectangle with rounded corners*
0 $1 Rounding radius*
0 $2 $3 $4 $5 $6 $7 $8 $9 X,Y pos of 4 corners*
0 Add a 4 corners polygon primitive as box body*
4,1,4,$2,$3,$4,$5,$6,$7,$8,$9,$2,$3,0*
0 Add four circle primitives for the rounded corners*
1,1,$1+$1,$2,$3*
1,1,$1+$1,$4,$5*
1,1,$1+$1,$6,$7*
1,1,$1+$1,$8,$9*
0 Add four rect primitives between the rounded corners*
20,1,$1+$1,$2,$3,$4,$5,0*
20,1,$1+$1,$4,$5,$6,$7,0*
20,1,$1+$1,$6,$7,$8,$9,0*
20,1,$1+$1,$8,$9,$2,$3,0*%
G04 Aperture macros list end*
%ADD10R,6.000000X4.000000*%
%ADD11R,0.450000X1.150000*%
%ADD12RoundRect,0.225000X0.250000X-0.225000X0.250000X0.225000X-0.250000X0.225000X-0.250000X-0.225000X0*%
%ADD13RoundRect,0.225000X0.225000X0.250000X-0.225000X0.250000X-0.225000X-0.250000X0.225000X-0.250000X0*%
%ADD14RoundRect,0.225000X-0.225000X-0.250000X0.225000X-0.250000X0.225000X0.250000X-0.225000X0.250000X0*%
%ADD15RoundRect,0.225000X-0.250000X0.225000X-0.250000X-0.225000X0.250000X-0.225000X0.250000X0.225000X0*%
%ADD16RoundRect,0.150000X-0.825000X-0.150000X0.825000X-0.150000X0.825000X0.150000X-0.825000X0.150000X0*%
%ADD17RoundRect,0.375000X0.625000X0.375000X-0.625000X0.375000X-0.625000X-0.375000X0.625000X-0.375000X0*%
%ADD18RoundRect,0.500000X0.500000X1.400000X-0.500000X1.400000X-0.500000X-1.400000X0.500000X-1.400000X0*%
%ADD19RoundRect,0.200000X0.275000X-0.200000X0.275000X0.200000X-0.275000X0.200000X-0.275000X-0.200000X0*%
%ADD20RoundRect,0.200000X0.200000X0.275000X-0.200000X0.275000X-0.200000X-0.275000X0.200000X-0.275000X0*%
%ADD21RoundRect,0.200000X-0.200000X-0.275000X0.200000X-0.275000X0.200000X0.275000X-0.200000X0.275000X0*%
%ADD22RoundRect,0.200000X-0.275000X0.200000X-0.275000X-0.200000X0.275000X-0.200000X0.275000X0.200000X0*%
%ADD23R,2.000000X2.500000*%
%ADD24RoundRect,0.218750X-0.218750X-0.256250X0.218750X-0.256250X0.218750X0.256250X-0.218750X0.256250X0*%
%ADD25RoundRect,0.075000X-0.662500X-0.075000X0.662500X-0.075000X0.662500X0.075000X-0.662500X0.075000X0*%
%ADD26RoundRect,0.075000X-0.075000X-0.662500X0.075000X-0.662500X0.075000X0.662500X-0.075000X0.662500X0*%
%ADD27RoundRect,0.100000X-0.275000X-0.100000X0.275000X-0.100000X0.275000X0.100000X-0.275000X0.100000X0*%
%ADD28RoundRect,0.125000X-0.250000X-0.125000X0.250000X-0.125000X0.250000X0.125000X-0.250000X0.125000X0*%
%ADD29RoundRect,0.375000X-0.375000X-0.375000X0.375000X-0.375000X0.375000X0.375000X-0.375000X0.375000X0*%
G04 APERTURE END LIST*
D10*
%TO.C,TP3*%
X100000000Y-116000000D03*
%TD*%
%TO.C,TP2*%
X100000000Y-109750000D03*
%TD*%
%TO.C,TP1*%
X100000000Y-103250000D03*
%TD*%
D11*
%TO.C,IC1*%
X79725000Y-119450000D03*
X79075000Y-119450000D03*
X78425000Y-119450000D03*
X77775000Y-119450000D03*
X77775000Y-122050000D03*
X78425000Y-122050000D03*
X79075000Y-122050000D03*
X79725000Y-122050000D03*
%TD*%
D12*
%TO.C,C15*%
X51250000Y-104475000D03*
X51250000Y-106025000D03*
%TD*%
D13*
%TO.C,C14*%
X70275000Y-117500000D03*
X68725000Y-117500000D03*
%TD*%
D14*
%TO.C,C12*%
X80775000Y-123750000D03*
X79225000Y-123750000D03*
%TD*%
D13*
%TO.C,C11*%
X64975000Y-102750000D03*
X66525000Y-102750000D03*
%TD*%
%TO.C,C10*%
X51200000Y-114750000D03*
X52750000Y-114750000D03*
%TD*%
D15*
%TO.C,C9*%
X83250000Y-122025000D03*
X83250000Y-120475000D03*
%TD*%
%TO.C,C8*%
X52750000Y-112350000D03*
X52750000Y-110800000D03*
%TD*%
D13*
%TO.C,C7*%
X51150000Y-102500000D03*
X52700000Y-102500000D03*
%TD*%
D15*
%TO.C,C5*%
X85750000Y-114275000D03*
X85750000Y-112725000D03*
%TD*%
D13*
%TO.C,C4*%
X83225000Y-123750000D03*
X84775000Y-123750000D03*
%TD*%
D15*
%TO.C,C3*%
X85750000Y-106225000D03*
X85750000Y-107775000D03*
%TD*%
%TO.C,C2*%
X85750000Y-101525000D03*
X85750000Y-99975000D03*
%TD*%
D12*
%TO.C,C1*%
X57500000Y-116475000D03*
X57500000Y-118025000D03*
%TD*%
D16*
%TO.C,U4*%
X78575000Y-112790000D03*
X78575000Y-114060000D03*
X78575000Y-115330000D03*
X78575000Y-116600000D03*
X83525000Y-116600000D03*
X83525000Y-115330000D03*
X83525000Y-114060000D03*
X83525000Y-112790000D03*
%TD*%
%TO.C,U3*%
X78575000Y-106210000D03*
X78575000Y-107480000D03*
X78575000Y-108750000D03*
X78575000Y-110020000D03*
X83525000Y-110020000D03*
X83525000Y-108750000D03*
X83525000Y-107480000D03*
X83525000Y-106210000D03*
%TD*%
%TO.C,U2*%
X78575000Y-99630000D03*
X78575000Y-100900000D03*
X78575000Y-102170000D03*
X78575000Y-103440000D03*
X83525000Y-103440000D03*
X83525000Y-102170000D03*
X83525000Y-100900000D03*
X83525000Y-99630000D03*
%TD*%
D17*
%TO.C,U1*%
X65900000Y-115200000D03*
D18*
X59600000Y-117500000D03*
D17*
X65900000Y-117500000D03*
X65900000Y-119800000D03*
%TD*%
D19*
%TO.C,R28*%
X52750000Y-104425000D03*
X52750000Y-106075000D03*
%TD*%
D20*
%TO.C,R27*%
X51150000Y-116250000D03*
X52800000Y-116250000D03*
%TD*%
D21*
%TO.C,R26*%
X55800000Y-114750000D03*
X54150000Y-114750000D03*
%TD*%
D20*
%TO.C,R25*%
X54125000Y-116250000D03*
X55775000Y-116250000D03*
%TD*%
D19*
%TO.C,R24*%
X52750000Y-107400000D03*
X52750000Y-109050000D03*
%TD*%
%TO.C,R23*%
X51250000Y-107400000D03*
X51250000Y-109050000D03*
%TD*%
%TO.C,R22*%
X51250000Y-110750000D03*
X51250000Y-112400000D03*
%TD*%
D20*
%TO.C,R21*%
X51100000Y-101000000D03*
X52750000Y-101000000D03*
%TD*%
D21*
%TO.C,R20*%
X55900000Y-102500000D03*
X54250000Y-102500000D03*
%TD*%
D20*
%TO.C,R19*%
X54250000Y-101000000D03*
X55900000Y-101000000D03*
%TD*%
D19*
%TO.C,R17*%
X86750000Y-120425000D03*
X86750000Y-122075000D03*
%TD*%
D22*
%TO.C,R16*%
X85000000Y-122075000D03*
X85000000Y-120425000D03*
%TD*%
D21*
%TO.C,R15*%
X83075000Y-119000000D03*
X81425000Y-119000000D03*
%TD*%
D19*
%TO.C,R14*%
X81500000Y-120425000D03*
X81500000Y-122075000D03*
%TD*%
D21*
%TO.C,R13*%
X74675000Y-117500000D03*
X76325000Y-117500000D03*
%TD*%
%TO.C,R12*%
X73325000Y-117500000D03*
X71675000Y-117500000D03*
%TD*%
D20*
%TO.C,R10*%
X66425000Y-98000000D03*
X68075000Y-98000000D03*
%TD*%
D21*
%TO.C,R9*%
X88075000Y-123750000D03*
X86425000Y-123750000D03*
%TD*%
%TO.C,R6*%
X87575000Y-118000000D03*
X85925000Y-118000000D03*
%TD*%
%TO.C,R4*%
X87325000Y-110750000D03*
X85675000Y-110750000D03*
%TD*%
%TO.C,R2*%
X87400000Y-103500000D03*
X85750000Y-103500000D03*
%TD*%
D23*
%TO.C,L1*%
X69500000Y-121500000D03*
X74500000Y-121500000D03*
%TD*%
D24*
%TO.C,D4*%
X64787500Y-98000000D03*
X63212500Y-98000000D03*
%TD*%
D25*
%TO.C,U5*%
X56087500Y-104500000D03*
X56087500Y-105000000D03*
X56087500Y-105500000D03*
X56087500Y-106000000D03*
X56087500Y-106500000D03*
X56087500Y-107000000D03*
X56087500Y-107500000D03*
X56087500Y-108000000D03*
X56087500Y-108500000D03*
X56087500Y-109000000D03*
X56087500Y-109500000D03*
X56087500Y-110000000D03*
D26*
X57500000Y-111412500D03*
X58000000Y-111412500D03*
X58500000Y-111412500D03*
X59000000Y-111412500D03*
X59500000Y-111412500D03*
X60000000Y-111412500D03*
X60500000Y-111412500D03*
X61000000Y-111412500D03*
X61500000Y-111412500D03*
X62000000Y-111412500D03*
X62500000Y-111412500D03*
X63000000Y-111412500D03*
D25*
X64412500Y-110000000D03*
X64412500Y-109500000D03*
X64412500Y-109000000D03*
X64412500Y-108500000D03*
X64412500Y-108000000D03*
X64412500Y-107500000D03*
X64412500Y-107000000D03*
X64412500Y-106500000D03*
X64412500Y-106000000D03*
X64412500Y-105500000D03*
X64412500Y-105000000D03*
X64412500Y-104500000D03*
D26*
X63000000Y-103087500D03*
X62500000Y-103087500D03*
X62000000Y-103087500D03*
X61500000Y-103087500D03*
X61000000Y-103087500D03*
X60500000Y-103087500D03*
X60000000Y-103087500D03*
X59500000Y-103087500D03*
X59000000Y-103087500D03*
X58500000Y-103087500D03*
X58000000Y-103087500D03*
X57500000Y-103087500D03*
%TD*%
D27*
%TO.C,Q10*%
X89550000Y-117905000D03*
X89550000Y-116635000D03*
X89550000Y-115365000D03*
X89550000Y-114095000D03*
D28*
X95355000Y-117905000D03*
X95355000Y-116635000D03*
X95355000Y-115365000D03*
X95355000Y-114095000D03*
D29*
X93950000Y-116850000D03*
X93950000Y-115150000D03*
X92250000Y-116850000D03*
X92250000Y-115150000D03*
%TD*%
D27*
%TO.C,Q8*%
X89600000Y-111505000D03*
X89600000Y-110235000D03*
X89600000Y-108965000D03*
X89600000Y-107695000D03*
D28*
X95405000Y-111505000D03*
X95405000Y-110235000D03*
X95405000Y-108965000D03*
X95405000Y-107695000D03*
D29*
X94000000Y-110450000D03*
X94000000Y-108750000D03*
X92300000Y-110450000D03*
X92300000Y-108750000D03*
%TD*%
D27*
%TO.C,Q2*%
X89600000Y-105255000D03*
X89600000Y-103985000D03*
X89600000Y-102715000D03*
X89600000Y-101445000D03*
D28*
X95405000Y-105255000D03*
X95405000Y-103985000D03*
X95405000Y-102715000D03*
X95405000Y-101445000D03*
D29*
X94000000Y-104200000D03*
X94000000Y-102500000D03*
X92300000Y-104200000D03*
X92300000Y-102500000D03*
%TD*%
M02*
