M48
; DRILL file {KiCad 8.0.5} date 2025-03-16T21:49:37+0530
; FORMAT={-:-/ absolute / inch / decimal}
; #@! TF.CreationDate,2025-03-16T21:49:37+05:30
; #@! TF.GenerationSoftware,Kicad,Pcbnew,8.0.5
; #@! TF.FileFunction,Plated,1,2,PTH
FMAT,2
INCH
; #@! TA.AperFunction,Plated,PTH,ViaDrill
T1C0.0118
; #@! TA.AperFunction,Plated,PTH,ComponentDrill
T2C0.0315
; #@! TA.AperFunction,Plated,PTH,ComponentDrill
T3C0.0394
%
G90
G05
T1
X2.0118Y-3.9764
X2.0138Y-4.626
X2.0276Y-4.4882
X2.0768Y-4.2283
X2.0768Y-4.4232
X2.0866Y-4.4685
X2.1161Y-4.1663
X2.126Y-4.252
X2.1358Y-4.0059
X2.1506Y-4.2864
X2.1555Y-4.4685
X2.1949Y-4.3799
X2.2047Y-4.0551
X2.2441Y-3.9764
X2.2539Y-4.4685
X2.2638Y-4.1732
X2.2835Y-4.0059
X2.3169Y-4.2963
X2.3327Y-4.4783
X2.3425Y-4.2323
X2.372Y-4.5472
X2.4016Y-4.2618
X2.4213Y-4.1732
X2.4311Y-4.0059
X2.4409Y-4.3012
X2.4508Y-4.1535
X2.4606Y-4.5079
X2.5197Y-4.4094
X2.5591Y-3.937
X2.6405Y-4.3646
X2.6417Y-4.3996
X2.7047Y-4.372
X2.7165Y-4.2126
X2.7264Y-4.4783
X2.7559Y-4.0945
X2.7559Y-4.2618
X2.7657Y-4.5866
X2.8219Y-4.5965
X2.9134Y-4.626
X2.9134Y-4.7835
X2.9626Y-3.8386
X3.002Y-4.0846
X3.0315Y-4.3307
X3.0315Y-4.7874
X3.0512Y-3.8681
X3.061Y-4.6457
X3.0807Y-4.8622
X3.1496Y-4.6457
X3.1644Y-4.4144
X3.1693Y-4.1437
X3.1791Y-4.7539
X3.2283Y-4.1535
X3.2283Y-4.2815
X3.2283Y-4.4291
X3.2283Y-4.5374
X3.2382Y-3.9075
X3.2382Y-4.8622
X3.2972Y-4.7933
X3.3071Y-4.7441
X3.3563Y-4.3209
X3.3563Y-4.5571
X3.3563Y-4.5768
X3.3563Y-4.8228
X3.3589Y-4.2934
X3.3661Y-4.872
X3.4646Y-4.8031
X3.5236Y-3.9075
X3.5276Y-3.937
X3.5276Y-3.9567
X3.5433Y-4.7441
X3.6811Y-4.0461
X3.6811Y-4.2421
X3.6811Y-4.2921
X3.6811Y-4.3421
X3.6811Y-4.488
X3.6811Y-4.538
X3.6811Y-4.5669
X3.6831Y-3.9961
X3.6909Y-4.0846
X3.7106Y-3.9961
X3.7106Y-4.0461
X3.7106Y-4.488
X3.7106Y-4.538
X3.7106Y-4.5669
X3.7106Y-4.8228
X3.7205Y-4.0846
X3.7205Y-4.2421
X3.7205Y-4.2921
X3.7205Y-4.3421
X3.7402Y-4.8228
X3.75Y-3.9961
X3.75Y-4.0453
X3.75Y-4.0846
X3.75Y-4.4882
X3.75Y-4.5374
X3.75Y-4.5669
X3.7598Y-4.2421
X3.7598Y-4.2913
X3.7598Y-4.3406
X3.7992Y-4.6949
X3.8091Y-4.1732
X3.8091Y-4.4291
T2
X2.0669Y-3.878
X2.1457Y-3.878
X2.2244Y-3.878
X2.3031Y-3.878
X2.3819Y-3.878
T3
X2.0433Y-4.8425
X2.1433Y-4.8425
X2.2433Y-4.8425
X2.3433Y-4.8425
X2.4433Y-4.8425
X2.5433Y-4.8425
M30
