%TF.GenerationSoftware,KiCad,Pcbnew,8.0.5*%
%TF.CreationDate,2025-03-16T21:49:30+05:30*%
%TF.ProjectId,bldc,626c6463-2e6b-4696-9361-645f70636258,rev?*%
%TF.SameCoordinates,Original*%
%TF.FileFunction,Legend,Top*%
%TF.FilePolarity,Positive*%
%FSLAX46Y46*%
G04 Gerber Fmt 4.6, Leading zero omitted, Abs format (unit mm)*
G04 Created by KiCad (PCBNEW 8.0.5) date 2025-03-16 21:49:30*
%MOMM*%
%LPD*%
G01*
G04 APERTURE LIST*
%ADD10C,0.150000*%
%ADD11C,0.100000*%
%ADD12C,0.120000*%
%ADD13C,0.200000*%
G04 APERTURE END LIST*
D10*
X99170112Y-122596009D02*
X99312969Y-122643628D01*
X99312969Y-122643628D02*
X99360588Y-122691247D01*
X99360588Y-122691247D02*
X99408207Y-122786485D01*
X99408207Y-122786485D02*
X99408207Y-122929342D01*
X99408207Y-122929342D02*
X99360588Y-123024580D01*
X99360588Y-123024580D02*
X99312969Y-123072200D01*
X99312969Y-123072200D02*
X99217731Y-123119819D01*
X99217731Y-123119819D02*
X98836779Y-123119819D01*
X98836779Y-123119819D02*
X98836779Y-122119819D01*
X98836779Y-122119819D02*
X99170112Y-122119819D01*
X99170112Y-122119819D02*
X99265350Y-122167438D01*
X99265350Y-122167438D02*
X99312969Y-122215057D01*
X99312969Y-122215057D02*
X99360588Y-122310295D01*
X99360588Y-122310295D02*
X99360588Y-122405533D01*
X99360588Y-122405533D02*
X99312969Y-122500771D01*
X99312969Y-122500771D02*
X99265350Y-122548390D01*
X99265350Y-122548390D02*
X99170112Y-122596009D01*
X99170112Y-122596009D02*
X98836779Y-122596009D01*
X99836779Y-122596009D02*
X100170112Y-122596009D01*
X100312969Y-123119819D02*
X99836779Y-123119819D01*
X99836779Y-123119819D02*
X99836779Y-122119819D01*
X99836779Y-122119819D02*
X100312969Y-122119819D01*
X100741541Y-123119819D02*
X100741541Y-122119819D01*
X100741541Y-122119819D02*
X101074874Y-122834104D01*
X101074874Y-122834104D02*
X101408207Y-122119819D01*
X101408207Y-122119819D02*
X101408207Y-123119819D01*
X102217731Y-122596009D02*
X101884398Y-122596009D01*
X101884398Y-123119819D02*
X101884398Y-122119819D01*
X101884398Y-122119819D02*
X102360588Y-122119819D01*
D11*
X82303884Y-97372419D02*
X82303884Y-96705752D01*
X82303884Y-96800990D02*
X82351503Y-96753371D01*
X82351503Y-96753371D02*
X82446741Y-96705752D01*
X82446741Y-96705752D02*
X82589598Y-96705752D01*
X82589598Y-96705752D02*
X82684836Y-96753371D01*
X82684836Y-96753371D02*
X82732455Y-96848609D01*
X82732455Y-96848609D02*
X82732455Y-97372419D01*
X82732455Y-96848609D02*
X82780074Y-96753371D01*
X82780074Y-96753371D02*
X82875312Y-96705752D01*
X82875312Y-96705752D02*
X83018169Y-96705752D01*
X83018169Y-96705752D02*
X83113408Y-96753371D01*
X83113408Y-96753371D02*
X83161027Y-96848609D01*
X83161027Y-96848609D02*
X83161027Y-97372419D01*
X84065788Y-97372419D02*
X84065788Y-96848609D01*
X84065788Y-96848609D02*
X84018169Y-96753371D01*
X84018169Y-96753371D02*
X83922931Y-96705752D01*
X83922931Y-96705752D02*
X83732455Y-96705752D01*
X83732455Y-96705752D02*
X83637217Y-96753371D01*
X84065788Y-97324800D02*
X83970550Y-97372419D01*
X83970550Y-97372419D02*
X83732455Y-97372419D01*
X83732455Y-97372419D02*
X83637217Y-97324800D01*
X83637217Y-97324800D02*
X83589598Y-97229561D01*
X83589598Y-97229561D02*
X83589598Y-97134323D01*
X83589598Y-97134323D02*
X83637217Y-97039085D01*
X83637217Y-97039085D02*
X83732455Y-96991466D01*
X83732455Y-96991466D02*
X83970550Y-96991466D01*
X83970550Y-96991466D02*
X84065788Y-96943847D01*
X84446741Y-96705752D02*
X84684836Y-97372419D01*
X84922931Y-96705752D02*
X84684836Y-97372419D01*
X84684836Y-97372419D02*
X84589598Y-97610514D01*
X84589598Y-97610514D02*
X84541979Y-97658133D01*
X84541979Y-97658133D02*
X84446741Y-97705752D01*
X85732455Y-97372419D02*
X85732455Y-96848609D01*
X85732455Y-96848609D02*
X85684836Y-96753371D01*
X85684836Y-96753371D02*
X85589598Y-96705752D01*
X85589598Y-96705752D02*
X85399122Y-96705752D01*
X85399122Y-96705752D02*
X85303884Y-96753371D01*
X85732455Y-97324800D02*
X85637217Y-97372419D01*
X85637217Y-97372419D02*
X85399122Y-97372419D01*
X85399122Y-97372419D02*
X85303884Y-97324800D01*
X85303884Y-97324800D02*
X85256265Y-97229561D01*
X85256265Y-97229561D02*
X85256265Y-97134323D01*
X85256265Y-97134323D02*
X85303884Y-97039085D01*
X85303884Y-97039085D02*
X85399122Y-96991466D01*
X85399122Y-96991466D02*
X85637217Y-96991466D01*
X85637217Y-96991466D02*
X85732455Y-96943847D01*
X86208646Y-96705752D02*
X86208646Y-97372419D01*
X86208646Y-96800990D02*
X86256265Y-96753371D01*
X86256265Y-96753371D02*
X86351503Y-96705752D01*
X86351503Y-96705752D02*
X86494360Y-96705752D01*
X86494360Y-96705752D02*
X86589598Y-96753371D01*
X86589598Y-96753371D02*
X86637217Y-96848609D01*
X86637217Y-96848609D02*
X86637217Y-97372419D01*
X87113408Y-97372419D02*
X87113408Y-96372419D01*
X87208646Y-96991466D02*
X87494360Y-97372419D01*
X87494360Y-96705752D02*
X87113408Y-97086704D01*
X87922932Y-96705752D02*
X87922932Y-97705752D01*
X87922932Y-96753371D02*
X88018170Y-96705752D01*
X88018170Y-96705752D02*
X88208646Y-96705752D01*
X88208646Y-96705752D02*
X88303884Y-96753371D01*
X88303884Y-96753371D02*
X88351503Y-96800990D01*
X88351503Y-96800990D02*
X88399122Y-96896228D01*
X88399122Y-96896228D02*
X88399122Y-97181942D01*
X88399122Y-97181942D02*
X88351503Y-97277180D01*
X88351503Y-97277180D02*
X88303884Y-97324800D01*
X88303884Y-97324800D02*
X88208646Y-97372419D01*
X88208646Y-97372419D02*
X88018170Y-97372419D01*
X88018170Y-97372419D02*
X87922932Y-97324800D01*
X89256265Y-97372419D02*
X89256265Y-96848609D01*
X89256265Y-96848609D02*
X89208646Y-96753371D01*
X89208646Y-96753371D02*
X89113408Y-96705752D01*
X89113408Y-96705752D02*
X88922932Y-96705752D01*
X88922932Y-96705752D02*
X88827694Y-96753371D01*
X89256265Y-97324800D02*
X89161027Y-97372419D01*
X89161027Y-97372419D02*
X88922932Y-97372419D01*
X88922932Y-97372419D02*
X88827694Y-97324800D01*
X88827694Y-97324800D02*
X88780075Y-97229561D01*
X88780075Y-97229561D02*
X88780075Y-97134323D01*
X88780075Y-97134323D02*
X88827694Y-97039085D01*
X88827694Y-97039085D02*
X88922932Y-96991466D01*
X88922932Y-96991466D02*
X89161027Y-96991466D01*
X89161027Y-96991466D02*
X89256265Y-96943847D01*
X89589599Y-96705752D02*
X89970551Y-96705752D01*
X89732456Y-96372419D02*
X89732456Y-97229561D01*
X89732456Y-97229561D02*
X89780075Y-97324800D01*
X89780075Y-97324800D02*
X89875313Y-97372419D01*
X89875313Y-97372419D02*
X89970551Y-97372419D01*
X90684837Y-97324800D02*
X90589599Y-97372419D01*
X90589599Y-97372419D02*
X90399123Y-97372419D01*
X90399123Y-97372419D02*
X90303885Y-97324800D01*
X90303885Y-97324800D02*
X90256266Y-97229561D01*
X90256266Y-97229561D02*
X90256266Y-96848609D01*
X90256266Y-96848609D02*
X90303885Y-96753371D01*
X90303885Y-96753371D02*
X90399123Y-96705752D01*
X90399123Y-96705752D02*
X90589599Y-96705752D01*
X90589599Y-96705752D02*
X90684837Y-96753371D01*
X90684837Y-96753371D02*
X90732456Y-96848609D01*
X90732456Y-96848609D02*
X90732456Y-96943847D01*
X90732456Y-96943847D02*
X90256266Y-97039085D01*
X91303885Y-97372419D02*
X91208647Y-97324800D01*
X91208647Y-97324800D02*
X91161028Y-97229561D01*
X91161028Y-97229561D02*
X91161028Y-96372419D01*
X92113409Y-96705752D02*
X92113409Y-97372419D01*
X91875314Y-96324800D02*
X91637219Y-97039085D01*
X91637219Y-97039085D02*
X92256266Y-97039085D01*
X93065790Y-96372419D02*
X92875314Y-96372419D01*
X92875314Y-96372419D02*
X92780076Y-96420038D01*
X92780076Y-96420038D02*
X92732457Y-96467657D01*
X92732457Y-96467657D02*
X92637219Y-96610514D01*
X92637219Y-96610514D02*
X92589600Y-96800990D01*
X92589600Y-96800990D02*
X92589600Y-97181942D01*
X92589600Y-97181942D02*
X92637219Y-97277180D01*
X92637219Y-97277180D02*
X92684838Y-97324800D01*
X92684838Y-97324800D02*
X92780076Y-97372419D01*
X92780076Y-97372419D02*
X92970552Y-97372419D01*
X92970552Y-97372419D02*
X93065790Y-97324800D01*
X93065790Y-97324800D02*
X93113409Y-97277180D01*
X93113409Y-97277180D02*
X93161028Y-97181942D01*
X93161028Y-97181942D02*
X93161028Y-96943847D01*
X93161028Y-96943847D02*
X93113409Y-96848609D01*
X93113409Y-96848609D02*
X93065790Y-96800990D01*
X93065790Y-96800990D02*
X92970552Y-96753371D01*
X92970552Y-96753371D02*
X92780076Y-96753371D01*
X92780076Y-96753371D02*
X92684838Y-96800990D01*
X92684838Y-96800990D02*
X92637219Y-96848609D01*
X92637219Y-96848609D02*
X92589600Y-96943847D01*
X93732457Y-96800990D02*
X93637219Y-96753371D01*
X93637219Y-96753371D02*
X93589600Y-96705752D01*
X93589600Y-96705752D02*
X93541981Y-96610514D01*
X93541981Y-96610514D02*
X93541981Y-96562895D01*
X93541981Y-96562895D02*
X93589600Y-96467657D01*
X93589600Y-96467657D02*
X93637219Y-96420038D01*
X93637219Y-96420038D02*
X93732457Y-96372419D01*
X93732457Y-96372419D02*
X93922933Y-96372419D01*
X93922933Y-96372419D02*
X94018171Y-96420038D01*
X94018171Y-96420038D02*
X94065790Y-96467657D01*
X94065790Y-96467657D02*
X94113409Y-96562895D01*
X94113409Y-96562895D02*
X94113409Y-96610514D01*
X94113409Y-96610514D02*
X94065790Y-96705752D01*
X94065790Y-96705752D02*
X94018171Y-96753371D01*
X94018171Y-96753371D02*
X93922933Y-96800990D01*
X93922933Y-96800990D02*
X93732457Y-96800990D01*
X93732457Y-96800990D02*
X93637219Y-96848609D01*
X93637219Y-96848609D02*
X93589600Y-96896228D01*
X93589600Y-96896228D02*
X93541981Y-96991466D01*
X93541981Y-96991466D02*
X93541981Y-97181942D01*
X93541981Y-97181942D02*
X93589600Y-97277180D01*
X93589600Y-97277180D02*
X93637219Y-97324800D01*
X93637219Y-97324800D02*
X93732457Y-97372419D01*
X93732457Y-97372419D02*
X93922933Y-97372419D01*
X93922933Y-97372419D02*
X94018171Y-97324800D01*
X94018171Y-97324800D02*
X94065790Y-97277180D01*
X94065790Y-97277180D02*
X94113409Y-97181942D01*
X94113409Y-97181942D02*
X94113409Y-96991466D01*
X94113409Y-96991466D02*
X94065790Y-96896228D01*
X94065790Y-96896228D02*
X94018171Y-96848609D01*
X94018171Y-96848609D02*
X93922933Y-96800990D01*
X95161028Y-96896228D02*
X95113409Y-96848609D01*
X95113409Y-96848609D02*
X95018171Y-96800990D01*
X95018171Y-96800990D02*
X94922933Y-96800990D01*
X94922933Y-96800990D02*
X94827695Y-96848609D01*
X94827695Y-96848609D02*
X94780076Y-96896228D01*
X94780076Y-96896228D02*
X94732457Y-96991466D01*
X94732457Y-96991466D02*
X94732457Y-97086704D01*
X94732457Y-97086704D02*
X94780076Y-97181942D01*
X94780076Y-97181942D02*
X94827695Y-97229561D01*
X94827695Y-97229561D02*
X94922933Y-97277180D01*
X94922933Y-97277180D02*
X95018171Y-97277180D01*
X95018171Y-97277180D02*
X95113409Y-97229561D01*
X95113409Y-97229561D02*
X95161028Y-97181942D01*
X95161028Y-96800990D02*
X95161028Y-97181942D01*
X95161028Y-97181942D02*
X95208647Y-97229561D01*
X95208647Y-97229561D02*
X95256266Y-97229561D01*
X95256266Y-97229561D02*
X95351505Y-97181942D01*
X95351505Y-97181942D02*
X95399124Y-97086704D01*
X95399124Y-97086704D02*
X95399124Y-96848609D01*
X95399124Y-96848609D02*
X95303886Y-96705752D01*
X95303886Y-96705752D02*
X95161028Y-96610514D01*
X95161028Y-96610514D02*
X94970552Y-96562895D01*
X94970552Y-96562895D02*
X94780076Y-96610514D01*
X94780076Y-96610514D02*
X94637219Y-96705752D01*
X94637219Y-96705752D02*
X94541981Y-96848609D01*
X94541981Y-96848609D02*
X94494362Y-97039085D01*
X94494362Y-97039085D02*
X94541981Y-97229561D01*
X94541981Y-97229561D02*
X94637219Y-97372419D01*
X94637219Y-97372419D02*
X94780076Y-97467657D01*
X94780076Y-97467657D02*
X94970552Y-97515276D01*
X94970552Y-97515276D02*
X95161028Y-97467657D01*
X95161028Y-97467657D02*
X95303886Y-97372419D01*
X96256266Y-96705752D02*
X96256266Y-97515276D01*
X96256266Y-97515276D02*
X96208647Y-97610514D01*
X96208647Y-97610514D02*
X96161028Y-97658133D01*
X96161028Y-97658133D02*
X96065790Y-97705752D01*
X96065790Y-97705752D02*
X95922933Y-97705752D01*
X95922933Y-97705752D02*
X95827695Y-97658133D01*
X96256266Y-97324800D02*
X96161028Y-97372419D01*
X96161028Y-97372419D02*
X95970552Y-97372419D01*
X95970552Y-97372419D02*
X95875314Y-97324800D01*
X95875314Y-97324800D02*
X95827695Y-97277180D01*
X95827695Y-97277180D02*
X95780076Y-97181942D01*
X95780076Y-97181942D02*
X95780076Y-96896228D01*
X95780076Y-96896228D02*
X95827695Y-96800990D01*
X95827695Y-96800990D02*
X95875314Y-96753371D01*
X95875314Y-96753371D02*
X95970552Y-96705752D01*
X95970552Y-96705752D02*
X96161028Y-96705752D01*
X96161028Y-96705752D02*
X96256266Y-96753371D01*
X96732457Y-97372419D02*
X96732457Y-96705752D01*
X96732457Y-96800990D02*
X96780076Y-96753371D01*
X96780076Y-96753371D02*
X96875314Y-96705752D01*
X96875314Y-96705752D02*
X97018171Y-96705752D01*
X97018171Y-96705752D02*
X97113409Y-96753371D01*
X97113409Y-96753371D02*
X97161028Y-96848609D01*
X97161028Y-96848609D02*
X97161028Y-97372419D01*
X97161028Y-96848609D02*
X97208647Y-96753371D01*
X97208647Y-96753371D02*
X97303885Y-96705752D01*
X97303885Y-96705752D02*
X97446742Y-96705752D01*
X97446742Y-96705752D02*
X97541981Y-96753371D01*
X97541981Y-96753371D02*
X97589600Y-96848609D01*
X97589600Y-96848609D02*
X97589600Y-97372419D01*
X98494361Y-97372419D02*
X98494361Y-96848609D01*
X98494361Y-96848609D02*
X98446742Y-96753371D01*
X98446742Y-96753371D02*
X98351504Y-96705752D01*
X98351504Y-96705752D02*
X98161028Y-96705752D01*
X98161028Y-96705752D02*
X98065790Y-96753371D01*
X98494361Y-97324800D02*
X98399123Y-97372419D01*
X98399123Y-97372419D02*
X98161028Y-97372419D01*
X98161028Y-97372419D02*
X98065790Y-97324800D01*
X98065790Y-97324800D02*
X98018171Y-97229561D01*
X98018171Y-97229561D02*
X98018171Y-97134323D01*
X98018171Y-97134323D02*
X98065790Y-97039085D01*
X98065790Y-97039085D02*
X98161028Y-96991466D01*
X98161028Y-96991466D02*
X98399123Y-96991466D01*
X98399123Y-96991466D02*
X98494361Y-96943847D01*
X98970552Y-97372419D02*
X98970552Y-96705752D01*
X98970552Y-96372419D02*
X98922933Y-96420038D01*
X98922933Y-96420038D02*
X98970552Y-96467657D01*
X98970552Y-96467657D02*
X99018171Y-96420038D01*
X99018171Y-96420038D02*
X98970552Y-96372419D01*
X98970552Y-96372419D02*
X98970552Y-96467657D01*
X99589599Y-97372419D02*
X99494361Y-97324800D01*
X99494361Y-97324800D02*
X99446742Y-97229561D01*
X99446742Y-97229561D02*
X99446742Y-96372419D01*
X99970552Y-97277180D02*
X100018171Y-97324800D01*
X100018171Y-97324800D02*
X99970552Y-97372419D01*
X99970552Y-97372419D02*
X99922933Y-97324800D01*
X99922933Y-97324800D02*
X99970552Y-97277180D01*
X99970552Y-97277180D02*
X99970552Y-97372419D01*
X100875313Y-97324800D02*
X100780075Y-97372419D01*
X100780075Y-97372419D02*
X100589599Y-97372419D01*
X100589599Y-97372419D02*
X100494361Y-97324800D01*
X100494361Y-97324800D02*
X100446742Y-97277180D01*
X100446742Y-97277180D02*
X100399123Y-97181942D01*
X100399123Y-97181942D02*
X100399123Y-96896228D01*
X100399123Y-96896228D02*
X100446742Y-96800990D01*
X100446742Y-96800990D02*
X100494361Y-96753371D01*
X100494361Y-96753371D02*
X100589599Y-96705752D01*
X100589599Y-96705752D02*
X100780075Y-96705752D01*
X100780075Y-96705752D02*
X100875313Y-96753371D01*
X101446742Y-97372419D02*
X101351504Y-97324800D01*
X101351504Y-97324800D02*
X101303885Y-97277180D01*
X101303885Y-97277180D02*
X101256266Y-97181942D01*
X101256266Y-97181942D02*
X101256266Y-96896228D01*
X101256266Y-96896228D02*
X101303885Y-96800990D01*
X101303885Y-96800990D02*
X101351504Y-96753371D01*
X101351504Y-96753371D02*
X101446742Y-96705752D01*
X101446742Y-96705752D02*
X101589599Y-96705752D01*
X101589599Y-96705752D02*
X101684837Y-96753371D01*
X101684837Y-96753371D02*
X101732456Y-96800990D01*
X101732456Y-96800990D02*
X101780075Y-96896228D01*
X101780075Y-96896228D02*
X101780075Y-97181942D01*
X101780075Y-97181942D02*
X101732456Y-97277180D01*
X101732456Y-97277180D02*
X101684837Y-97324800D01*
X101684837Y-97324800D02*
X101589599Y-97372419D01*
X101589599Y-97372419D02*
X101446742Y-97372419D01*
X102208647Y-97372419D02*
X102208647Y-96705752D01*
X102208647Y-96800990D02*
X102256266Y-96753371D01*
X102256266Y-96753371D02*
X102351504Y-96705752D01*
X102351504Y-96705752D02*
X102494361Y-96705752D01*
X102494361Y-96705752D02*
X102589599Y-96753371D01*
X102589599Y-96753371D02*
X102637218Y-96848609D01*
X102637218Y-96848609D02*
X102637218Y-97372419D01*
X102637218Y-96848609D02*
X102684837Y-96753371D01*
X102684837Y-96753371D02*
X102780075Y-96705752D01*
X102780075Y-96705752D02*
X102922932Y-96705752D01*
X102922932Y-96705752D02*
X103018171Y-96753371D01*
X103018171Y-96753371D02*
X103065790Y-96848609D01*
X103065790Y-96848609D02*
X103065790Y-97372419D01*
X93637217Y-98598609D02*
X93780074Y-98646228D01*
X93780074Y-98646228D02*
X93827693Y-98693847D01*
X93827693Y-98693847D02*
X93875312Y-98789085D01*
X93875312Y-98789085D02*
X93875312Y-98931942D01*
X93875312Y-98931942D02*
X93827693Y-99027180D01*
X93827693Y-99027180D02*
X93780074Y-99074800D01*
X93780074Y-99074800D02*
X93684836Y-99122419D01*
X93684836Y-99122419D02*
X93303884Y-99122419D01*
X93303884Y-99122419D02*
X93303884Y-98122419D01*
X93303884Y-98122419D02*
X93637217Y-98122419D01*
X93637217Y-98122419D02*
X93732455Y-98170038D01*
X93732455Y-98170038D02*
X93780074Y-98217657D01*
X93780074Y-98217657D02*
X93827693Y-98312895D01*
X93827693Y-98312895D02*
X93827693Y-98408133D01*
X93827693Y-98408133D02*
X93780074Y-98503371D01*
X93780074Y-98503371D02*
X93732455Y-98550990D01*
X93732455Y-98550990D02*
X93637217Y-98598609D01*
X93637217Y-98598609D02*
X93303884Y-98598609D01*
X94780074Y-99122419D02*
X94303884Y-99122419D01*
X94303884Y-99122419D02*
X94303884Y-98122419D01*
X95113408Y-99122419D02*
X95113408Y-98122419D01*
X95113408Y-98122419D02*
X95351503Y-98122419D01*
X95351503Y-98122419D02*
X95494360Y-98170038D01*
X95494360Y-98170038D02*
X95589598Y-98265276D01*
X95589598Y-98265276D02*
X95637217Y-98360514D01*
X95637217Y-98360514D02*
X95684836Y-98550990D01*
X95684836Y-98550990D02*
X95684836Y-98693847D01*
X95684836Y-98693847D02*
X95637217Y-98884323D01*
X95637217Y-98884323D02*
X95589598Y-98979561D01*
X95589598Y-98979561D02*
X95494360Y-99074800D01*
X95494360Y-99074800D02*
X95351503Y-99122419D01*
X95351503Y-99122419D02*
X95113408Y-99122419D01*
X96684836Y-99027180D02*
X96637217Y-99074800D01*
X96637217Y-99074800D02*
X96494360Y-99122419D01*
X96494360Y-99122419D02*
X96399122Y-99122419D01*
X96399122Y-99122419D02*
X96256265Y-99074800D01*
X96256265Y-99074800D02*
X96161027Y-98979561D01*
X96161027Y-98979561D02*
X96113408Y-98884323D01*
X96113408Y-98884323D02*
X96065789Y-98693847D01*
X96065789Y-98693847D02*
X96065789Y-98550990D01*
X96065789Y-98550990D02*
X96113408Y-98360514D01*
X96113408Y-98360514D02*
X96161027Y-98265276D01*
X96161027Y-98265276D02*
X96256265Y-98170038D01*
X96256265Y-98170038D02*
X96399122Y-98122419D01*
X96399122Y-98122419D02*
X96494360Y-98122419D01*
X96494360Y-98122419D02*
X96637217Y-98170038D01*
X96637217Y-98170038D02*
X96684836Y-98217657D01*
X97875313Y-99122419D02*
X97875313Y-98122419D01*
X97875313Y-98122419D02*
X98113408Y-98122419D01*
X98113408Y-98122419D02*
X98256265Y-98170038D01*
X98256265Y-98170038D02*
X98351503Y-98265276D01*
X98351503Y-98265276D02*
X98399122Y-98360514D01*
X98399122Y-98360514D02*
X98446741Y-98550990D01*
X98446741Y-98550990D02*
X98446741Y-98693847D01*
X98446741Y-98693847D02*
X98399122Y-98884323D01*
X98399122Y-98884323D02*
X98351503Y-98979561D01*
X98351503Y-98979561D02*
X98256265Y-99074800D01*
X98256265Y-99074800D02*
X98113408Y-99122419D01*
X98113408Y-99122419D02*
X97875313Y-99122419D01*
X98875313Y-99122419D02*
X98875313Y-98455752D01*
X98875313Y-98646228D02*
X98922932Y-98550990D01*
X98922932Y-98550990D02*
X98970551Y-98503371D01*
X98970551Y-98503371D02*
X99065789Y-98455752D01*
X99065789Y-98455752D02*
X99161027Y-98455752D01*
X99494361Y-99122419D02*
X99494361Y-98455752D01*
X99494361Y-98122419D02*
X99446742Y-98170038D01*
X99446742Y-98170038D02*
X99494361Y-98217657D01*
X99494361Y-98217657D02*
X99541980Y-98170038D01*
X99541980Y-98170038D02*
X99494361Y-98122419D01*
X99494361Y-98122419D02*
X99494361Y-98217657D01*
X99875313Y-98455752D02*
X100113408Y-99122419D01*
X100113408Y-99122419D02*
X100351503Y-98455752D01*
X101113408Y-99074800D02*
X101018170Y-99122419D01*
X101018170Y-99122419D02*
X100827694Y-99122419D01*
X100827694Y-99122419D02*
X100732456Y-99074800D01*
X100732456Y-99074800D02*
X100684837Y-98979561D01*
X100684837Y-98979561D02*
X100684837Y-98598609D01*
X100684837Y-98598609D02*
X100732456Y-98503371D01*
X100732456Y-98503371D02*
X100827694Y-98455752D01*
X100827694Y-98455752D02*
X101018170Y-98455752D01*
X101018170Y-98455752D02*
X101113408Y-98503371D01*
X101113408Y-98503371D02*
X101161027Y-98598609D01*
X101161027Y-98598609D02*
X101161027Y-98693847D01*
X101161027Y-98693847D02*
X100684837Y-98789085D01*
X101589599Y-99122419D02*
X101589599Y-98455752D01*
X101589599Y-98646228D02*
X101637218Y-98550990D01*
X101637218Y-98550990D02*
X101684837Y-98503371D01*
X101684837Y-98503371D02*
X101780075Y-98455752D01*
X101780075Y-98455752D02*
X101875313Y-98455752D01*
D10*
X58948684Y-119956533D02*
X59415350Y-120656533D01*
X59415350Y-119956533D02*
X58948684Y-120656533D01*
X51448684Y-119956533D02*
X51915350Y-120656533D01*
X51915350Y-119956533D02*
X51448684Y-120656533D01*
X98515350Y-113156533D02*
X98515350Y-112456533D01*
X98515350Y-112456533D02*
X98782017Y-112456533D01*
X98782017Y-112456533D02*
X98848684Y-112489866D01*
X98848684Y-112489866D02*
X98882017Y-112523200D01*
X98882017Y-112523200D02*
X98915350Y-112589866D01*
X98915350Y-112589866D02*
X98915350Y-112689866D01*
X98915350Y-112689866D02*
X98882017Y-112756533D01*
X98882017Y-112756533D02*
X98848684Y-112789866D01*
X98848684Y-112789866D02*
X98782017Y-112823200D01*
X98782017Y-112823200D02*
X98515350Y-112823200D01*
X99215350Y-113156533D02*
X99215350Y-112456533D01*
X99215350Y-112789866D02*
X99615350Y-112789866D01*
X99615350Y-113156533D02*
X99615350Y-112456533D01*
X99915350Y-112956533D02*
X100248683Y-112956533D01*
X99848683Y-113156533D02*
X100082017Y-112456533D01*
X100082017Y-112456533D02*
X100315350Y-113156533D01*
X100515350Y-113123200D02*
X100615350Y-113156533D01*
X100615350Y-113156533D02*
X100782017Y-113156533D01*
X100782017Y-113156533D02*
X100848683Y-113123200D01*
X100848683Y-113123200D02*
X100882017Y-113089866D01*
X100882017Y-113089866D02*
X100915350Y-113023200D01*
X100915350Y-113023200D02*
X100915350Y-112956533D01*
X100915350Y-112956533D02*
X100882017Y-112889866D01*
X100882017Y-112889866D02*
X100848683Y-112856533D01*
X100848683Y-112856533D02*
X100782017Y-112823200D01*
X100782017Y-112823200D02*
X100648683Y-112789866D01*
X100648683Y-112789866D02*
X100582017Y-112756533D01*
X100582017Y-112756533D02*
X100548683Y-112723200D01*
X100548683Y-112723200D02*
X100515350Y-112656533D01*
X100515350Y-112656533D02*
X100515350Y-112589866D01*
X100515350Y-112589866D02*
X100548683Y-112523200D01*
X100548683Y-112523200D02*
X100582017Y-112489866D01*
X100582017Y-112489866D02*
X100648683Y-112456533D01*
X100648683Y-112456533D02*
X100815350Y-112456533D01*
X100815350Y-112456533D02*
X100915350Y-112489866D01*
X101215350Y-112789866D02*
X101448684Y-112789866D01*
X101548684Y-113156533D02*
X101215350Y-113156533D01*
X101215350Y-113156533D02*
X101215350Y-112456533D01*
X101215350Y-112456533D02*
X101548684Y-112456533D01*
X102782016Y-113089866D02*
X102748683Y-113123200D01*
X102748683Y-113123200D02*
X102648683Y-113156533D01*
X102648683Y-113156533D02*
X102582016Y-113156533D01*
X102582016Y-113156533D02*
X102482016Y-113123200D01*
X102482016Y-113123200D02*
X102415350Y-113056533D01*
X102415350Y-113056533D02*
X102382016Y-112989866D01*
X102382016Y-112989866D02*
X102348683Y-112856533D01*
X102348683Y-112856533D02*
X102348683Y-112756533D01*
X102348683Y-112756533D02*
X102382016Y-112623200D01*
X102382016Y-112623200D02*
X102415350Y-112556533D01*
X102415350Y-112556533D02*
X102482016Y-112489866D01*
X102482016Y-112489866D02*
X102582016Y-112456533D01*
X102582016Y-112456533D02*
X102648683Y-112456533D01*
X102648683Y-112456533D02*
X102748683Y-112489866D01*
X102748683Y-112489866D02*
X102782016Y-112523200D01*
X98515350Y-106906533D02*
X98515350Y-106206533D01*
X98515350Y-106206533D02*
X98782017Y-106206533D01*
X98782017Y-106206533D02*
X98848684Y-106239866D01*
X98848684Y-106239866D02*
X98882017Y-106273200D01*
X98882017Y-106273200D02*
X98915350Y-106339866D01*
X98915350Y-106339866D02*
X98915350Y-106439866D01*
X98915350Y-106439866D02*
X98882017Y-106506533D01*
X98882017Y-106506533D02*
X98848684Y-106539866D01*
X98848684Y-106539866D02*
X98782017Y-106573200D01*
X98782017Y-106573200D02*
X98515350Y-106573200D01*
X99215350Y-106906533D02*
X99215350Y-106206533D01*
X99215350Y-106539866D02*
X99615350Y-106539866D01*
X99615350Y-106906533D02*
X99615350Y-106206533D01*
X99915350Y-106706533D02*
X100248683Y-106706533D01*
X99848683Y-106906533D02*
X100082017Y-106206533D01*
X100082017Y-106206533D02*
X100315350Y-106906533D01*
X100515350Y-106873200D02*
X100615350Y-106906533D01*
X100615350Y-106906533D02*
X100782017Y-106906533D01*
X100782017Y-106906533D02*
X100848683Y-106873200D01*
X100848683Y-106873200D02*
X100882017Y-106839866D01*
X100882017Y-106839866D02*
X100915350Y-106773200D01*
X100915350Y-106773200D02*
X100915350Y-106706533D01*
X100915350Y-106706533D02*
X100882017Y-106639866D01*
X100882017Y-106639866D02*
X100848683Y-106606533D01*
X100848683Y-106606533D02*
X100782017Y-106573200D01*
X100782017Y-106573200D02*
X100648683Y-106539866D01*
X100648683Y-106539866D02*
X100582017Y-106506533D01*
X100582017Y-106506533D02*
X100548683Y-106473200D01*
X100548683Y-106473200D02*
X100515350Y-106406533D01*
X100515350Y-106406533D02*
X100515350Y-106339866D01*
X100515350Y-106339866D02*
X100548683Y-106273200D01*
X100548683Y-106273200D02*
X100582017Y-106239866D01*
X100582017Y-106239866D02*
X100648683Y-106206533D01*
X100648683Y-106206533D02*
X100815350Y-106206533D01*
X100815350Y-106206533D02*
X100915350Y-106239866D01*
X101215350Y-106539866D02*
X101448684Y-106539866D01*
X101548684Y-106906533D02*
X101215350Y-106906533D01*
X101215350Y-106906533D02*
X101215350Y-106206533D01*
X101215350Y-106206533D02*
X101548684Y-106206533D01*
X102615350Y-106539866D02*
X102715350Y-106573200D01*
X102715350Y-106573200D02*
X102748683Y-106606533D01*
X102748683Y-106606533D02*
X102782016Y-106673200D01*
X102782016Y-106673200D02*
X102782016Y-106773200D01*
X102782016Y-106773200D02*
X102748683Y-106839866D01*
X102748683Y-106839866D02*
X102715350Y-106873200D01*
X102715350Y-106873200D02*
X102648683Y-106906533D01*
X102648683Y-106906533D02*
X102382016Y-106906533D01*
X102382016Y-106906533D02*
X102382016Y-106206533D01*
X102382016Y-106206533D02*
X102615350Y-106206533D01*
X102615350Y-106206533D02*
X102682016Y-106239866D01*
X102682016Y-106239866D02*
X102715350Y-106273200D01*
X102715350Y-106273200D02*
X102748683Y-106339866D01*
X102748683Y-106339866D02*
X102748683Y-106406533D01*
X102748683Y-106406533D02*
X102715350Y-106473200D01*
X102715350Y-106473200D02*
X102682016Y-106506533D01*
X102682016Y-106506533D02*
X102615350Y-106539866D01*
X102615350Y-106539866D02*
X102382016Y-106539866D01*
X98515350Y-100406533D02*
X98515350Y-99706533D01*
X98515350Y-99706533D02*
X98782017Y-99706533D01*
X98782017Y-99706533D02*
X98848684Y-99739866D01*
X98848684Y-99739866D02*
X98882017Y-99773200D01*
X98882017Y-99773200D02*
X98915350Y-99839866D01*
X98915350Y-99839866D02*
X98915350Y-99939866D01*
X98915350Y-99939866D02*
X98882017Y-100006533D01*
X98882017Y-100006533D02*
X98848684Y-100039866D01*
X98848684Y-100039866D02*
X98782017Y-100073200D01*
X98782017Y-100073200D02*
X98515350Y-100073200D01*
X99215350Y-100406533D02*
X99215350Y-99706533D01*
X99215350Y-100039866D02*
X99615350Y-100039866D01*
X99615350Y-100406533D02*
X99615350Y-99706533D01*
X99915350Y-100206533D02*
X100248683Y-100206533D01*
X99848683Y-100406533D02*
X100082017Y-99706533D01*
X100082017Y-99706533D02*
X100315350Y-100406533D01*
X100515350Y-100373200D02*
X100615350Y-100406533D01*
X100615350Y-100406533D02*
X100782017Y-100406533D01*
X100782017Y-100406533D02*
X100848683Y-100373200D01*
X100848683Y-100373200D02*
X100882017Y-100339866D01*
X100882017Y-100339866D02*
X100915350Y-100273200D01*
X100915350Y-100273200D02*
X100915350Y-100206533D01*
X100915350Y-100206533D02*
X100882017Y-100139866D01*
X100882017Y-100139866D02*
X100848683Y-100106533D01*
X100848683Y-100106533D02*
X100782017Y-100073200D01*
X100782017Y-100073200D02*
X100648683Y-100039866D01*
X100648683Y-100039866D02*
X100582017Y-100006533D01*
X100582017Y-100006533D02*
X100548683Y-99973200D01*
X100548683Y-99973200D02*
X100515350Y-99906533D01*
X100515350Y-99906533D02*
X100515350Y-99839866D01*
X100515350Y-99839866D02*
X100548683Y-99773200D01*
X100548683Y-99773200D02*
X100582017Y-99739866D01*
X100582017Y-99739866D02*
X100648683Y-99706533D01*
X100648683Y-99706533D02*
X100815350Y-99706533D01*
X100815350Y-99706533D02*
X100915350Y-99739866D01*
X101215350Y-100039866D02*
X101448684Y-100039866D01*
X101548684Y-100406533D02*
X101215350Y-100406533D01*
X101215350Y-100406533D02*
X101215350Y-99706533D01*
X101215350Y-99706533D02*
X101548684Y-99706533D01*
X102348683Y-100206533D02*
X102682016Y-100206533D01*
X102282016Y-100406533D02*
X102515350Y-99706533D01*
X102515350Y-99706533D02*
X102748683Y-100406533D01*
X63598684Y-99656533D02*
X63265350Y-99656533D01*
X63265350Y-99656533D02*
X63265350Y-98956533D01*
X63832017Y-99289866D02*
X64065351Y-99289866D01*
X64165351Y-99656533D02*
X63832017Y-99656533D01*
X63832017Y-99656533D02*
X63832017Y-98956533D01*
X63832017Y-98956533D02*
X64165351Y-98956533D01*
X64465350Y-99656533D02*
X64465350Y-98956533D01*
X64465350Y-98956533D02*
X64632017Y-98956533D01*
X64632017Y-98956533D02*
X64732017Y-98989866D01*
X64732017Y-98989866D02*
X64798684Y-99056533D01*
X64798684Y-99056533D02*
X64832017Y-99123200D01*
X64832017Y-99123200D02*
X64865350Y-99256533D01*
X64865350Y-99256533D02*
X64865350Y-99356533D01*
X64865350Y-99356533D02*
X64832017Y-99489866D01*
X64832017Y-99489866D02*
X64798684Y-99556533D01*
X64798684Y-99556533D02*
X64732017Y-99623200D01*
X64732017Y-99623200D02*
X64632017Y-99656533D01*
X64632017Y-99656533D02*
X64465350Y-99656533D01*
X59665350Y-100206533D02*
X59898684Y-100906533D01*
X59898684Y-100906533D02*
X60132017Y-100206533D01*
X60765350Y-100839866D02*
X60732017Y-100873200D01*
X60732017Y-100873200D02*
X60632017Y-100906533D01*
X60632017Y-100906533D02*
X60565350Y-100906533D01*
X60565350Y-100906533D02*
X60465350Y-100873200D01*
X60465350Y-100873200D02*
X60398684Y-100806533D01*
X60398684Y-100806533D02*
X60365350Y-100739866D01*
X60365350Y-100739866D02*
X60332017Y-100606533D01*
X60332017Y-100606533D02*
X60332017Y-100506533D01*
X60332017Y-100506533D02*
X60365350Y-100373200D01*
X60365350Y-100373200D02*
X60398684Y-100306533D01*
X60398684Y-100306533D02*
X60465350Y-100239866D01*
X60465350Y-100239866D02*
X60565350Y-100206533D01*
X60565350Y-100206533D02*
X60632017Y-100206533D01*
X60632017Y-100206533D02*
X60732017Y-100239866D01*
X60732017Y-100239866D02*
X60765350Y-100273200D01*
X61465350Y-100839866D02*
X61432017Y-100873200D01*
X61432017Y-100873200D02*
X61332017Y-100906533D01*
X61332017Y-100906533D02*
X61265350Y-100906533D01*
X61265350Y-100906533D02*
X61165350Y-100873200D01*
X61165350Y-100873200D02*
X61098684Y-100806533D01*
X61098684Y-100806533D02*
X61065350Y-100739866D01*
X61065350Y-100739866D02*
X61032017Y-100606533D01*
X61032017Y-100606533D02*
X61032017Y-100506533D01*
X61032017Y-100506533D02*
X61065350Y-100373200D01*
X61065350Y-100373200D02*
X61098684Y-100306533D01*
X61098684Y-100306533D02*
X61165350Y-100239866D01*
X61165350Y-100239866D02*
X61265350Y-100206533D01*
X61265350Y-100206533D02*
X61332017Y-100206533D01*
X61332017Y-100206533D02*
X61432017Y-100239866D01*
X61432017Y-100239866D02*
X61465350Y-100273200D01*
X56915350Y-120656533D02*
X56682017Y-120323200D01*
X56515350Y-120656533D02*
X56515350Y-119956533D01*
X56515350Y-119956533D02*
X56782017Y-119956533D01*
X56782017Y-119956533D02*
X56848684Y-119989866D01*
X56848684Y-119989866D02*
X56882017Y-120023200D01*
X56882017Y-120023200D02*
X56915350Y-120089866D01*
X56915350Y-120089866D02*
X56915350Y-120189866D01*
X56915350Y-120189866D02*
X56882017Y-120256533D01*
X56882017Y-120256533D02*
X56848684Y-120289866D01*
X56848684Y-120289866D02*
X56782017Y-120323200D01*
X56782017Y-120323200D02*
X56515350Y-120323200D01*
X57148684Y-119956533D02*
X57615350Y-120656533D01*
X57615350Y-119956533D02*
X57148684Y-120656533D01*
X53665350Y-119956533D02*
X54065350Y-119956533D01*
X53865350Y-120656533D02*
X53865350Y-119956533D01*
X54232017Y-119956533D02*
X54698683Y-120656533D01*
X54698683Y-119956533D02*
X54232017Y-120656533D01*
X74632017Y-112739866D02*
X74565350Y-112706533D01*
X74565350Y-112706533D02*
X74465350Y-112706533D01*
X74465350Y-112706533D02*
X74365350Y-112739866D01*
X74365350Y-112739866D02*
X74298684Y-112806533D01*
X74298684Y-112806533D02*
X74265350Y-112873200D01*
X74265350Y-112873200D02*
X74232017Y-113006533D01*
X74232017Y-113006533D02*
X74232017Y-113106533D01*
X74232017Y-113106533D02*
X74265350Y-113239866D01*
X74265350Y-113239866D02*
X74298684Y-113306533D01*
X74298684Y-113306533D02*
X74365350Y-113373200D01*
X74365350Y-113373200D02*
X74465350Y-113406533D01*
X74465350Y-113406533D02*
X74532017Y-113406533D01*
X74532017Y-113406533D02*
X74632017Y-113373200D01*
X74632017Y-113373200D02*
X74665350Y-113339866D01*
X74665350Y-113339866D02*
X74665350Y-113106533D01*
X74665350Y-113106533D02*
X74532017Y-113106533D01*
X74965350Y-113406533D02*
X74965350Y-112706533D01*
X74965350Y-112706533D02*
X75365350Y-113406533D01*
X75365350Y-113406533D02*
X75365350Y-112706533D01*
X75698683Y-113406533D02*
X75698683Y-112706533D01*
X75698683Y-112706533D02*
X75865350Y-112706533D01*
X75865350Y-112706533D02*
X75965350Y-112739866D01*
X75965350Y-112739866D02*
X76032017Y-112806533D01*
X76032017Y-112806533D02*
X76065350Y-112873200D01*
X76065350Y-112873200D02*
X76098683Y-113006533D01*
X76098683Y-113006533D02*
X76098683Y-113106533D01*
X76098683Y-113106533D02*
X76065350Y-113239866D01*
X76065350Y-113239866D02*
X76032017Y-113306533D01*
X76032017Y-113306533D02*
X75965350Y-113373200D01*
X75965350Y-113373200D02*
X75865350Y-113406533D01*
X75865350Y-113406533D02*
X75698683Y-113406533D01*
X74665350Y-109156533D02*
X74432017Y-108823200D01*
X74265350Y-109156533D02*
X74265350Y-108456533D01*
X74265350Y-108456533D02*
X74532017Y-108456533D01*
X74532017Y-108456533D02*
X74598684Y-108489866D01*
X74598684Y-108489866D02*
X74632017Y-108523200D01*
X74632017Y-108523200D02*
X74665350Y-108589866D01*
X74665350Y-108589866D02*
X74665350Y-108689866D01*
X74665350Y-108689866D02*
X74632017Y-108756533D01*
X74632017Y-108756533D02*
X74598684Y-108789866D01*
X74598684Y-108789866D02*
X74532017Y-108823200D01*
X74532017Y-108823200D02*
X74265350Y-108823200D01*
X74965350Y-109156533D02*
X74965350Y-108456533D01*
X74965350Y-108456533D02*
X75232017Y-108456533D01*
X75232017Y-108456533D02*
X75298684Y-108489866D01*
X75298684Y-108489866D02*
X75332017Y-108523200D01*
X75332017Y-108523200D02*
X75365350Y-108589866D01*
X75365350Y-108589866D02*
X75365350Y-108689866D01*
X75365350Y-108689866D02*
X75332017Y-108756533D01*
X75332017Y-108756533D02*
X75298684Y-108789866D01*
X75298684Y-108789866D02*
X75232017Y-108823200D01*
X75232017Y-108823200D02*
X74965350Y-108823200D01*
X75665350Y-109156533D02*
X75665350Y-108456533D01*
X75665350Y-108456533D02*
X75898684Y-108956533D01*
X75898684Y-108956533D02*
X76132017Y-108456533D01*
X76132017Y-108456533D02*
X76132017Y-109156533D01*
X74232017Y-104873200D02*
X74332017Y-104906533D01*
X74332017Y-104906533D02*
X74498684Y-104906533D01*
X74498684Y-104906533D02*
X74565350Y-104873200D01*
X74565350Y-104873200D02*
X74598684Y-104839866D01*
X74598684Y-104839866D02*
X74632017Y-104773200D01*
X74632017Y-104773200D02*
X74632017Y-104706533D01*
X74632017Y-104706533D02*
X74598684Y-104639866D01*
X74598684Y-104639866D02*
X74565350Y-104606533D01*
X74565350Y-104606533D02*
X74498684Y-104573200D01*
X74498684Y-104573200D02*
X74365350Y-104539866D01*
X74365350Y-104539866D02*
X74298684Y-104506533D01*
X74298684Y-104506533D02*
X74265350Y-104473200D01*
X74265350Y-104473200D02*
X74232017Y-104406533D01*
X74232017Y-104406533D02*
X74232017Y-104339866D01*
X74232017Y-104339866D02*
X74265350Y-104273200D01*
X74265350Y-104273200D02*
X74298684Y-104239866D01*
X74298684Y-104239866D02*
X74365350Y-104206533D01*
X74365350Y-104206533D02*
X74532017Y-104206533D01*
X74532017Y-104206533D02*
X74632017Y-104239866D01*
X74932017Y-104906533D02*
X74932017Y-104206533D01*
X74932017Y-104206533D02*
X75198684Y-104206533D01*
X75198684Y-104206533D02*
X75265351Y-104239866D01*
X75265351Y-104239866D02*
X75298684Y-104273200D01*
X75298684Y-104273200D02*
X75332017Y-104339866D01*
X75332017Y-104339866D02*
X75332017Y-104439866D01*
X75332017Y-104439866D02*
X75298684Y-104506533D01*
X75298684Y-104506533D02*
X75265351Y-104539866D01*
X75265351Y-104539866D02*
X75198684Y-104573200D01*
X75198684Y-104573200D02*
X74932017Y-104573200D01*
X75632017Y-104906533D02*
X75632017Y-104206533D01*
X75632017Y-104206533D02*
X75798684Y-104206533D01*
X75798684Y-104206533D02*
X75898684Y-104239866D01*
X75898684Y-104239866D02*
X75965351Y-104306533D01*
X75965351Y-104306533D02*
X75998684Y-104373200D01*
X75998684Y-104373200D02*
X76032017Y-104506533D01*
X76032017Y-104506533D02*
X76032017Y-104606533D01*
X76032017Y-104606533D02*
X75998684Y-104739866D01*
X75998684Y-104739866D02*
X75965351Y-104806533D01*
X75965351Y-104806533D02*
X75898684Y-104873200D01*
X75898684Y-104873200D02*
X75798684Y-104906533D01*
X75798684Y-104906533D02*
X75632017Y-104906533D01*
X74198684Y-98206533D02*
X74632017Y-98206533D01*
X74632017Y-98206533D02*
X74398684Y-98473200D01*
X74398684Y-98473200D02*
X74498684Y-98473200D01*
X74498684Y-98473200D02*
X74565350Y-98506533D01*
X74565350Y-98506533D02*
X74598684Y-98539866D01*
X74598684Y-98539866D02*
X74632017Y-98606533D01*
X74632017Y-98606533D02*
X74632017Y-98773200D01*
X74632017Y-98773200D02*
X74598684Y-98839866D01*
X74598684Y-98839866D02*
X74565350Y-98873200D01*
X74565350Y-98873200D02*
X74498684Y-98906533D01*
X74498684Y-98906533D02*
X74298684Y-98906533D01*
X74298684Y-98906533D02*
X74232017Y-98873200D01*
X74232017Y-98873200D02*
X74198684Y-98839866D01*
X74932017Y-98839866D02*
X74965351Y-98873200D01*
X74965351Y-98873200D02*
X74932017Y-98906533D01*
X74932017Y-98906533D02*
X74898684Y-98873200D01*
X74898684Y-98873200D02*
X74932017Y-98839866D01*
X74932017Y-98839866D02*
X74932017Y-98906533D01*
X75198684Y-98206533D02*
X75632017Y-98206533D01*
X75632017Y-98206533D02*
X75398684Y-98473200D01*
X75398684Y-98473200D02*
X75498684Y-98473200D01*
X75498684Y-98473200D02*
X75565350Y-98506533D01*
X75565350Y-98506533D02*
X75598684Y-98539866D01*
X75598684Y-98539866D02*
X75632017Y-98606533D01*
X75632017Y-98606533D02*
X75632017Y-98773200D01*
X75632017Y-98773200D02*
X75598684Y-98839866D01*
X75598684Y-98839866D02*
X75565350Y-98873200D01*
X75565350Y-98873200D02*
X75498684Y-98906533D01*
X75498684Y-98906533D02*
X75298684Y-98906533D01*
X75298684Y-98906533D02*
X75232017Y-98873200D01*
X75232017Y-98873200D02*
X75198684Y-98839866D01*
X75832017Y-98206533D02*
X76065351Y-98906533D01*
X76065351Y-98906533D02*
X76298684Y-98206533D01*
D12*
%TO.C,TP10*%
X65950000Y-111500000D02*
G75*
G02*
X64550000Y-111500000I-700000J0D01*
G01*
X64550000Y-111500000D02*
G75*
G02*
X65950000Y-111500000I700000J0D01*
G01*
%TO.C,TP11*%
X67200000Y-109000000D02*
G75*
G02*
X65800000Y-109000000I-700000J0D01*
G01*
X65800000Y-109000000D02*
G75*
G02*
X67200000Y-109000000I700000J0D01*
G01*
%TO.C,TP9*%
X70300000Y-111300000D02*
X73700000Y-111300000D01*
X70300000Y-114700000D02*
X70300000Y-111300000D01*
X73700000Y-111300000D02*
X73700000Y-114700000D01*
X73700000Y-114700000D02*
X70300000Y-114700000D01*
%TO.C,TP8*%
X70300000Y-107050000D02*
X73700000Y-107050000D01*
X70300000Y-110450000D02*
X70300000Y-107050000D01*
X73700000Y-107050000D02*
X73700000Y-110450000D01*
X73700000Y-110450000D02*
X70300000Y-110450000D01*
%TO.C,TP7*%
X70300000Y-102800000D02*
X73700000Y-102800000D01*
X70300000Y-106200000D02*
X70300000Y-102800000D01*
X73700000Y-102800000D02*
X73700000Y-106200000D01*
X73700000Y-106200000D02*
X70300000Y-106200000D01*
%TO.C,TP6*%
X70300000Y-96550000D02*
X73700000Y-96550000D01*
X70300000Y-99950000D02*
X70300000Y-96550000D01*
X73700000Y-96550000D02*
X73700000Y-99950000D01*
X73700000Y-99950000D02*
X70300000Y-99950000D01*
D10*
%TO.C,TP3*%
X96500000Y-113500000D02*
X103500000Y-113500000D01*
X96500000Y-118500000D02*
X96500000Y-113500000D01*
X103500000Y-113500000D02*
X103500000Y-118500000D01*
X103500000Y-118500000D02*
X96500000Y-118500000D01*
%TO.C,TP2*%
X103500000Y-112250000D02*
X96500000Y-112250000D01*
X103500000Y-107250000D02*
X103500000Y-112250000D01*
X96500000Y-112250000D02*
X96500000Y-107250000D01*
X96500000Y-107250000D02*
X103500000Y-107250000D01*
%TO.C,TP1*%
X103500000Y-105750000D02*
X96500000Y-105750000D01*
X103500000Y-100750000D02*
X103500000Y-105750000D01*
X96500000Y-105750000D02*
X96500000Y-100750000D01*
X96500000Y-100750000D02*
X103500000Y-100750000D01*
D13*
%TO.C,IC1*%
X80200000Y-120375000D02*
X80200000Y-121125000D01*
X80200000Y-121125000D02*
X77300000Y-121125000D01*
X77300000Y-121125000D02*
X77300000Y-120375000D01*
X77300000Y-120375000D02*
X80200000Y-120375000D01*
X80300000Y-118875000D02*
X80300000Y-120025000D01*
D12*
%TO.C,C15*%
X51760000Y-105390580D02*
X51760000Y-105109420D01*
X50740000Y-105390580D02*
X50740000Y-105109420D01*
%TO.C,C14*%
X69640580Y-118010000D02*
X69359420Y-118010000D01*
X69640580Y-116990000D02*
X69359420Y-116990000D01*
%TO.C,C12*%
X79859420Y-124260000D02*
X80140580Y-124260000D01*
X79859420Y-123240000D02*
X80140580Y-123240000D01*
%TO.C,C11*%
X65890580Y-102240000D02*
X65609420Y-102240000D01*
X65890580Y-103260000D02*
X65609420Y-103260000D01*
%TO.C,C10*%
X52115580Y-114240000D02*
X51834420Y-114240000D01*
X52115580Y-115260000D02*
X51834420Y-115260000D01*
%TO.C,C9*%
X82740000Y-121109420D02*
X82740000Y-121390580D01*
X83760000Y-121109420D02*
X83760000Y-121390580D01*
%TO.C,C8*%
X52240000Y-111434420D02*
X52240000Y-111715580D01*
X53260000Y-111434420D02*
X53260000Y-111715580D01*
%TO.C,C7*%
X52065580Y-101990000D02*
X51784420Y-101990000D01*
X52065580Y-103010000D02*
X51784420Y-103010000D01*
%TO.C,C5*%
X85240000Y-113359420D02*
X85240000Y-113640580D01*
X86260000Y-113359420D02*
X86260000Y-113640580D01*
%TO.C,C4*%
X84140580Y-123240000D02*
X83859420Y-123240000D01*
X84140580Y-124260000D02*
X83859420Y-124260000D01*
%TO.C,C3*%
X86260000Y-106859420D02*
X86260000Y-107140580D01*
X85240000Y-106859420D02*
X85240000Y-107140580D01*
%TO.C,C2*%
X85240000Y-100609420D02*
X85240000Y-100890580D01*
X86260000Y-100609420D02*
X86260000Y-100890580D01*
%TO.C,C1*%
X58010000Y-117390580D02*
X58010000Y-117109420D01*
X56990000Y-117390580D02*
X56990000Y-117109420D01*
%TO.C,U4*%
X81050000Y-112135000D02*
X79100000Y-112135000D01*
X81050000Y-112135000D02*
X83000000Y-112135000D01*
X81050000Y-117255000D02*
X79100000Y-117255000D01*
X81050000Y-117255000D02*
X83000000Y-117255000D01*
X78350000Y-112230000D02*
X78110000Y-111900000D01*
X78590000Y-111900000D01*
X78350000Y-112230000D01*
G36*
X78350000Y-112230000D02*
G01*
X78110000Y-111900000D01*
X78590000Y-111900000D01*
X78350000Y-112230000D01*
G37*
%TO.C,U3*%
X81050000Y-105555000D02*
X79100000Y-105555000D01*
X81050000Y-105555000D02*
X83000000Y-105555000D01*
X81050000Y-110675000D02*
X79100000Y-110675000D01*
X81050000Y-110675000D02*
X83000000Y-110675000D01*
X78350000Y-105650000D02*
X78110000Y-105320000D01*
X78590000Y-105320000D01*
X78350000Y-105650000D01*
G36*
X78350000Y-105650000D02*
G01*
X78110000Y-105320000D01*
X78590000Y-105320000D01*
X78350000Y-105650000D01*
G37*
%TO.C,U2*%
X81050000Y-98975000D02*
X79100000Y-98975000D01*
X81050000Y-98975000D02*
X83000000Y-98975000D01*
X81050000Y-104095000D02*
X79100000Y-104095000D01*
X81050000Y-104095000D02*
X83000000Y-104095000D01*
X78350000Y-99070000D02*
X78110000Y-98740000D01*
X78590000Y-98740000D01*
X78350000Y-99070000D01*
G36*
X78350000Y-99070000D02*
G01*
X78110000Y-98740000D01*
X78590000Y-98740000D01*
X78350000Y-99070000D01*
G37*
%TO.C,U1*%
X66120000Y-121140000D02*
X65640000Y-121140000D01*
X65880000Y-120810000D01*
X66120000Y-121140000D01*
G36*
X66120000Y-121140000D02*
G01*
X65640000Y-121140000D01*
X65880000Y-120810000D01*
X66120000Y-121140000D01*
G37*
X60840000Y-114090000D02*
X60840000Y-115350000D01*
X60840000Y-120910000D02*
X60840000Y-119650000D01*
X64600000Y-114090000D02*
X60840000Y-114090000D01*
X64600000Y-120910000D02*
X60840000Y-120910000D01*
%TO.C,R28*%
X53272500Y-105487258D02*
X53272500Y-105012742D01*
X52227500Y-105487258D02*
X52227500Y-105012742D01*
%TO.C,R27*%
X52212258Y-115727500D02*
X51737742Y-115727500D01*
X52212258Y-116772500D02*
X51737742Y-116772500D01*
%TO.C,R26*%
X54737742Y-115272500D02*
X55212258Y-115272500D01*
X54737742Y-114227500D02*
X55212258Y-114227500D01*
%TO.C,R25*%
X55187258Y-115727500D02*
X54712742Y-115727500D01*
X55187258Y-116772500D02*
X54712742Y-116772500D01*
%TO.C,R24*%
X53272500Y-108462258D02*
X53272500Y-107987742D01*
X52227500Y-108462258D02*
X52227500Y-107987742D01*
%TO.C,R23*%
X51772500Y-108462258D02*
X51772500Y-107987742D01*
X50727500Y-108462258D02*
X50727500Y-107987742D01*
%TO.C,R22*%
X51772500Y-111812258D02*
X51772500Y-111337742D01*
X50727500Y-111812258D02*
X50727500Y-111337742D01*
%TO.C,R21*%
X52162258Y-100477500D02*
X51687742Y-100477500D01*
X52162258Y-101522500D02*
X51687742Y-101522500D01*
%TO.C,R20*%
X54837742Y-103022500D02*
X55312258Y-103022500D01*
X54837742Y-101977500D02*
X55312258Y-101977500D01*
%TO.C,R19*%
X55312258Y-100477500D02*
X54837742Y-100477500D01*
X55312258Y-101522500D02*
X54837742Y-101522500D01*
%TO.C,R17*%
X87272500Y-121487258D02*
X87272500Y-121012742D01*
X86227500Y-121487258D02*
X86227500Y-121012742D01*
%TO.C,R16*%
X84477500Y-121012742D02*
X84477500Y-121487258D01*
X85522500Y-121012742D02*
X85522500Y-121487258D01*
%TO.C,R15*%
X82012742Y-119522500D02*
X82487258Y-119522500D01*
X82012742Y-118477500D02*
X82487258Y-118477500D01*
%TO.C,R14*%
X82022500Y-121487258D02*
X82022500Y-121012742D01*
X80977500Y-121487258D02*
X80977500Y-121012742D01*
%TO.C,R13*%
X75262742Y-116977500D02*
X75737258Y-116977500D01*
X75262742Y-118022500D02*
X75737258Y-118022500D01*
%TO.C,R12*%
X72262742Y-118022500D02*
X72737258Y-118022500D01*
X72262742Y-116977500D02*
X72737258Y-116977500D01*
%TO.C,R10*%
X67487258Y-97477500D02*
X67012742Y-97477500D01*
X67487258Y-98522500D02*
X67012742Y-98522500D01*
%TO.C,R9*%
X87012742Y-124272500D02*
X87487258Y-124272500D01*
X87012742Y-123227500D02*
X87487258Y-123227500D01*
%TO.C,R6*%
X86512742Y-118522500D02*
X86987258Y-118522500D01*
X86512742Y-117477500D02*
X86987258Y-117477500D01*
%TO.C,R4*%
X86262742Y-111272500D02*
X86737258Y-111272500D01*
X86262742Y-110227500D02*
X86737258Y-110227500D01*
%TO.C,R2*%
X86337742Y-104022500D02*
X86812258Y-104022500D01*
X86337742Y-102977500D02*
X86812258Y-102977500D01*
%TO.C,L1*%
X68900000Y-118800000D02*
X75100000Y-118800000D01*
X68900000Y-119700000D02*
X68900000Y-118800000D01*
X68900000Y-124200000D02*
X68900000Y-123300000D01*
X68900000Y-124200000D02*
X75100000Y-124200000D01*
X75100000Y-118800000D02*
X75100000Y-119700000D01*
X75100000Y-124200000D02*
X75100000Y-123300000D01*
%TO.C,J3*%
X50570000Y-124330000D02*
X50570000Y-123000000D01*
X51900000Y-124330000D02*
X50570000Y-124330000D01*
X53170000Y-124330000D02*
X65930000Y-124330000D01*
X53170000Y-124330000D02*
X53170000Y-121670000D01*
X65930000Y-124330000D02*
X65930000Y-121670000D01*
X53170000Y-121670000D02*
X65930000Y-121670000D01*
%TO.C,J1*%
X61560000Y-97440000D02*
X61560000Y-98500000D01*
X60500000Y-97440000D02*
X61560000Y-97440000D01*
X59500000Y-97440000D02*
X51440000Y-97440000D01*
X59500000Y-97440000D02*
X59500000Y-99560000D01*
X51440000Y-97440000D02*
X51440000Y-99560000D01*
X59500000Y-99560000D02*
X51440000Y-99560000D01*
%TO.C,D4*%
X64800000Y-97265000D02*
X62515000Y-97265000D01*
X62515000Y-98735000D02*
X64800000Y-98735000D01*
X62515000Y-97265000D02*
X62515000Y-98735000D01*
%TO.C,U5*%
X56640000Y-103640000D02*
X56640000Y-104090000D01*
X56640000Y-110860000D02*
X56640000Y-110410000D01*
X57090000Y-103640000D02*
X56640000Y-103640000D01*
X57090000Y-110860000D02*
X56640000Y-110860000D01*
X63410000Y-103640000D02*
X63860000Y-103640000D01*
X63410000Y-110860000D02*
X63860000Y-110860000D01*
X63860000Y-103640000D02*
X63860000Y-104090000D01*
X63860000Y-110860000D02*
X63860000Y-110410000D01*
X56050000Y-104090000D02*
X55710000Y-103620000D01*
X56390000Y-103620000D01*
X56050000Y-104090000D01*
G36*
X56050000Y-104090000D02*
G01*
X55710000Y-103620000D01*
X56390000Y-103620000D01*
X56050000Y-104090000D01*
G37*
%TO.C,Q10*%
X89318378Y-113579730D02*
X89078378Y-113249730D01*
X89558378Y-113249730D01*
X89318378Y-113579730D01*
G36*
X89318378Y-113579730D02*
G01*
X89078378Y-113249730D01*
X89558378Y-113249730D01*
X89318378Y-113579730D01*
G37*
X95510000Y-118685000D02*
X89390000Y-118685000D01*
X95510000Y-113315000D02*
X89830000Y-113315000D01*
%TO.C,Q8*%
X89368378Y-107179730D02*
X89128378Y-106849730D01*
X89608378Y-106849730D01*
X89368378Y-107179730D01*
G36*
X89368378Y-107179730D02*
G01*
X89128378Y-106849730D01*
X89608378Y-106849730D01*
X89368378Y-107179730D01*
G37*
X95560000Y-112285000D02*
X89440000Y-112285000D01*
X95560000Y-106915000D02*
X89880000Y-106915000D01*
%TO.C,Q2*%
X89368378Y-100929730D02*
X89128378Y-100599730D01*
X89608378Y-100599730D01*
X89368378Y-100929730D01*
G36*
X89368378Y-100929730D02*
G01*
X89128378Y-100599730D01*
X89608378Y-100599730D01*
X89368378Y-100929730D01*
G37*
X95560000Y-106035000D02*
X89440000Y-106035000D01*
X95560000Y-100665000D02*
X89880000Y-100665000D01*
%TD*%
M02*
