%TF.GenerationSoftware,KiCad,Pcbnew,8.0.5*%
%TF.CreationDate,2025-03-16T21:49:30+05:30*%
%TF.ProjectId,bldc,626c6463-2e6b-4696-9361-645f70636258,rev?*%
%TF.SameCoordinates,Original*%
%TF.FileFunction,Soldermask,Bot*%
%TF.FilePolarity,Negative*%
%FSLAX46Y46*%
G04 Gerber Fmt 4.6, Leading zero omitted, Abs format (unit mm)*
G04 Created by KiCad (PCBNEW 8.0.5) date 2025-03-16 21:49:30*
%MOMM*%
%LPD*%
G01*
G04 APERTURE LIST*
G04 Aperture macros list*
%AMRoundRect*
0 Rectangle with rounded corners*
0 $1 Rounding radius*
0 $2 $3 $4 $5 $6 $7 $8 $9 X,Y pos of 4 corners*
0 Add a 4 corners polygon primitive as box body*
4,1,4,$2,$3,$4,$5,$6,$7,$8,$9,$2,$3,0*
0 Add four circle primitives for the rounded corners*
1,1,$1+$1,$2,$3*
1,1,$1+$1,$4,$5*
1,1,$1+$1,$6,$7*
1,1,$1+$1,$8,$9*
0 Add four rect primitives between the rounded corners*
20,1,$1+$1,$2,$3,$4,$5,0*
20,1,$1+$1,$4,$5,$6,$7,0*
20,1,$1+$1,$6,$7,$8,$9,0*
20,1,$1+$1,$8,$9,$2,$3,0*%
%AMFreePoly0*
4,1,17,2.675000,1.605000,1.875000,1.605000,1.875000,0.935000,2.675000,0.935000,2.675000,0.335000,1.875000,0.335000,1.875000,-0.335000,2.675000,-0.335000,2.675000,-0.935000,1.875000,-0.935000,1.875000,-1.605000,2.675000,-1.605000,2.675000,-2.205000,-1.875000,-2.205000,-1.875000,2.205000,2.675000,2.205000,2.675000,1.605000,2.675000,1.605000,$1*%
G04 Aperture macros list end*
%ADD10R,6.000000X4.000000*%
%ADD11RoundRect,0.225000X-0.250000X0.225000X-0.250000X-0.225000X0.250000X-0.225000X0.250000X0.225000X0*%
%ADD12RoundRect,0.225000X0.225000X0.250000X-0.225000X0.250000X-0.225000X-0.250000X0.225000X-0.250000X0*%
%ADD13RoundRect,0.200000X-0.200000X-0.275000X0.200000X-0.275000X0.200000X0.275000X-0.200000X0.275000X0*%
%ADD14RoundRect,0.200000X-0.275000X0.200000X-0.275000X-0.200000X0.275000X-0.200000X0.275000X0.200000X0*%
%ADD15RoundRect,0.200000X0.200000X0.275000X-0.200000X0.275000X-0.200000X-0.275000X0.200000X-0.275000X0*%
%ADD16R,1.700000X1.700000*%
%ADD17O,1.700000X1.700000*%
%ADD18R,1.350000X1.350000*%
%ADD19O,1.350000X1.350000*%
%ADD20FreePoly0,180.000000*%
%ADD21RoundRect,0.125000X0.300000X0.125000X-0.300000X0.125000X-0.300000X-0.125000X0.300000X-0.125000X0*%
%ADD22RoundRect,0.250000X0.400000X0.600000X-0.400000X0.600000X-0.400000X-0.600000X0.400000X-0.600000X0*%
%ADD23C,0.600000*%
G04 APERTURE END LIST*
D10*
%TO.C,TP5*%
X77750000Y-101500000D03*
%TD*%
%TO.C,TP4*%
X93500000Y-122250000D03*
%TD*%
D11*
%TO.C,C17*%
X75500000Y-107275000D03*
X75500000Y-105725000D03*
%TD*%
D12*
%TO.C,C16*%
X66475000Y-102500000D03*
X68025000Y-102500000D03*
%TD*%
%TO.C,C13*%
X75275000Y-123000000D03*
X73725000Y-123000000D03*
%TD*%
D13*
%TO.C,R18*%
X68075000Y-104000000D03*
X66425000Y-104000000D03*
%TD*%
D14*
%TO.C,R11*%
X77000000Y-123075000D03*
X77000000Y-121425000D03*
%TD*%
D13*
%TO.C,R7*%
X66425000Y-105500000D03*
X68075000Y-105500000D03*
%TD*%
D15*
%TO.C,R5*%
X96325000Y-117750000D03*
X94675000Y-117750000D03*
%TD*%
%TO.C,R3*%
X96075000Y-111750000D03*
X94425000Y-111750000D03*
%TD*%
%TO.C,R1*%
X94425000Y-105500000D03*
X96075000Y-105500000D03*
%TD*%
D16*
%TO.C,J3*%
X51900000Y-123000000D03*
D17*
X54440000Y-123000000D03*
X56980000Y-123000000D03*
X59520000Y-123000000D03*
X62060000Y-123000000D03*
X64600000Y-123000000D03*
%TD*%
D18*
%TO.C,J1*%
X60500000Y-98500000D03*
D19*
X58500000Y-98500000D03*
X56500000Y-98500000D03*
X54500000Y-98500000D03*
X52500000Y-98500000D03*
%TD*%
D20*
%TO.C,Q9*%
X89200000Y-115900000D03*
D21*
X92750000Y-113995000D03*
X92750000Y-115265000D03*
X92750000Y-116535000D03*
X92750000Y-117805000D03*
%TD*%
D20*
%TO.C,Q7*%
X89255000Y-109655000D03*
D21*
X92805000Y-107750000D03*
X92805000Y-109020000D03*
X92805000Y-110290000D03*
X92805000Y-111560000D03*
%TD*%
D20*
%TO.C,Q1*%
X89255000Y-103405000D03*
D21*
X92805000Y-101500000D03*
X92805000Y-102770000D03*
X92805000Y-104040000D03*
X92805000Y-105310000D03*
%TD*%
D22*
%TO.C,D3*%
X82750000Y-113250000D03*
X79250000Y-113250000D03*
%TD*%
%TO.C,D2*%
X82750000Y-106500000D03*
X79250000Y-106500000D03*
%TD*%
%TO.C,D1*%
X82750000Y-97500000D03*
X79250000Y-97500000D03*
%TD*%
D23*
X85250000Y-116250000D03*
X85250000Y-115750000D03*
X85315294Y-109053049D03*
X85250000Y-109750000D03*
X89600000Y-100500000D03*
X89600000Y-100000000D03*
X89500000Y-99250000D03*
X83750000Y-121750000D03*
X88000000Y-122000000D03*
X70000000Y-108250000D03*
X70000000Y-104000000D03*
X51500000Y-114000000D03*
X61000000Y-108250000D03*
X54750000Y-113500000D03*
X53000000Y-113500000D03*
X57250000Y-113500000D03*
X69250000Y-113750000D03*
X70250000Y-116500000D03*
X82000000Y-108750000D03*
X64000000Y-112000000D03*
X60250000Y-115500000D03*
X82000000Y-115250000D03*
X71675000Y-116750000D03*
X77750000Y-118000000D03*
X77000000Y-110000000D03*
X76250000Y-103750000D03*
X90000000Y-120500000D03*
X57500000Y-106000000D03*
X61500000Y-106000000D03*
X54000000Y-108000000D03*
X56000000Y-103000000D03*
X65000000Y-100000000D03*
X58000000Y-101750000D03*
X84000000Y-120500000D03*
X80000000Y-118000000D03*
X94250000Y-113995000D03*
X93500000Y-113995000D03*
X93500000Y-115265000D03*
X93500000Y-116000000D03*
X94250000Y-115265000D03*
X94250000Y-116000000D03*
X95250000Y-114000000D03*
X95250000Y-115250000D03*
X95250000Y-116000000D03*
X93500000Y-107750000D03*
X94500000Y-107750000D03*
X93500000Y-109020000D03*
X94500000Y-109020000D03*
X93500000Y-110290000D03*
X94500000Y-110290000D03*
X95500000Y-110250000D03*
X95500000Y-109000000D03*
X95500000Y-107750000D03*
X95250000Y-101500000D03*
X94250000Y-101500000D03*
X93750000Y-103750000D03*
X94500000Y-103750000D03*
X95250000Y-103750000D03*
X93550000Y-101500000D03*
X93500000Y-102770000D03*
X94250000Y-102770000D03*
X95250000Y-102750000D03*
X82250000Y-99250000D03*
X77500000Y-98250000D03*
X82000000Y-105500000D03*
X80500000Y-105250000D03*
X80375000Y-112125000D03*
X82000000Y-112500000D03*
X59500000Y-107500000D03*
X58850000Y-109125000D03*
X54250000Y-101750000D03*
X55750000Y-111250000D03*
X96500000Y-119250000D03*
X96750000Y-112500000D03*
X96750000Y-106000000D03*
X69000000Y-107000000D03*
X67100000Y-111750000D03*
X67069186Y-110861574D03*
X68700000Y-111050000D03*
X85500000Y-123750000D03*
X59250000Y-113750000D03*
X94250000Y-122500000D03*
X95000000Y-122500000D03*
X85250000Y-122500000D03*
X78250000Y-123500000D03*
X82250000Y-123500000D03*
X74000000Y-117500000D03*
X80750000Y-120750000D03*
X74000000Y-121500000D03*
X77000000Y-121600000D03*
X54625000Y-108875000D03*
X62000000Y-109250000D03*
X62500000Y-114500000D03*
X75250000Y-97500000D03*
X53750000Y-105825000D03*
X57000000Y-101000000D03*
X52750000Y-112350000D03*
X51150000Y-117500000D03*
X52750000Y-107400000D03*
X51100000Y-101000000D03*
X61750000Y-101750000D03*
X62250000Y-105500000D03*
M02*
